<svg xmlns="http://www.w3.org/2000/svg" width="32" height="32" fill="none" viewBox="0 0 32 32" id="brain">
  <path fill="url(#paint0_linear_20020_5011)" d="M22.499 28.752L18.978 25.0795H23.8765V28.1984C23.8765 28.9193 22.9979 29.2724 22.499 28.752Z"></path>
  <path fill="url(#paint1_linear_20020_5011)" d="M22.499 28.752L18.978 25.0795H23.8765V28.1984C23.8765 28.9193 22.9979 29.2724 22.499 28.752Z"></path>
  <path fill="url(#paint2_radial_20020_5011)" d="M30 18.1788C29.6783 22.7683 28.0845 26.065 23.3377 26.065H14.1627C11.7564 26.065 9.79198 24.8125 9.03701 22.9056L8.70953 22.1277C8.47941 21.5465 8.01343 21.4302 7.38922 21.3933C4.47516 21.2215 2.51422 19.8543 2.22522 16.909C2.22522 9.06798 8.69391 4.06271 15.8839 4.06271C23.7249 4.06271 30 10.3378 30 18.1788Z"></path>
  <path fill="url(#paint3_radial_20020_5011)" d="M30 18.1788C29.6783 22.7683 28.0845 26.065 23.3377 26.065H14.1627C11.7564 26.065 9.79198 24.8125 9.03701 22.9056L8.70953 22.1277C8.47941 21.5465 8.01343 21.4302 7.38922 21.3933C4.47516 21.2215 2.51422 19.8543 2.22522 16.909C2.22522 9.06798 8.69391 4.06271 15.8839 4.06271C23.7249 4.06271 30 10.3378 30 18.1788Z"></path>
  <path fill="url(#paint4_radial_20020_5011)" d="M30 18.1788C29.6783 22.7683 28.0845 26.065 23.3377 26.065H14.1627C11.7564 26.065 9.79198 24.8125 9.03701 22.9056L8.70953 22.1277C8.47941 21.5465 8.01343 21.4302 7.38922 21.3933C4.47516 21.2215 2.51422 19.8543 2.22522 16.909C2.22522 9.06798 8.69391 4.06271 15.8839 4.06271C23.7249 4.06271 30 10.3378 30 18.1788Z"></path>
  <path fill="url(#paint5_linear_20020_5011)" d="M30 18.1788C29.6783 22.7683 28.0845 26.065 23.3377 26.065H14.1627C11.7564 26.065 9.79198 24.8125 9.03701 22.9056L8.70953 22.1277C8.47941 21.5465 8.01343 21.4302 7.38922 21.3933C4.47516 21.2215 2.51422 19.8543 2.22522 16.909C2.22522 9.06798 8.69391 4.06271 15.8839 4.06271C23.7249 4.06271 30 10.3378 30 18.1788Z"></path>
  <path fill="url(#paint6_radial_20020_5011)" d="M30 18.1788C29.6783 22.7683 28.0845 26.065 23.3377 26.065H14.1627C11.7564 26.065 9.79198 24.8125 9.03701 22.9056L8.70953 22.1277C8.47941 21.5465 8.01343 21.4302 7.38922 21.3933C4.47516 21.2215 2.51422 19.8543 2.22522 16.909C2.22522 9.06798 8.69391 4.06271 15.8839 4.06271C23.7249 4.06271 30 10.3378 30 18.1788Z"></path>
  <g filter="url(#filter0_f_20020_5011)">
    <circle cx="18.627" cy="15.322" r=".445" stroke="url(#paint7_linear_20020_5011)" stroke-linecap="round"></circle>
  </g>
  <g filter="url(#filter1_f_20020_5011)">
    <path stroke="#C0568D" stroke-linecap="round" stroke-width=".8" d="M10.5762 7.11621C10.5706 7.00589 10.4766 6.92101 10.3663 6.92662C10.256 6.93223 10.1711 7.02621 10.1767 7.13652C10.1908 7.41372 10.1825 8.04061 10.0629 8.5109C7.89256 9.0352 6.45884 10.2995 5.54874 11.72C4.52927 13.3113 4.16669 15.0972 4.1453 16.2633C4.14327 16.3738 4.23116 16.4649 4.3416 16.467C4.45203 16.469 4.5432 16.3811 4.54523 16.2707C4.5655 15.1659 4.9123 13.455 5.88554 11.9358C6.75301 10.5818 8.11803 9.37896 10.2048 8.88831C10.2457 8.89152 10.2858 8.8819 10.3202 8.86206C10.5286 8.81627 10.744 8.77751 10.9668 8.74631C11.0762 8.73098 11.1524 8.62988 11.1371 8.52049C11.1218 8.4111 11.0207 8.33485 10.9113 8.35018C10.7689 8.37011 10.6294 8.39302 10.4926 8.41875C10.5865 7.92581 10.5891 7.37039 10.5762 7.11621Z"></path>
    <path stroke="url(#paint8_radial_20020_5011)" stroke-linecap="round" stroke-width=".8" d="M10.5762 7.11621C10.5706 7.00589 10.4766 6.92101 10.3663 6.92662C10.256 6.93223 10.1711 7.02621 10.1767 7.13652C10.1908 7.41372 10.1825 8.04061 10.0629 8.5109C7.89256 9.0352 6.45884 10.2995 5.54874 11.72C4.52927 13.3113 4.16669 15.0972 4.1453 16.2633C4.14327 16.3738 4.23116 16.4649 4.3416 16.467C4.45203 16.469 4.5432 16.3811 4.54523 16.2707C4.5655 15.1659 4.9123 13.455 5.88554 11.9358C6.75301 10.5818 8.11803 9.37896 10.2048 8.88831C10.2457 8.89152 10.2858 8.8819 10.3202 8.86206C10.5286 8.81627 10.744 8.77751 10.9668 8.74631C11.0762 8.73098 11.1524 8.62988 11.1371 8.52049C11.1218 8.4111 11.0207 8.33485 10.9113 8.35018C10.7689 8.37011 10.6294 8.39302 10.4926 8.41875C10.5865 7.92581 10.5891 7.37039 10.5762 7.11621Z"></path>
  </g>
  <g filter="url(#filter2_if_20020_5011)">
    <path fill="url(#paint9_linear_20020_5011)" d="M10.5762 7.11621C10.5706 7.00589 10.4766 6.92101 10.3663 6.92662C10.256 6.93223 10.1711 7.02621 10.1767 7.13652C10.1908 7.41372 10.1825 8.04061 10.0629 8.5109C7.89256 9.0352 6.45884 10.2995 5.54874 11.72C4.52927 13.3113 4.16669 15.0972 4.1453 16.2633C4.14327 16.3738 4.23116 16.4649 4.3416 16.467C4.45203 16.469 4.5432 16.3811 4.54523 16.2707C4.5655 15.1659 4.9123 13.455 5.88554 11.9358C6.75301 10.5818 8.11803 9.37896 10.2048 8.88831C10.2457 8.89152 10.2858 8.8819 10.3202 8.86206C10.5286 8.81627 10.744 8.77751 10.9668 8.74631C11.0762 8.73098 11.1524 8.62988 11.1371 8.52049C11.1218 8.4111 11.0207 8.33485 10.9113 8.35018C10.7689 8.37011 10.6294 8.39302 10.4926 8.41875C10.5865 7.92581 10.5891 7.37039 10.5762 7.11621Z"></path>
  </g>
  <g filter="url(#filter3_f_20020_5011)">
    <path fill-rule="evenodd" stroke="url(#paint10_linear_20020_5011)" stroke-linecap="round" stroke-width=".8" d="M18.8175 6.37412C16.6464 5.01868 14.5895 5.86097 13.8429 6.44057C13.7557 6.50831 13.63 6.49248 13.5623 6.40523C13.4946 6.31798 13.5104 6.19234 13.5976 6.12461C14.4344 5.47504 16.6754 4.56525 19.0293 6.03481C19.123 6.09331 19.1515 6.21668 19.0931 6.31038C19.0346 6.40408 18.9112 6.43261 18.8175 6.37412Z" clip-rule="evenodd"></path>
  </g>
  <g filter="url(#filter4_f_20020_5011)">
    <path fill="url(#paint11_linear_20020_5011)" fill-rule="evenodd" d="M18.8175 6.37412C16.6464 5.01868 14.5895 5.86097 13.8429 6.44057C13.7557 6.50831 13.63 6.49248 13.5623 6.40523C13.4946 6.31798 13.5104 6.19234 13.5976 6.12461C14.4344 5.47504 16.6754 4.56525 19.0293 6.03481C19.123 6.09331 19.1515 6.21668 19.0931 6.31038C19.0346 6.40408 18.9112 6.43261 18.8175 6.37412Z" clip-rule="evenodd"></path>
  </g>
  <g filter="url(#filter5_f_20020_5011)">
    <path fill="#CC5073" d="M16.1126 5.65215C15.0857 5.71072 14.2593 6.11666 13.8421 6.44057C13.7691 6.4972 13.6693 6.49542 13.599 6.44233C14.0446 6.06437 15.0793 5.48873 16.1126 5.65215Z"></path>
  </g>
  <g filter="url(#filter6_if_20020_5011)">
    <path stroke="#FF8DBD" stroke-linecap="round" stroke-width=".8" d="M24.8082 9.39359C24.8263 9.28463 24.7527 9.18159 24.6438 9.16343C24.5348 9.14527 24.4318 9.21887 24.4136 9.32783L24.4041 9.38534C24.3615 9.64182 24.3273 9.84776 24.2496 10.1033C24.1662 10.3778 24.0307 10.7145 23.7758 11.2244C23.3964 11.9831 23.1275 12.7881 23.0118 13.1938C22.7548 13.2636 22.492 13.3881 22.1797 13.5709C21.8192 13.7821 21.3794 14.0794 20.7953 14.4766C19.8931 15.0901 19.0128 15.2168 18.7107 15.2077C18.6003 15.2043 18.5081 15.2911 18.5047 15.4015C18.5014 15.5119 18.5882 15.6041 18.6986 15.6075C19.084 15.6192 20.0474 15.4688 21.0202 14.8073C21.608 14.4077 22.0354 14.119 22.3819 13.9161C22.6638 13.751 22.8832 13.6482 23.0819 13.5896C23.3472 13.7674 23.9268 14.0716 24.6975 14.2877C25.1285 14.4085 25.9634 14.7262 26.724 15.5219C27.4817 16.3145 28.1798 17.596 28.3176 19.6708C28.3249 19.7811 28.4202 19.8645 28.5304 19.8571C28.6406 19.8498 28.724 19.7545 28.7167 19.6443C28.5733 17.4847 27.8415 16.112 27.0131 15.2455C26.1876 14.3819 25.2804 14.0357 24.8055 13.9025C24.1504 13.7188 23.6523 13.4709 23.3935 13.3139C23.5017 12.9323 23.7638 12.1428 24.1335 11.4033C24.3942 10.8819 24.54 10.5233 24.6323 10.2197C24.7179 9.93822 24.756 9.70829 24.7981 9.45446L24.8082 9.39359Z"></path>
    <path stroke="url(#paint12_radial_20020_5011)" stroke-linecap="round" stroke-width=".8" d="M24.8082 9.39359C24.8263 9.28463 24.7527 9.18159 24.6438 9.16343C24.5348 9.14527 24.4318 9.21887 24.4136 9.32783L24.4041 9.38534C24.3615 9.64182 24.3273 9.84776 24.2496 10.1033C24.1662 10.3778 24.0307 10.7145 23.7758 11.2244C23.3964 11.9831 23.1275 12.7881 23.0118 13.1938C22.7548 13.2636 22.492 13.3881 22.1797 13.5709C21.8192 13.7821 21.3794 14.0794 20.7953 14.4766C19.8931 15.0901 19.0128 15.2168 18.7107 15.2077C18.6003 15.2043 18.5081 15.2911 18.5047 15.4015C18.5014 15.5119 18.5882 15.6041 18.6986 15.6075C19.084 15.6192 20.0474 15.4688 21.0202 14.8073C21.608 14.4077 22.0354 14.119 22.3819 13.9161C22.6638 13.751 22.8832 13.6482 23.0819 13.5896C23.3472 13.7674 23.9268 14.0716 24.6975 14.2877C25.1285 14.4085 25.9634 14.7262 26.724 15.5219C27.4817 16.3145 28.1798 17.596 28.3176 19.6708C28.3249 19.7811 28.4202 19.8645 28.5304 19.8571C28.6406 19.8498 28.724 19.7545 28.7167 19.6443C28.5733 17.4847 27.8415 16.112 27.0131 15.2455C26.1876 14.3819 25.2804 14.0357 24.8055 13.9025C24.1504 13.7188 23.6523 13.4709 23.3935 13.3139C23.5017 12.9323 23.7638 12.1428 24.1335 11.4033C24.3942 10.8819 24.54 10.5233 24.6323 10.2197C24.7179 9.93822 24.756 9.70829 24.7981 9.45446L24.8082 9.39359Z"></path>
    <path stroke="url(#paint13_radial_20020_5011)" stroke-linecap="round" stroke-width=".8" d="M24.8082 9.39359C24.8263 9.28463 24.7527 9.18159 24.6438 9.16343C24.5348 9.14527 24.4318 9.21887 24.4136 9.32783L24.4041 9.38534C24.3615 9.64182 24.3273 9.84776 24.2496 10.1033C24.1662 10.3778 24.0307 10.7145 23.7758 11.2244C23.3964 11.9831 23.1275 12.7881 23.0118 13.1938C22.7548 13.2636 22.492 13.3881 22.1797 13.5709C21.8192 13.7821 21.3794 14.0794 20.7953 14.4766C19.8931 15.0901 19.0128 15.2168 18.7107 15.2077C18.6003 15.2043 18.5081 15.2911 18.5047 15.4015C18.5014 15.5119 18.5882 15.6041 18.6986 15.6075C19.084 15.6192 20.0474 15.4688 21.0202 14.8073C21.608 14.4077 22.0354 14.119 22.3819 13.9161C22.6638 13.751 22.8832 13.6482 23.0819 13.5896C23.3472 13.7674 23.9268 14.0716 24.6975 14.2877C25.1285 14.4085 25.9634 14.7262 26.724 15.5219C27.4817 16.3145 28.1798 17.596 28.3176 19.6708C28.3249 19.7811 28.4202 19.8645 28.5304 19.8571C28.6406 19.8498 28.724 19.7545 28.7167 19.6443C28.5733 17.4847 27.8415 16.112 27.0131 15.2455C26.1876 14.3819 25.2804 14.0357 24.8055 13.9025C24.1504 13.7188 23.6523 13.4709 23.3935 13.3139C23.5017 12.9323 23.7638 12.1428 24.1335 11.4033C24.3942 10.8819 24.54 10.5233 24.6323 10.2197C24.7179 9.93822 24.756 9.70829 24.7981 9.45446L24.8082 9.39359Z"></path>
  </g>
  <g filter="url(#filter7_if_20020_5011)">
    <path fill="#FF73A8" d="M24.8082 9.39359C24.8263 9.28463 24.7527 9.18159 24.6438 9.16343C24.5348 9.14527 24.4318 9.21887 24.4136 9.32783L24.4041 9.38534C24.3615 9.64182 24.3273 9.84776 24.2496 10.1033C24.1662 10.3778 24.0307 10.7145 23.7758 11.2244C23.3964 11.9831 23.1275 12.7881 23.0118 13.1938C22.7548 13.2636 22.492 13.3881 22.1797 13.5709C21.8192 13.7821 21.3794 14.0794 20.7953 14.4766C19.8931 15.0901 19.0128 15.2168 18.7107 15.2077C18.6003 15.2043 18.5081 15.2911 18.5047 15.4015C18.5014 15.5119 18.5882 15.6041 18.6986 15.6075C19.084 15.6192 20.0474 15.4688 21.0202 14.8073C21.608 14.4077 22.0354 14.119 22.3819 13.9161C22.6638 13.751 22.8832 13.6482 23.0819 13.5896C23.3472 13.7674 23.9268 14.0716 24.6975 14.2877C25.1285 14.4085 25.9634 14.7262 26.724 15.5219C27.4817 16.3145 28.1798 17.596 28.3176 19.6708C28.3249 19.7811 28.4202 19.8645 28.5304 19.8571C28.6406 19.8498 28.724 19.7545 28.7167 19.6443C28.5733 17.4847 27.8415 16.112 27.0131 15.2455C26.1876 14.3819 25.2804 14.0357 24.8055 13.9025C24.1504 13.7188 23.6523 13.4709 23.3935 13.3139C23.5017 12.9323 23.7638 12.1428 24.1335 11.4033C24.3942 10.8819 24.54 10.5233 24.6323 10.2197C24.7179 9.93822 24.756 9.70829 24.7981 9.45446L24.8082 9.39359Z"></path>
  </g>
  <g filter="url(#filter8_f_20020_5011)">
    <path stroke="#DE4B9E" stroke-linecap="round" stroke-width=".8" d="M9.2169 14.6441C9.1145 14.6027 8.99792 14.6521 8.95652 14.7545C8.91513 14.8569 8.96458 14.9735 9.06699 15.0149C9.50824 15.1933 10.396 15.8399 10.4555 16.9854C10.1239 17.2776 9.83085 17.5947 9.57418 17.9231C8.6836 19.0627 8.29187 19.9396 8.16727 20.8172C8.15175 20.9265 8.22781 21.0278 8.33717 21.0433C8.44653 21.0588 8.54777 20.9828 8.5633 20.8734C8.67829 20.0635 9.04294 19.2525 9.88935 18.1694C10.7328 17.0901 11.9824 16.1504 13.7359 15.8707C13.845 15.8533 13.9193 15.7508 13.9019 15.6417C13.8845 15.5327 13.782 15.4583 13.6729 15.4757C12.531 15.6578 11.5892 16.1033 10.8255 16.6826C10.6382 15.5026 9.70269 14.8404 9.2169 14.6441Z"></path>
    <path stroke="url(#paint14_radial_20020_5011)" stroke-linecap="round" stroke-width=".8" d="M9.2169 14.6441C9.1145 14.6027 8.99792 14.6521 8.95652 14.7545C8.91513 14.8569 8.96458 14.9735 9.06699 15.0149C9.50824 15.1933 10.396 15.8399 10.4555 16.9854C10.1239 17.2776 9.83085 17.5947 9.57418 17.9231C8.6836 19.0627 8.29187 19.9396 8.16727 20.8172C8.15175 20.9265 8.22781 21.0278 8.33717 21.0433C8.44653 21.0588 8.54777 20.9828 8.5633 20.8734C8.67829 20.0635 9.04294 19.2525 9.88935 18.1694C10.7328 17.0901 11.9824 16.1504 13.7359 15.8707C13.845 15.8533 13.9193 15.7508 13.9019 15.6417C13.8845 15.5327 13.782 15.4583 13.6729 15.4757C12.531 15.6578 11.5892 16.1033 10.8255 16.6826C10.6382 15.5026 9.70269 14.8404 9.2169 14.6441Z"></path>
  </g>
  <g filter="url(#filter9_if_20020_5011)">
    <path fill="url(#paint15_linear_20020_5011)" d="M9.21703 14.6441C9.11462 14.6027 8.99805 14.6521 8.95665 14.7545C8.91525 14.8569 8.96471 14.9735 9.06711 15.0149C9.50836 15.1933 10.3961 15.8399 10.4556 16.9854C10.124 17.2776 9.83097 17.5947 9.5743 17.9231C8.68372 19.0627 8.22487 20.3457 8.10028 21.2232C8.08475 21.3326 8.16082 21.4338 8.27018 21.4494C8.37954 21.4649 8.48078 21.3888 8.49631 21.2795C8.6113 20.4695 9.04307 19.2525 9.88947 18.1694C10.733 17.0901 11.9825 16.1504 13.736 15.8707C13.8451 15.8533 13.9194 15.7508 13.902 15.6417C13.8846 15.5327 13.7821 15.4583 13.673 15.4757C12.5311 15.6578 11.5893 16.1033 10.8257 16.6826C10.6383 15.5026 9.70282 14.8404 9.21703 14.6441Z"></path>
  </g>
  <g filter="url(#filter10_f_20020_5011)">
    <path fill="url(#paint16_radial_20020_5011)" d="M9.21703 14.6441C9.11462 14.6027 8.99805 14.6521 8.95665 14.7545C8.91525 14.8569 8.96471 14.9735 9.06711 15.0149C9.50836 15.1933 10.3961 15.8399 10.4556 16.9854C10.124 17.2776 9.83097 17.5947 9.5743 17.9231C8.68372 19.0627 8.22487 20.3457 8.10028 21.2232C8.08475 21.3326 8.16082 21.4338 8.27018 21.4494C8.37954 21.4649 8.48078 21.3888 8.49631 21.2795C8.6113 20.4695 9.04307 19.2525 9.88947 18.1694C10.733 17.0901 11.9825 16.1504 13.736 15.8707C13.8451 15.8533 13.9194 15.7508 13.902 15.6417C13.8846 15.5327 13.7821 15.4583 13.673 15.4757C12.5311 15.6578 11.5893 16.1033 10.8257 16.6826C10.6383 15.5026 9.70282 14.8404 9.21703 14.6441Z"></path>
  </g>
  <g filter="url(#filter11_f_20020_5011)">
    <path stroke="#FF65C6" stroke-linecap="round" stroke-width="1.25" d="M17.5212 18.5055C17.6254 18.5423 17.6799 18.6566 17.6431 18.7607C17.4675 19.2575 17.2763 19.644 17.0603 19.943C17.1231 20.1434 17.3507 20.4784 17.9545 20.4784H19.5233C19.733 20.4616 20.0442 20.5008 20.3317 20.6691C20.3451 20.677 20.3585 20.6851 20.3717 20.6935L22.2579 20.4174C22.4841 20.3892 22.7604 20.3082 23.0131 20.1726C23.2665 20.0365 23.4823 19.853 23.608 19.6278C23.9078 19.0908 24.0583 18.837 24.0983 18.7742C24.1576 18.681 24.2812 18.6535 24.3744 18.7128C24.4676 18.7721 24.4951 18.8958 24.4358 18.9889C24.4028 19.0407 24.2576 19.2848 23.9573 19.8228C23.783 20.1351 23.4989 20.3657 23.2023 20.525C22.9058 20.6842 22.5829 20.7797 22.3096 20.8141L20.7409 21.0437C20.8556 21.2052 20.9455 21.4068 20.9945 21.6554C21.1695 22.543 21.2445 22.9208 21.26 22.9986C21.2817 23.1069 21.2115 23.2123 21.1031 23.2339C20.9948 23.2556 20.8895 23.1854 20.8678 23.077C20.8521 22.9986 20.7771 22.6202 20.6021 21.7328C20.5258 21.3461 20.3319 21.1327 20.1297 21.0143C19.9197 20.8914 19.6898 20.8652 19.5505 20.8777L19.5416 20.8784H17.9545C17.3098 20.8784 16.9479 20.5753 16.7738 20.2756C16.7333 20.3146 16.6919 20.3513 16.6496 20.3859C16.2507 20.7125 15.7973 20.8288 15.2941 20.8775C14.4647 20.9578 13.5582 20.6996 13.2496 20.5649C13.1483 20.5207 13.1021 20.4028 13.1463 20.3016C13.1904 20.2003 13.3083 20.1541 13.4096 20.1983C13.6738 20.3136 14.5111 20.5514 15.2556 20.4794C15.7212 20.4343 16.0842 20.3318 16.3962 20.0764C16.7117 19.8182 16.9985 19.3842 17.266 18.6274C17.3028 18.5233 17.4171 18.4687 17.5212 18.5055Z"></path>
    <path stroke="url(#paint17_linear_20020_5011)" stroke-linecap="round" stroke-width="1.25" d="M17.5212 18.5055C17.6254 18.5423 17.6799 18.6566 17.6431 18.7607C17.4675 19.2575 17.2763 19.644 17.0603 19.943C17.1231 20.1434 17.3507 20.4784 17.9545 20.4784H19.5233C19.733 20.4616 20.0442 20.5008 20.3317 20.6691C20.3451 20.677 20.3585 20.6851 20.3717 20.6935L22.2579 20.4174C22.4841 20.3892 22.7604 20.3082 23.0131 20.1726C23.2665 20.0365 23.4823 19.853 23.608 19.6278C23.9078 19.0908 24.0583 18.837 24.0983 18.7742C24.1576 18.681 24.2812 18.6535 24.3744 18.7128C24.4676 18.7721 24.4951 18.8958 24.4358 18.9889C24.4028 19.0407 24.2576 19.2848 23.9573 19.8228C23.783 20.1351 23.4989 20.3657 23.2023 20.525C22.9058 20.6842 22.5829 20.7797 22.3096 20.8141L20.7409 21.0437C20.8556 21.2052 20.9455 21.4068 20.9945 21.6554C21.1695 22.543 21.2445 22.9208 21.26 22.9986C21.2817 23.1069 21.2115 23.2123 21.1031 23.2339C20.9948 23.2556 20.8895 23.1854 20.8678 23.077C20.8521 22.9986 20.7771 22.6202 20.6021 21.7328C20.5258 21.3461 20.3319 21.1327 20.1297 21.0143C19.9197 20.8914 19.6898 20.8652 19.5505 20.8777L19.5416 20.8784H17.9545C17.3098 20.8784 16.9479 20.5753 16.7738 20.2756C16.7333 20.3146 16.6919 20.3513 16.6496 20.3859C16.2507 20.7125 15.7973 20.8288 15.2941 20.8775C14.4647 20.9578 13.5582 20.6996 13.2496 20.5649C13.1483 20.5207 13.1021 20.4028 13.1463 20.3016C13.1904 20.2003 13.3083 20.1541 13.4096 20.1983C13.6738 20.3136 14.5111 20.5514 15.2556 20.4794C15.7212 20.4343 16.0842 20.3318 16.3962 20.0764C16.7117 19.8182 16.9985 19.3842 17.266 18.6274C17.3028 18.5233 17.4171 18.4687 17.5212 18.5055Z"></path>
    <path stroke="url(#paint18_radial_20020_5011)" stroke-linecap="round" stroke-width="1.25" d="M17.5212 18.5055C17.6254 18.5423 17.6799 18.6566 17.6431 18.7607C17.4675 19.2575 17.2763 19.644 17.0603 19.943C17.1231 20.1434 17.3507 20.4784 17.9545 20.4784H19.5233C19.733 20.4616 20.0442 20.5008 20.3317 20.6691C20.3451 20.677 20.3585 20.6851 20.3717 20.6935L22.2579 20.4174C22.4841 20.3892 22.7604 20.3082 23.0131 20.1726C23.2665 20.0365 23.4823 19.853 23.608 19.6278C23.9078 19.0908 24.0583 18.837 24.0983 18.7742C24.1576 18.681 24.2812 18.6535 24.3744 18.7128C24.4676 18.7721 24.4951 18.8958 24.4358 18.9889C24.4028 19.0407 24.2576 19.2848 23.9573 19.8228C23.783 20.1351 23.4989 20.3657 23.2023 20.525C22.9058 20.6842 22.5829 20.7797 22.3096 20.8141L20.7409 21.0437C20.8556 21.2052 20.9455 21.4068 20.9945 21.6554C21.1695 22.543 21.2445 22.9208 21.26 22.9986C21.2817 23.1069 21.2115 23.2123 21.1031 23.2339C20.9948 23.2556 20.8895 23.1854 20.8678 23.077C20.8521 22.9986 20.7771 22.6202 20.6021 21.7328C20.5258 21.3461 20.3319 21.1327 20.1297 21.0143C19.9197 20.8914 19.6898 20.8652 19.5505 20.8777L19.5416 20.8784H17.9545C17.3098 20.8784 16.9479 20.5753 16.7738 20.2756C16.7333 20.3146 16.6919 20.3513 16.6496 20.3859C16.2507 20.7125 15.7973 20.8288 15.2941 20.8775C14.4647 20.9578 13.5582 20.6996 13.2496 20.5649C13.1483 20.5207 13.1021 20.4028 13.1463 20.3016C13.1904 20.2003 13.3083 20.1541 13.4096 20.1983C13.6738 20.3136 14.5111 20.5514 15.2556 20.4794C15.7212 20.4343 16.0842 20.3318 16.3962 20.0764C16.7117 19.8182 16.9985 19.3842 17.266 18.6274C17.3028 18.5233 17.4171 18.4687 17.5212 18.5055Z"></path>
  </g>
  <g filter="url(#filter12_if_20020_5011)">
    <path fill="url(#paint19_linear_20020_5011)" d="M17.5212 18.3909C17.6254 18.4278 17.6799 18.542 17.6431 18.6462C17.4675 19.1429 17.2763 19.5294 17.0603 19.8285C17.1231 20.0288 17.3507 20.3639 17.9545 20.3639H19.5233C19.733 20.3471 20.0442 20.3863 20.3317 20.5546C20.3451 20.5624 20.3585 20.5705 20.3717 20.5789L22.2579 20.3029C22.4841 20.2746 22.7604 20.1937 23.0131 20.058C23.2665 19.9219 23.4823 19.7385 23.608 19.5133C23.9078 18.9763 24.0583 18.7225 24.0983 18.6596C24.1576 18.5664 24.2812 18.539 24.3744 18.5983C24.4676 18.6576 24.4951 18.7812 24.4358 18.8744C24.4028 18.9261 24.2576 19.1703 23.9573 19.7082C23.783 20.0205 23.4989 20.2511 23.2023 20.4104C22.9058 20.5696 22.5829 20.6651 22.3096 20.6996L20.7409 20.9291C20.8556 21.0906 20.9455 21.2922 20.9945 21.5408C21.1695 22.4284 21.2445 22.8062 21.26 22.884C21.2817 22.9923 21.2115 23.0977 21.1031 23.1194C20.9948 23.141 20.8895 23.0708 20.8678 22.9625C20.8521 22.884 20.7771 22.5056 20.6021 21.6182C20.5258 21.2315 20.3319 21.0181 20.1297 20.8998C19.9197 20.7769 19.6898 20.7506 19.5505 20.7631L19.5416 20.7639H17.9545C17.3098 20.7639 16.9479 20.4607 16.7738 20.161C16.7333 20.2 16.6919 20.2368 16.6496 20.2714C16.2507 20.598 15.7973 20.7143 15.2941 20.763C14.4647 20.8432 13.5582 20.585 13.2496 20.4503C13.1483 20.4061 13.1021 20.2883 13.1463 20.187C13.1904 20.0858 13.3083 20.0395 13.4096 20.0837C13.6738 20.199 14.5111 20.4369 15.2556 20.3648C15.7212 20.3198 16.0842 20.2173 16.3962 19.9619C16.7117 19.7036 16.9985 19.2696 17.266 18.5128C17.3028 18.4087 17.4171 18.3541 17.5212 18.3909Z"></path>
  </g>
  <g filter="url(#filter13_f_20020_5011)">
    <path stroke="url(#paint20_linear_20020_5011)" stroke-linecap="round" stroke-width=".75" d="M23.5796 9.18881C23.4754 9.94923 22.8296 11.8388 21.0796 13.3138"></path>
  </g>
  <g filter="url(#filter14_f_20020_5011)">
    <path stroke="url(#paint21_linear_20020_5011)" stroke-linecap="round" d="M23.0483 14.4701C23.2567 14.6576 23.8483 15.0638 24.5483 15.1888C25.4233 15.3451 26.8608 16.2201 27.2046 18.2826"></path>
  </g>
  <g filter="url(#filter15_f_20020_5011)">
    <path fill="url(#paint22_linear_20020_5011)" d="M24.467 13.1722C24.9072 12.5767 25.3301 10.8959 25.4056 10.5183C26.2363 10.9391 28.0466 12.6997 28.6421 16.3763C27.8394 14.2791 25.5674 13.3988 24.467 13.1722Z"></path>
  </g>
  <g filter="url(#filter16_f_20020_5011)">
    <path fill="url(#paint23_radial_20020_5011)" d="M8.81398 15.2669C8.42648 14.9794 8.59002 14.6263 8.72023 14.4857L7.89205 13.4076C6.39205 14.3138 6.6733 15.9388 7.70455 16.5326C8.52955 17.0076 8.78792 17.918 8.81398 18.3138C9.16402 17.6013 9.75146 17.1107 10.0014 16.9544C9.84517 15.9388 9.29835 15.6263 8.81398 15.2669Z"></path>
  </g>
  <defs>
    <filter id="filter0_f_20020_5011" width="3.891" height="3.891" x="16.681" y="13.376" color-interpolation-filters="sRGB" filterUnits="userSpaceOnUse">
      <feFlood flood-opacity="0" result="BackgroundImageFix"></feFlood>
      <feBlend in="SourceGraphic" in2="BackgroundImageFix" result="shape"></feBlend>
      <feGaussianBlur result="effect1_foregroundBlur_20020_5011" stdDeviation=".5"></feGaussianBlur>
    </filter>
    <filter id="filter1_f_20020_5011" width="9.394" height="11.941" x="2.945" y="5.726" color-interpolation-filters="sRGB" filterUnits="userSpaceOnUse">
      <feFlood flood-opacity="0" result="BackgroundImageFix"></feFlood>
      <feBlend in="SourceGraphic" in2="BackgroundImageFix" result="shape"></feBlend>
      <feGaussianBlur result="effect1_foregroundBlur_20020_5011" stdDeviation=".4"></feGaussianBlur>
    </filter>
    <filter id="filter2_if_20020_5011" width="7.394" height="9.941" x="3.945" y="6.726" color-interpolation-filters="sRGB" filterUnits="userSpaceOnUse">
      <feFlood flood-opacity="0" result="BackgroundImageFix"></feFlood>
      <feBlend in="SourceGraphic" in2="BackgroundImageFix" result="shape"></feBlend>
      <feColorMatrix in="SourceAlpha" result="hardAlpha" values="0 0 0 0 0 0 0 0 0 0 0 0 0 0 0 0 0 0 127 0"></feColorMatrix>
      <feOffset dx="-.1" dy="-.1"></feOffset>
      <feGaussianBlur stdDeviation=".1"></feGaussianBlur>
      <feComposite in2="hardAlpha" k2="-1" k3="1" operator="arithmetic"></feComposite>
      <feColorMatrix values="0 0 0 0 0.705882 0 0 0 0 0.239216 0 0 0 0 0.486275 0 0 0 1 0"></feColorMatrix>
      <feBlend in2="shape" result="effect1_innerShadow_20020_5011"></feBlend>
      <feGaussianBlur result="effect2_foregroundBlur_20020_5011" stdDeviation=".1"></feGaussianBlur>
    </filter>
    <filter id="filter3_f_20020_5011" width="8.003" height="3.639" x="12.32" y="4.044" color-interpolation-filters="sRGB" filterUnits="userSpaceOnUse">
      <feFlood flood-opacity="0" result="BackgroundImageFix"></feFlood>
      <feBlend in="SourceGraphic" in2="BackgroundImageFix" result="shape"></feBlend>
      <feGaussianBlur result="effect1_foregroundBlur_20020_5011" stdDeviation=".4"></feGaussianBlur>
    </filter>
    <filter id="filter4_f_20020_5011" width="5.803" height="1.438" x="13.42" y="5.144" color-interpolation-filters="sRGB" filterUnits="userSpaceOnUse">
      <feFlood flood-opacity="0" result="BackgroundImageFix"></feFlood>
      <feBlend in="SourceGraphic" in2="BackgroundImageFix" result="shape"></feBlend>
      <feGaussianBlur result="effect1_foregroundBlur_20020_5011" stdDeviation=".05"></feGaussianBlur>
    </filter>
    <filter id="filter5_f_20020_5011" width="2.714" height="1.059" x="13.499" y="5.524" color-interpolation-filters="sRGB" filterUnits="userSpaceOnUse">
      <feFlood flood-opacity="0" result="BackgroundImageFix"></feFlood>
      <feBlend in="SourceGraphic" in2="BackgroundImageFix" result="shape"></feBlend>
      <feGaussianBlur result="effect1_foregroundBlur_20020_5011" stdDeviation=".05"></feGaussianBlur>
    </filter>
    <filter id="filter6_if_20020_5011" width="13.013" height="13.497" x="17.105" y="7.761" color-interpolation-filters="sRGB" filterUnits="userSpaceOnUse">
      <feFlood flood-opacity="0" result="BackgroundImageFix"></feFlood>
      <feBlend in="SourceGraphic" in2="BackgroundImageFix" result="shape"></feBlend>
      <feColorMatrix in="SourceAlpha" result="hardAlpha" values="0 0 0 0 0 0 0 0 0 0 0 0 0 0 0 0 0 0 127 0"></feColorMatrix>
      <feOffset dy="-.2"></feOffset>
      <feGaussianBlur stdDeviation=".1"></feGaussianBlur>
      <feComposite in2="hardAlpha" k2="-1" k3="1" operator="arithmetic"></feComposite>
      <feColorMatrix values="0 0 0 0 1 0 0 0 0 0.380392 0 0 0 0 0.615686 0 0 0 1 0"></feColorMatrix>
      <feBlend in2="shape" result="effect1_innerShadow_20020_5011"></feBlend>
      <feGaussianBlur result="effect2_foregroundBlur_20020_5011" stdDeviation=".5"></feGaussianBlur>
    </filter>
    <filter id="filter7_if_20020_5011" width="10.613" height="11.097" x="18.305" y="8.961" color-interpolation-filters="sRGB" filterUnits="userSpaceOnUse">
      <feFlood flood-opacity="0" result="BackgroundImageFix"></feFlood>
      <feBlend in="SourceGraphic" in2="BackgroundImageFix" result="shape"></feBlend>
      <feColorMatrix in="SourceAlpha" result="hardAlpha" values="0 0 0 0 0 0 0 0 0 0 0 0 0 0 0 0 0 0 127 0"></feColorMatrix>
      <feOffset dy="-.2"></feOffset>
      <feGaussianBlur stdDeviation=".1"></feGaussianBlur>
      <feComposite in2="hardAlpha" k2="-1" k3="1" operator="arithmetic"></feComposite>
      <feColorMatrix values="0 0 0 0 1 0 0 0 0 0.380392 0 0 0 0 0.615686 0 0 0 1 0"></feColorMatrix>
      <feBlend in2="shape" result="effect1_innerShadow_20020_5011"></feBlend>
      <feGaussianBlur result="effect2_foregroundBlur_20020_5011" stdDeviation=".1"></feGaussianBlur>
    </filter>
    <filter id="filter8_f_20020_5011" width="8.139" height="8.816" x="6.965" y="13.429" color-interpolation-filters="sRGB" filterUnits="userSpaceOnUse">
      <feFlood flood-opacity="0" result="BackgroundImageFix"></feFlood>
      <feBlend in="SourceGraphic" in2="BackgroundImageFix" result="shape"></feBlend>
      <feGaussianBlur result="effect1_foregroundBlur_20020_5011" stdDeviation=".4"></feGaussianBlur>
    </filter>
    <filter id="filter9_if_20020_5011" width="6.006" height="7.022" x="7.998" y="14.529" color-interpolation-filters="sRGB" filterUnits="userSpaceOnUse">
      <feFlood flood-opacity="0" result="BackgroundImageFix"></feFlood>
      <feBlend in="SourceGraphic" in2="BackgroundImageFix" result="shape"></feBlend>
      <feColorMatrix in="SourceAlpha" result="hardAlpha" values="0 0 0 0 0 0 0 0 0 0 0 0 0 0 0 0 0 0 127 0"></feColorMatrix>
      <feOffset dx="-.1" dy="-.1"></feOffset>
      <feGaussianBlur stdDeviation=".1"></feGaussianBlur>
      <feComposite in2="hardAlpha" k2="-1" k3="1" operator="arithmetic"></feComposite>
      <feColorMatrix values="0 0 0 0 0.835294 0 0 0 0 0.196078 0 0 0 0 0.521569 0 0 0 1 0"></feColorMatrix>
      <feBlend in2="shape" result="effect1_innerShadow_20020_5011"></feBlend>
      <feGaussianBlur result="effect2_foregroundBlur_20020_5011" stdDeviation=".05"></feGaussianBlur>
    </filter>
    <filter id="filter10_f_20020_5011" width="6.006" height="7.022" x="7.998" y="14.529" color-interpolation-filters="sRGB" filterUnits="userSpaceOnUse">
      <feFlood flood-opacity="0" result="BackgroundImageFix"></feFlood>
      <feBlend in="SourceGraphic" in2="BackgroundImageFix" result="shape"></feBlend>
      <feGaussianBlur result="effect1_foregroundBlur_20020_5011" stdDeviation=".05"></feGaussianBlur>
    </filter>
    <filter id="filter11_f_20020_5011" width="15.088" height="8.494" x="11.254" y="16.619" color-interpolation-filters="sRGB" filterUnits="userSpaceOnUse">
      <feFlood flood-opacity="0" result="BackgroundImageFix"></feFlood>
      <feBlend in="SourceGraphic" in2="BackgroundImageFix" result="shape"></feBlend>
      <feGaussianBlur result="effect1_foregroundBlur_20020_5011" stdDeviation=".625"></feGaussianBlur>
    </filter>
    <filter id="filter12_if_20020_5011" width="11.738" height="5.144" x="12.93" y="18.18" color-interpolation-filters="sRGB" filterUnits="userSpaceOnUse">
      <feFlood flood-opacity="0" result="BackgroundImageFix"></feFlood>
      <feBlend in="SourceGraphic" in2="BackgroundImageFix" result="shape"></feBlend>
      <feColorMatrix in="SourceAlpha" result="hardAlpha" values="0 0 0 0 0 0 0 0 0 0 0 0 0 0 0 0 0 0 127 0"></feColorMatrix>
      <feOffset dy="-.2"></feOffset>
      <feGaussianBlur stdDeviation=".1"></feGaussianBlur>
      <feComposite in2="hardAlpha" k2="-1" k3="1" operator="arithmetic"></feComposite>
      <feColorMatrix values="0 0 0 0 1 0 0 0 0 0.32549 0 0 0 0 0.72549 0 0 0 1 0"></feColorMatrix>
      <feBlend in2="shape" result="effect1_innerShadow_20020_5011"></feBlend>
      <feGaussianBlur result="effect2_foregroundBlur_20020_5011" stdDeviation=".1"></feGaussianBlur>
    </filter>
    <filter id="filter13_f_20020_5011" width="5.25" height="6.875" x="19.705" y="7.814" color-interpolation-filters="sRGB" filterUnits="userSpaceOnUse">
      <feFlood flood-opacity="0" result="BackgroundImageFix"></feFlood>
      <feBlend in="SourceGraphic" in2="BackgroundImageFix" result="shape"></feBlend>
      <feGaussianBlur result="effect1_foregroundBlur_20020_5011" stdDeviation=".5"></feGaussianBlur>
    </filter>
    <filter id="filter14_f_20020_5011" width="8.156" height="7.813" x="21.048" y="12.47" color-interpolation-filters="sRGB" filterUnits="userSpaceOnUse">
      <feFlood flood-opacity="0" result="BackgroundImageFix"></feFlood>
      <feBlend in="SourceGraphic" in2="BackgroundImageFix" result="shape"></feBlend>
      <feGaussianBlur result="effect1_foregroundBlur_20020_5011" stdDeviation=".75"></feGaussianBlur>
    </filter>
    <filter id="filter15_f_20020_5011" width="6.175" height="7.858" x="23.467" y="9.518" color-interpolation-filters="sRGB" filterUnits="userSpaceOnUse">
      <feFlood flood-opacity="0" result="BackgroundImageFix"></feFlood>
      <feBlend in="SourceGraphic" in2="BackgroundImageFix" result="shape"></feBlend>
      <feGaussianBlur result="effect1_foregroundBlur_20020_5011" stdDeviation=".5"></feGaussianBlur>
    </filter>
    <filter id="filter16_f_20020_5011" width="4.153" height="5.906" x="6.349" y="12.908" color-interpolation-filters="sRGB" filterUnits="userSpaceOnUse">
      <feFlood flood-opacity="0" result="BackgroundImageFix"></feFlood>
      <feBlend in="SourceGraphic" in2="BackgroundImageFix" result="shape"></feBlend>
      <feGaussianBlur result="effect1_foregroundBlur_20020_5011" stdDeviation=".25"></feGaussianBlur>
    </filter>
    <linearGradient id="paint0_linear_20020_5011" x1="24.205" x2="20.455" y1="27.72" y2="27.72" gradientUnits="userSpaceOnUse">
      <stop stop-color="#FF4AC6"></stop>
      <stop offset="1" stop-color="#FF3FC0"></stop>
    </linearGradient>
    <linearGradient id="paint1_linear_20020_5011" x1="23.236" x2="23.236" y1="25.345" y2="26.876" gradientUnits="userSpaceOnUse">
      <stop stop-color="#ED4D98"></stop>
      <stop offset="1" stop-color="#ED4D98" stop-opacity="0"></stop>
    </linearGradient>
    <linearGradient id="paint5_linear_20020_5011" x1="16.468" x2="16.468" y1="26.215" y2="25.552" gradientUnits="userSpaceOnUse">
      <stop stop-color="#FF99F8"></stop>
      <stop offset="1" stop-color="#FF99F8" stop-opacity="0"></stop>
    </linearGradient>
    <linearGradient id="paint7_linear_20020_5011" x1="17.978" x2="18.969" y1="15.595" y2="14.312" gradientUnits="userSpaceOnUse">
      <stop stop-color="#FF8DCF"></stop>
      <stop offset="1" stop-color="#FF8DCF" stop-opacity="0"></stop>
    </linearGradient>
    <linearGradient id="paint9_linear_20020_5011" x1="6.014" x2="12.059" y1="12.955" y2="6.926" gradientUnits="userSpaceOnUse">
      <stop stop-color="#CA4794"></stop>
      <stop offset="1" stop-color="#E85B90"></stop>
    </linearGradient>
    <linearGradient id="paint10_linear_20020_5011" x1="13.52" x2="19.123" y1="6.376" y2="6.376" gradientUnits="userSpaceOnUse">
      <stop stop-color="#FF97B4"></stop>
      <stop offset="1" stop-color="#FF97B4" stop-opacity="0"></stop>
    </linearGradient>
    <linearGradient id="paint11_linear_20020_5011" x1="13.959" x2="19.29" y1="6.483" y2="6.483" gradientUnits="userSpaceOnUse">
      <stop stop-color="#FF6791"></stop>
      <stop offset="1" stop-color="#FF788C"></stop>
    </linearGradient>
    <linearGradient id="paint15_linear_20020_5011" x1="9.65" x2="13.926" y1="18.94" y2="13.989" gradientUnits="userSpaceOnUse">
      <stop stop-color="#DD45A8"></stop>
      <stop offset="1" stop-color="#F24FA6"></stop>
    </linearGradient>
    <linearGradient id="paint17_linear_20020_5011" x1="13.13" x2="17.08" y1="20.866" y2="17.845" gradientUnits="userSpaceOnUse">
      <stop stop-color="#FF9CE7"></stop>
      <stop offset="1" stop-color="#FF7CDF" stop-opacity="0"></stop>
    </linearGradient>
    <linearGradient id="paint19_linear_20020_5011" x1="15.173" x2="25.705" y1="20.126" y2="20.001" gradientUnits="userSpaceOnUse">
      <stop stop-color="#FF5EBF"></stop>
      <stop offset="1" stop-color="#FF56A5"></stop>
    </linearGradient>
    <linearGradient id="paint20_linear_20020_5011" x1="24.048" x2="20.923" y1="9.189" y2="14.001" gradientUnits="userSpaceOnUse">
      <stop stop-color="#FFAEBC"></stop>
      <stop offset="1" stop-color="#FFAEBC" stop-opacity="0"></stop>
    </linearGradient>
    <linearGradient id="paint21_linear_20020_5011" x1="23.736" x2="32.275" y1="13.939" y2="17.31" gradientUnits="userSpaceOnUse">
      <stop stop-color="#FFBAD9"></stop>
      <stop offset="1" stop-color="#FFBAD9" stop-opacity="0"></stop>
    </linearGradient>
    <linearGradient id="paint22_linear_20020_5011" x1="23.593" x2="28.804" y1="13.447" y2="13.447" gradientUnits="userSpaceOnUse">
      <stop offset=".286" stop-color="#FFACC7"></stop>
      <stop offset="1" stop-color="#FFACC7" stop-opacity="0"></stop>
    </linearGradient>
    <radialGradient id="paint2_radial_20020_5011" cx="0" cy="0" r="1" gradientTransform="matrix(13.54183 -15.45455 27.11604 23.76004 12.132 21.456)" gradientUnits="userSpaceOnUse">
      <stop offset=".234" stop-color="#FF6FE1"></stop>
      <stop offset=".906" stop-color="#FF9E9D"></stop>
    </radialGradient>
    <radialGradient id="paint3_radial_20020_5011" cx="0" cy="0" r="1" gradientTransform="rotate(170.159 15.26 10.255)scale(12.4329 15.6948)" gradientUnits="userSpaceOnUse">
      <stop stop-color="#FF94D4"></stop>
      <stop offset="1" stop-color="#FF94D4" stop-opacity="0"></stop>
    </radialGradient>
    <radialGradient id="paint4_radial_20020_5011" cx="0" cy="0" r="1" gradientTransform="rotate(-148.057 15.86 7.676)scale(24.4528 25.0635)" gradientUnits="userSpaceOnUse">
      <stop offset=".791" stop-color="#BE6F90" stop-opacity="0"></stop>
      <stop offset="1" stop-color="#BE6F90"></stop>
    </radialGradient>
    <radialGradient id="paint6_radial_20020_5011" cx="0" cy="0" r="1" gradientTransform="rotate(-69.394 21.531 5.841)scale(8.3465 4.12598)" gradientUnits="userSpaceOnUse">
      <stop stop-color="#DB60B2"></stop>
      <stop offset="1" stop-color="#DB60B2" stop-opacity="0"></stop>
    </radialGradient>
    <radialGradient id="paint8_radial_20020_5011" cx="0" cy="0" r="1" gradientTransform="rotate(-137.203 7.029 5.025)scale(3.90853 6.19621)" gradientUnits="userSpaceOnUse">
      <stop offset=".826" stop-color="#FF7DAF" stop-opacity="0"></stop>
      <stop offset="1" stop-color="#FF7DAF"></stop>
    </radialGradient>
    <radialGradient id="paint12_radial_20020_5011" cx="0" cy="0" r="1" gradientTransform="rotate(106.928 8.562 13.637)scale(3.50452 4.03249)" gradientUnits="userSpaceOnUse">
      <stop stop-color="#FFABBE"></stop>
      <stop offset="1" stop-color="#FFABBE" stop-opacity="0"></stop>
    </radialGradient>
    <radialGradient id="paint13_radial_20020_5011" cx="0" cy="0" r="1" gradientTransform="matrix(.90377 .0583 -.0671 1.03993 18.738 15.364)" gradientUnits="userSpaceOnUse">
      <stop stop-color="#FF8CCE"></stop>
      <stop offset="1" stop-color="#FF8CCE" stop-opacity="0"></stop>
    </radialGradient>
    <radialGradient id="paint14_radial_20020_5011" cx="0" cy="0" r="1" gradientTransform="matrix(-2.82812 -2.76564 4.2871 -4.38397 12.298 19.439)" gradientUnits="userSpaceOnUse">
      <stop offset=".627" stop-color="#FF8CDC" stop-opacity="0"></stop>
      <stop offset="1" stop-color="#FF8CDC"></stop>
    </radialGradient>
    <radialGradient id="paint16_radial_20020_5011" cx="0" cy="0" r="1" gradientTransform="matrix(.90625 .49219 -.80077 1.47444 8.97 14.712)" gradientUnits="userSpaceOnUse">
      <stop stop-color="#FF83DD"></stop>
      <stop offset="1" stop-color="#FF83DD" stop-opacity="0"></stop>
    </radialGradient>
    <radialGradient id="paint18_radial_20020_5011" cx="0" cy="0" r="1" gradientTransform="matrix(1.3125 -1 1.86944 2.45365 19.767 21.564)" gradientUnits="userSpaceOnUse">
      <stop stop-color="#FF9CE7"></stop>
      <stop offset="1" stop-color="#FF7CDF" stop-opacity="0"></stop>
    </radialGradient>
    <radialGradient id="paint23_radial_20020_5011" cx="0" cy="0" r="1" gradientTransform="matrix(-2.24999 1.0469 -1.3889 -2.98504 9.814 15.658)" gradientUnits="userSpaceOnUse">
      <stop stop-color="#FF9BE1"></stop>
      <stop offset="1" stop-color="#FF9BE1" stop-opacity="0"></stop>
    </radialGradient>
  </defs>
</svg>
