<svg xmlns="http://www.w3.org/2000/svg" width="32" height="32" fill="none" viewBox="0 0 32 32" id="fluttering">
  <g filter="url(#filter0_i_28327_7988)">
    <path fill="url(#paint0_radial_28327_7988)" d="M4.45001 6.52C4.32001 6.52 4.19001 6.47 4.10001 6.37C3.90001 6.17 3.90001 5.86 4.10001 5.66C6.47001 3.3 9.61001 2 12.96 2C14.19 2 15.42 2.18 16.59 2.54C16.85 2.62 17 2.9 16.92 3.16C16.84 3.43 16.56 3.58 16.3 3.49C15.22 3.17 14.09 3 12.96 3C9.88001 3 6.98001 4.2 4.81001 6.38C4.71001 6.48 4.58001 6.52 4.45001 6.52Z"></path>
  </g>
  <g filter="url(#filter1_i_28327_7988)">
    <path fill="url(#paint1_linear_28327_7988)" d="M2.5 16.48C2.22 16.48 2 16.26 2 15.98C2 9.94002 6.92 5.02002 12.96 5.02002C13.24 5.02002 13.46 5.24002 13.46 5.52002C13.46 5.80002 13.24 6.02002 12.96 6.02002C7.47 6.02002 3 10.49 3 15.98C3 16.26 2.78 16.48 2.5 16.48Z"></path>
  </g>
  <path fill="url(#paint2_linear_28327_7988)" d="M5 16.01V18.88C5 25.03 9.99 30.02 16.14 30.02H23.78C24.47 30.02 25.03 29.46 25.03 28.77V28.14C25.03 21.99 20.04 17 13.89 17H6L5 16.01Z"></path>
  <path fill="url(#paint3_linear_28327_7988)" d="M5 16.01V18.88C5 25.03 9.99 30.02 16.14 30.02H23.78C24.47 30.02 25.03 29.46 25.03 28.77V28.14C25.03 21.99 20.04 17 13.89 17H6L5 16.01Z"></path>
  <g filter="url(#filter2_f_28327_7988)">
    <path fill="url(#paint4_linear_28327_7988)" d="M6.31531 17.3018V19.6425C6.31531 24.6584 10.6499 28.7283 15.9922 28.7283H22.6288C23.2282 28.7283 23.7147 28.2715 23.7147 27.7088V27.1949C23.7147 22.179 19.38 18.1092 14.0377 18.1092H7.18397L6.31531 17.3018Z"></path>
  </g>
  <g filter="url(#filter3_f_28327_7988)">
    <path fill="url(#paint5_linear_28327_7988)" d="M18.1214 26.4796L7.55847 20.5592C6.96234 20.2251 6.75245 19.4693 7.0909 18.8757C7.42042 18.2976 8.1496 18.086 8.73735 18.3979L19.4339 24.0733C20.0882 24.4204 20.3483 25.2246 20.0213 25.8892C19.6744 26.5942 18.8069 26.8639 18.1214 26.4796Z"></path>
  </g>
  <g filter="url(#filter4_i_28327_7988)">
    <path fill="url(#paint6_linear_28327_7988)" d="M22.81 16.93C22.53 16.93 22.31 16.71 22.31 16.43C22.31 16.15 22.53 15.93 22.81 15.93C24.09 15.93 25.32 15.54 26.37 14.81C28.01 13.64 29 11.75 29 9.72998C29 9.44998 29.22 9.22998 29.5 9.22998C29.78 9.22998 30 9.45998 30 9.72998C30 12.07 28.86 14.27 26.94 15.62C25.73 16.48 24.3 16.93 22.81 16.93Z"></path>
  </g>
  <g filter="url(#filter5_i_28327_7988)">
    <path fill="url(#paint7_linear_28327_7988)" d="M28 4.47998V6.42998C28 10.6 24.62 13.98 20.45 13.98H15.26C14.79 13.98 14.41 13.6 14.41 13.13V12.7C14.41 8.52998 17.79 4.99998 21.96 4.99998H27.31L28 4.47998Z"></path>
  </g>
  <g filter="url(#filter6_f_28327_7988)">
    <path fill="url(#paint8_linear_28327_7988)" d="M27.2678 5.57031L26.6648 6.77638C26.6648 10.2227 23.8714 13.2188 20.4251 13.2188H15.8445C15.4561 13.2188 15.1421 12.9047 15.1421 12.5163V12.1609C15.1421 8.71463 18.2267 5.79727 21.673 5.79727L26.6648 5.88045L27.2678 5.57031Z"></path>
  </g>
  <g filter="url(#filter7_f_28327_7988)">
    <path stroke="url(#paint9_linear_28327_7988)" stroke-linecap="round" stroke-width=".2" d="M18.4668 6.57751C17.2689 7.21293 14.8574 9.23376 14.7168 13.3431"></path>
  </g>
  <g filter="url(#filter8_f_28327_7988)">
    <path stroke="url(#paint10_linear_28327_7988)" stroke-linecap="round" stroke-width=".6" d="M22.6527 12.7292C24.5182 11.8328 27.2488 9.4936 27.1276 6.07751"></path>
  </g>
  <path fill="url(#paint11_linear_28327_7988)" d="M18.43 11.41C18.51 11.41 18.6 11.39 18.67 11.35L26.75 6.94002C27.52 6.51002 28 5.71002 28 4.83002V2.53002C28 2.25002 27.77 2.02002 27.49 2.02002C27.21 2.02002 26.98 2.25002 26.98 2.53002V4.82002C26.98 5.33002 26.7 5.79002 26.26 6.04002L18.18 10.45C17.93 10.58 17.84 10.89 17.98 11.14C18.07 11.31 18.25 11.41 18.43 11.41Z"></path>
  <path fill="url(#paint12_radial_28327_7988)" d="M18.43 11.41C18.51 11.41 18.6 11.39 18.67 11.35L26.75 6.94002C27.52 6.51002 28 5.71002 28 4.83002V2.53002C28 2.25002 27.77 2.02002 27.49 2.02002C27.21 2.02002 26.98 2.25002 26.98 2.53002V4.82002C26.98 5.33002 26.7 5.79002 26.26 6.04002L18.18 10.45C17.93 10.58 17.84 10.89 17.98 11.14C18.07 11.31 18.25 11.41 18.43 11.41Z"></path>
  <path fill="url(#paint13_radial_28327_7988)" d="M18.43 11.41C18.51 11.41 18.6 11.39 18.67 11.35L26.75 6.94002C27.52 6.51002 28 5.71002 28 4.83002V2.53002C28 2.25002 27.77 2.02002 27.49 2.02002C27.21 2.02002 26.98 2.25002 26.98 2.53002V4.82002C26.98 5.33002 26.7 5.79002 26.26 6.04002L18.18 10.45C17.93 10.58 17.84 10.89 17.98 11.14C18.07 11.31 18.25 11.41 18.43 11.41Z"></path>
  <g filter="url(#filter9_f_28327_7988)">
    <path stroke="url(#paint14_linear_28327_7988)" stroke-linecap="round" stroke-width=".25" d="M18.7266 10.9688L26.6483 6.58389C27.2847 6.23159 27.6797 5.56151 27.6797 4.83407V2.5"></path>
  </g>
  <g filter="url(#filter10_f_28327_7988)">
    <path stroke="url(#paint15_linear_28327_7988)" stroke-linecap="round" stroke-width=".2" d="M29.7197 9.73474C29.7592 10.9338 29.0674 14.0631 26.34 15.5455"></path>
  </g>
  <g filter="url(#filter11_f_28327_7988)">
    <path stroke="url(#paint16_linear_28327_7988)" stroke-linecap="round" stroke-width=".2" d="M22.6341 16.5535C23.5565 16.5798 25.7155 16.2412 27.2492 14.9921"></path>
  </g>
  <g filter="url(#filter12_f_28327_7988)">
    <path stroke="url(#paint17_linear_28327_7988)" stroke-linecap="round" stroke-width=".5" d="M16.7147 18.4113C19.205 19.0305 24.1935 21.9609 24.2252 28.7283"></path>
  </g>
  <g filter="url(#filter13_f_28327_7988)">
    <path stroke="url(#paint18_radial_28327_7988)" stroke-linecap="round" stroke-width=".5" d="M6.78094 20.9016C7.11034 22.8912 9.09729 27.1392 14.41 28.2144"></path>
  </g>
  <g filter="url(#filter14_ii_28327_7988)">
    <path fill="url(#paint19_linear_28327_7988)" fill-rule="evenodd" d="M6.1 12.1725C6.70751 12.1725 7.2 12.665 7.2 13.2725V16.8965C7.2 17.2191 7.37262 17.517 7.65247 17.6774L19.8891 24.6906C20.4162 24.9927 20.5986 25.6649 20.2965 26.192C19.9944 26.719 19.3222 26.9014 18.7951 26.5993L6.55851 19.5861C5.59457 19.0336 5 18.0076 5 16.8965V13.2725C5 12.665 5.49249 12.1725 6.1 12.1725Z" clip-rule="evenodd"></path>
  </g>
  <path fill="url(#paint20_linear_28327_7988)" fill-rule="evenodd" d="M6.1 12.1725C6.70751 12.1725 7.2 12.665 7.2 13.2725V16.8965C7.2 17.2191 7.37262 17.517 7.65247 17.6774L19.8891 24.6906C20.4162 24.9927 20.5986 25.6649 20.2965 26.192C19.9944 26.719 19.3222 26.9014 18.7951 26.5993L6.55851 19.5861C5.59457 19.0336 5 18.0076 5 16.8965V13.2725C5 12.665 5.49249 12.1725 6.1 12.1725Z" clip-rule="evenodd"></path>
  <path fill="url(#paint21_radial_28327_7988)" fill-rule="evenodd" d="M6.1 12.1725C6.70751 12.1725 7.2 12.665 7.2 13.2725V16.8965C7.2 17.2191 7.37262 17.517 7.65247 17.6774L19.8891 24.6906C20.4162 24.9927 20.5986 25.6649 20.2965 26.192C19.9944 26.719 19.3222 26.9014 18.7951 26.5993L6.55851 19.5861C5.59457 19.0336 5 18.0076 5 16.8965V13.2725C5 12.665 5.49249 12.1725 6.1 12.1725Z" clip-rule="evenodd"></path>
  <path fill="url(#paint22_radial_28327_7988)" fill-rule="evenodd" d="M6.1 12.1725C6.70751 12.1725 7.2 12.665 7.2 13.2725V16.8965C7.2 17.2191 7.37262 17.517 7.65247 17.6774L19.8891 24.6906C20.4162 24.9927 20.5986 25.6649 20.2965 26.192C19.9944 26.719 19.3222 26.9014 18.7951 26.5993L6.55851 19.5861C5.59457 19.0336 5 18.0076 5 16.8965V13.2725C5 12.665 5.49249 12.1725 6.1 12.1725Z" clip-rule="evenodd"></path>
  <g filter="url(#filter15_f_28327_7988)">
    <path stroke="url(#paint23_radial_28327_7988)" stroke-linecap="round" stroke-width=".5" d="M6.49652 13.2726V16.7879C6.49652 17.5203 6.89684 18.1941 7.54006 18.5444L19.8177 25.23"></path>
    <path stroke="url(#paint24_linear_28327_7988)" stroke-linecap="round" stroke-width=".5" d="M6.49652 13.2726V16.7879C6.49652 17.5203 6.89684 18.1941 7.54006 18.5444L19.8177 25.23"></path>
    <path stroke="url(#paint25_linear_28327_7988)" stroke-linecap="round" stroke-width=".5" d="M6.49652 13.2726V16.7879C6.49652 17.5203 6.89684 18.1941 7.54006 18.5444L19.8177 25.23"></path>
  </g>
  <g filter="url(#filter16_f_28327_7988)">
    <path stroke="url(#paint26_linear_28327_7988)" stroke-linecap="round" stroke-width=".25" d="M2.60115 15.9604C2.57497 14.2757 3.29559 10.0882 6.07301 7.92578"></path>
  </g>
  <g filter="url(#filter17_f_28327_7988)">
    <path stroke="url(#paint27_linear_28327_7988)" stroke-linecap="round" stroke-width=".25" d="M13.0758 5.38635C10.4373 5.38635 7.79883 6.3386 6.07263 7.92568"></path>
  </g>
  <g filter="url(#filter18_f_28327_7988)">
    <path stroke="url(#paint28_linear_28327_7988)" stroke-linecap="round" stroke-width=".25" d="M16.627 2.9661C15.7011 2.72142 13.3694 2.28365 11.4491 2.48997"></path>
  </g>
  <g filter="url(#filter19_f_28327_7988)">
    <path stroke="url(#paint29_linear_28327_7988)" stroke-linecap="round" stroke-width=".25" d="M4.36676 6.06094C4.90902 5.45918 6.4419 4.08503 8.23529 3.40259"></path>
  </g>
  <defs>
    <linearGradient id="paint1_linear_28327_7988" x1="2" x2="13.46" y1="14.688" y2="5.313" gradientUnits="userSpaceOnUse">
      <stop offset=".006" stop-color="#CCC3D9"></stop>
      <stop offset="1" stop-color="#CABDDD"></stop>
    </linearGradient>
    <linearGradient id="paint2_linear_28327_7988" x1="13.058" x2="16.3" y1="31.179" y2="20.032" gradientUnits="userSpaceOnUse">
      <stop stop-color="#459589"></stop>
      <stop offset="1" stop-color="#5AB57A"></stop>
    </linearGradient>
    <linearGradient id="paint3_linear_28327_7988" x1="15.628" x2="15.628" y1="30.665" y2="28.807" gradientUnits="userSpaceOnUse">
      <stop stop-color="#528289"></stop>
      <stop offset="1" stop-color="#528289" stop-opacity="0"></stop>
    </linearGradient>
    <linearGradient id="paint4_linear_28327_7988" x1="7.208" x2="19.951" y1="18.055" y2="27.823" gradientUnits="userSpaceOnUse">
      <stop stop-color="#4BBC85"></stop>
      <stop offset="1" stop-color="#46AF84"></stop>
    </linearGradient>
    <linearGradient id="paint5_linear_28327_7988" x1="11.951" x2="12.782" y1="22.838" y2="21.139" gradientUnits="userSpaceOnUse">
      <stop stop-color="#33A171"></stop>
      <stop offset="1" stop-color="#3FB774"></stop>
    </linearGradient>
    <linearGradient id="paint6_linear_28327_7988" x1="22.901" x2="30.332" y1="17.452" y2="10.969" gradientUnits="userSpaceOnUse">
      <stop offset=".006" stop-color="#C2B4D9"></stop>
      <stop offset="1" stop-color="#C8C4D5"></stop>
    </linearGradient>
    <linearGradient id="paint7_linear_28327_7988" x1="14.829" x2="29.026" y1="12.692" y2="5.662" gradientUnits="userSpaceOnUse">
      <stop stop-color="#4FC679"></stop>
      <stop offset="1" stop-color="#4DBF82"></stop>
    </linearGradient>
    <linearGradient id="paint8_linear_28327_7988" x1="15.78" x2="27.513" y1="12.154" y2="6.345" gradientUnits="userSpaceOnUse">
      <stop stop-color="#4FC886"></stop>
      <stop offset="1" stop-color="#4EBD8E"></stop>
    </linearGradient>
    <linearGradient id="paint9_linear_28327_7988" x1="15.977" x2="14.114" y1="9.777" y2="10.242" gradientUnits="userSpaceOnUse">
      <stop offset=".809" stop-color="#84D59E"></stop>
      <stop offset="1" stop-color="#84D49E" stop-opacity="0"></stop>
    </linearGradient>
    <linearGradient id="paint10_linear_28327_7988" x1="24.406" x2="28.396" y1="12.375" y2="11.516" gradientUnits="userSpaceOnUse">
      <stop stop-color="#63D393" stop-opacity="0"></stop>
      <stop offset="1" stop-color="#63D393"></stop>
    </linearGradient>
    <linearGradient id="paint11_linear_28327_7988" x1="28.888" x2="18.826" y1="5.008" y2="10.349" gradientUnits="userSpaceOnUse">
      <stop stop-color="#269D63"></stop>
      <stop offset="1" stop-color="#34C075"></stop>
    </linearGradient>
    <linearGradient id="paint14_linear_28327_7988" x1="16.414" x2="29.118" y1="12.561" y2="14.524" gradientUnits="userSpaceOnUse">
      <stop stop-color="#53CD8B"></stop>
      <stop offset="1" stop-color="#5BB180"></stop>
    </linearGradient>
    <linearGradient id="paint15_linear_28327_7988" x1="30.787" x2="27.111" y1="8.292" y2="16.178" gradientUnits="userSpaceOnUse">
      <stop stop-color="#DBD8E4"></stop>
      <stop offset="1" stop-color="#DBD8E4" stop-opacity="0"></stop>
    </linearGradient>
    <linearGradient id="paint16_linear_28327_7988" x1="21.745" x2="22.45" y1="16.81" y2="15.167" gradientUnits="userSpaceOnUse">
      <stop stop-color="#DBD8E4" stop-opacity=".5"></stop>
      <stop offset="1" stop-color="#DBD8E4" stop-opacity="0"></stop>
    </linearGradient>
    <linearGradient id="paint17_linear_28327_7988" x1="24.62" x2="15.845" y1="27.78" y2="18.411" gradientUnits="userSpaceOnUse">
      <stop stop-color="#6CC995"></stop>
      <stop offset="1" stop-color="#6CC995" stop-opacity="0"></stop>
    </linearGradient>
    <linearGradient id="paint19_linear_28327_7988" x1="5.864" x2="20.893" y1="15.447" y2="26.589" gradientUnits="userSpaceOnUse">
      <stop stop-color="#269C64"></stop>
      <stop offset="1" stop-color="#45C68E"></stop>
    </linearGradient>
    <linearGradient id="paint20_linear_28327_7988" x1="20.442" x2="18.276" y1="26.745" y2="25.566" gradientUnits="userSpaceOnUse">
      <stop stop-color="#32C37E"></stop>
      <stop offset="1" stop-color="#32C37E" stop-opacity="0"></stop>
    </linearGradient>
    <linearGradient id="paint24_linear_28327_7988" x1="19.541" x2="7.05" y1="24.894" y2="18.016" gradientUnits="userSpaceOnUse">
      <stop stop-color="#69D79E"></stop>
      <stop offset="1" stop-color="#69D79E" stop-opacity="0"></stop>
    </linearGradient>
    <linearGradient id="paint25_linear_28327_7988" x1="10.687" x2="7.129" y1="12.561" y2="17.384" gradientUnits="userSpaceOnUse">
      <stop stop-color="#69D79E"></stop>
      <stop offset="1" stop-color="#69D79E" stop-opacity="0"></stop>
    </linearGradient>
    <linearGradient id="paint26_linear_28327_7988" x1="2.383" x2="6.747" y1="15.841" y2="8.144" gradientUnits="userSpaceOnUse">
      <stop stop-color="#DCD2EA"></stop>
      <stop offset="1" stop-color="#DCD2EA" stop-opacity="0"></stop>
    </linearGradient>
    <linearGradient id="paint27_linear_28327_7988" x1="13.294" x2="7.62" y1="5.704" y2="7.688" gradientUnits="userSpaceOnUse">
      <stop stop-color="#DCD2EA"></stop>
      <stop offset="1" stop-color="#DCD2EA" stop-opacity="0"></stop>
    </linearGradient>
    <linearGradient id="paint28_linear_28327_7988" x1="16.788" x2="14.931" y1="2.503" y2="4.803" gradientUnits="userSpaceOnUse">
      <stop stop-color="#E2D9F0" stop-opacity=".6"></stop>
      <stop offset="1" stop-color="#DCD2EA" stop-opacity="0"></stop>
    </linearGradient>
    <linearGradient id="paint29_linear_28327_7988" x1="3.91" x2="8.723" y1="6.061" y2="5.334" gradientUnits="userSpaceOnUse">
      <stop stop-color="#E2D9F0" stop-opacity=".6"></stop>
      <stop offset="1" stop-color="#DCD2EA" stop-opacity="0"></stop>
    </linearGradient>
    <filter id="filter0_i_28327_7988" width="13.142" height="4.62" x="3.8" y="1.9" color-interpolation-filters="sRGB" filterUnits="userSpaceOnUse">
      <feFlood flood-opacity="0" result="BackgroundImageFix"></feFlood>
      <feBlend in="SourceGraphic" in2="BackgroundImageFix" result="shape"></feBlend>
      <feColorMatrix in="SourceAlpha" result="hardAlpha" values="0 0 0 0 0 0 0 0 0 0 0 0 0 0 0 0 0 0 127 0"></feColorMatrix>
      <feOffset dx="-.15" dy="-.1"></feOffset>
      <feGaussianBlur stdDeviation=".125"></feGaussianBlur>
      <feComposite in2="hardAlpha" k2="-1" k3="1" operator="arithmetic"></feComposite>
      <feColorMatrix values="0 0 0 0 0.776471 0 0 0 0 0.733333 0 0 0 0 0.847059 0 0 0 1 0"></feColorMatrix>
      <feBlend in2="shape" result="effect1_innerShadow_28327_7988"></feBlend>
    </filter>
    <filter id="filter1_i_28327_7988" width="11.46" height="11.61" x="2" y="4.87" color-interpolation-filters="sRGB" filterUnits="userSpaceOnUse">
      <feFlood flood-opacity="0" result="BackgroundImageFix"></feFlood>
      <feBlend in="SourceGraphic" in2="BackgroundImageFix" result="shape"></feBlend>
      <feColorMatrix in="SourceAlpha" result="hardAlpha" values="0 0 0 0 0 0 0 0 0 0 0 0 0 0 0 0 0 0 127 0"></feColorMatrix>
      <feOffset dy="-.15"></feOffset>
      <feGaussianBlur stdDeviation=".075"></feGaussianBlur>
      <feComposite in2="hardAlpha" k2="-1" k3="1" operator="arithmetic"></feComposite>
      <feColorMatrix values="0 0 0 0 0.720229 0 0 0 0 0.669826 0 0 0 0 0.795833 0 0 0 1 0"></feColorMatrix>
      <feBlend in2="shape" result="effect1_innerShadow_28327_7988"></feBlend>
    </filter>
    <filter id="filter2_f_28327_7988" width="19.399" height="13.427" x="5.315" y="16.302" color-interpolation-filters="sRGB" filterUnits="userSpaceOnUse">
      <feFlood flood-opacity="0" result="BackgroundImageFix"></feFlood>
      <feBlend in="SourceGraphic" in2="BackgroundImageFix" result="shape"></feBlend>
      <feGaussianBlur result="effect1_foregroundBlur_28327_7988" stdDeviation=".5"></feGaussianBlur>
    </filter>
    <filter id="filter3_f_28327_7988" width="15.233" height="10.401" x="5.929" y="17.254" color-interpolation-filters="sRGB" filterUnits="userSpaceOnUse">
      <feFlood flood-opacity="0" result="BackgroundImageFix"></feFlood>
      <feBlend in="SourceGraphic" in2="BackgroundImageFix" result="shape"></feBlend>
      <feGaussianBlur result="effect1_foregroundBlur_28327_7988" stdDeviation=".5"></feGaussianBlur>
    </filter>
    <filter id="filter4_i_28327_7988" width="7.69" height="7.85" x="22.31" y="9.23" color-interpolation-filters="sRGB" filterUnits="userSpaceOnUse">
      <feFlood flood-opacity="0" result="BackgroundImageFix"></feFlood>
      <feBlend in="SourceGraphic" in2="BackgroundImageFix" result="shape"></feBlend>
      <feColorMatrix in="SourceAlpha" result="hardAlpha" values="0 0 0 0 0 0 0 0 0 0 0 0 0 0 0 0 0 0 127 0"></feColorMatrix>
      <feOffset dy=".15"></feOffset>
      <feGaussianBlur stdDeviation=".125"></feGaussianBlur>
      <feComposite in2="hardAlpha" k2="-1" k3="1" operator="arithmetic"></feComposite>
      <feColorMatrix values="0 0 0 0 0.701961 0 0 0 0 0.690196 0 0 0 0 0.764706 0 0 0 1 0"></feColorMatrix>
      <feBlend in2="shape" result="effect1_innerShadow_28327_7988"></feBlend>
    </filter>
    <filter id="filter5_i_28327_7988" width="13.59" height="9.5" x="14.41" y="4.48" color-interpolation-filters="sRGB" filterUnits="userSpaceOnUse">
      <feFlood flood-opacity="0" result="BackgroundImageFix"></feFlood>
      <feBlend in="SourceGraphic" in2="BackgroundImageFix" result="shape"></feBlend>
      <feColorMatrix in="SourceAlpha" result="hardAlpha" values="0 0 0 0 0 0 0 0 0 0 0 0 0 0 0 0 0 0 127 0"></feColorMatrix>
      <feOffset></feOffset>
      <feGaussianBlur stdDeviation=".5"></feGaussianBlur>
      <feComposite in2="hardAlpha" k2="-1" k3="1" operator="arithmetic"></feComposite>
      <feColorMatrix values="0 0 0 0 0.309804 0 0 0 0 0.654902 0 0 0 0 0.537255 0 0 0 1 0"></feColorMatrix>
      <feBlend in2="shape" result="effect1_innerShadow_28327_7988"></feBlend>
    </filter>
    <filter id="filter6_f_28327_7988" width="13.126" height="8.648" x="14.642" y="5.07" color-interpolation-filters="sRGB" filterUnits="userSpaceOnUse">
      <feFlood flood-opacity="0" result="BackgroundImageFix"></feFlood>
      <feBlend in="SourceGraphic" in2="BackgroundImageFix" result="shape"></feBlend>
      <feGaussianBlur result="effect1_foregroundBlur_28327_7988" stdDeviation=".25"></feGaussianBlur>
    </filter>
    <filter id="filter7_f_28327_7988" width="4.75" height="7.766" x="14.217" y="6.078" color-interpolation-filters="sRGB" filterUnits="userSpaceOnUse">
      <feFlood flood-opacity="0" result="BackgroundImageFix"></feFlood>
      <feBlend in="SourceGraphic" in2="BackgroundImageFix" result="shape"></feBlend>
      <feGaussianBlur result="effect1_foregroundBlur_28327_7988" stdDeviation=".2"></feGaussianBlur>
    </filter>
    <filter id="filter8_f_28327_7988" width="6.279" height="8.452" x="21.753" y="5.177" color-interpolation-filters="sRGB" filterUnits="userSpaceOnUse">
      <feFlood flood-opacity="0" result="BackgroundImageFix"></feFlood>
      <feBlend in="SourceGraphic" in2="BackgroundImageFix" result="shape"></feBlend>
      <feGaussianBlur result="effect1_foregroundBlur_28327_7988" stdDeviation=".3"></feGaussianBlur>
    </filter>
    <filter id="filter9_f_28327_7988" width="9.703" height="9.219" x="18.352" y="2.125" color-interpolation-filters="sRGB" filterUnits="userSpaceOnUse">
      <feFlood flood-opacity="0" result="BackgroundImageFix"></feFlood>
      <feBlend in="SourceGraphic" in2="BackgroundImageFix" result="shape"></feBlend>
      <feGaussianBlur result="effect1_foregroundBlur_28327_7988" stdDeviation=".125"></feGaussianBlur>
    </filter>
    <filter id="filter10_f_28327_7988" width="3.981" height="6.411" x="26.04" y="9.435" color-interpolation-filters="sRGB" filterUnits="userSpaceOnUse">
      <feFlood flood-opacity="0" result="BackgroundImageFix"></feFlood>
      <feBlend in="SourceGraphic" in2="BackgroundImageFix" result="shape"></feBlend>
      <feGaussianBlur result="effect1_foregroundBlur_28327_7988" stdDeviation=".1"></feGaussianBlur>
    </filter>
    <filter id="filter11_f_28327_7988" width="5.215" height="2.163" x="22.334" y="14.692" color-interpolation-filters="sRGB" filterUnits="userSpaceOnUse">
      <feFlood flood-opacity="0" result="BackgroundImageFix"></feFlood>
      <feBlend in="SourceGraphic" in2="BackgroundImageFix" result="shape"></feBlend>
      <feGaussianBlur result="effect1_foregroundBlur_28327_7988" stdDeviation=".1"></feGaussianBlur>
    </filter>
    <filter id="filter12_f_28327_7988" width="9.211" height="12.017" x="15.865" y="17.561" color-interpolation-filters="sRGB" filterUnits="userSpaceOnUse">
      <feFlood flood-opacity="0" result="BackgroundImageFix"></feFlood>
      <feBlend in="SourceGraphic" in2="BackgroundImageFix" result="shape"></feBlend>
      <feGaussianBlur result="effect1_foregroundBlur_28327_7988" stdDeviation=".3"></feGaussianBlur>
    </filter>
    <filter id="filter13_f_28327_7988" width="10.129" height="9.813" x="5.531" y="19.652" color-interpolation-filters="sRGB" filterUnits="userSpaceOnUse">
      <feFlood flood-opacity="0" result="BackgroundImageFix"></feFlood>
      <feBlend in="SourceGraphic" in2="BackgroundImageFix" result="shape"></feBlend>
      <feGaussianBlur result="effect1_foregroundBlur_28327_7988" stdDeviation=".5"></feGaussianBlur>
    </filter>
    <filter id="filter14_ii_28327_7988" width="15.642" height="14.823" x="5" y="11.922" color-interpolation-filters="sRGB" filterUnits="userSpaceOnUse">
      <feFlood flood-opacity="0" result="BackgroundImageFix"></feFlood>
      <feBlend in="SourceGraphic" in2="BackgroundImageFix" result="shape"></feBlend>
      <feColorMatrix in="SourceAlpha" result="hardAlpha" values="0 0 0 0 0 0 0 0 0 0 0 0 0 0 0 0 0 0 127 0"></feColorMatrix>
      <feOffset dx=".2" dy="-.25"></feOffset>
      <feGaussianBlur stdDeviation=".25"></feGaussianBlur>
      <feComposite in2="hardAlpha" k2="-1" k3="1" operator="arithmetic"></feComposite>
      <feColorMatrix values="0 0 0 0 0.109804 0 0 0 0 0.529412 0 0 0 0 0.356863 0 0 0 1 0"></feColorMatrix>
      <feBlend in2="shape" result="effect1_innerShadow_28327_7988"></feBlend>
      <feColorMatrix in="SourceAlpha" result="hardAlpha" values="0 0 0 0 0 0 0 0 0 0 0 0 0 0 0 0 0 0 127 0"></feColorMatrix>
      <feOffset></feOffset>
      <feGaussianBlur stdDeviation=".5"></feGaussianBlur>
      <feComposite in2="hardAlpha" k2="-1" k3="1" operator="arithmetic"></feComposite>
      <feColorMatrix values="0 0 0 0 0.14902 0 0 0 0 0.670588 0 0 0 0 0.392157 0 0 0 1 0"></feColorMatrix>
      <feBlend in2="effect1_innerShadow_28327_7988" result="effect2_innerShadow_28327_7988"></feBlend>
    </filter>
    <filter id="filter15_f_28327_7988" width="14.821" height="13.457" x="5.747" y="12.523" color-interpolation-filters="sRGB" filterUnits="userSpaceOnUse">
      <feFlood flood-opacity="0" result="BackgroundImageFix"></feFlood>
      <feBlend in="SourceGraphic" in2="BackgroundImageFix" result="shape"></feBlend>
      <feGaussianBlur result="effect1_foregroundBlur_28327_7988" stdDeviation=".25"></feGaussianBlur>
    </filter>
    <filter id="filter16_f_28327_7988" width="4.223" height="8.785" x="2.225" y="7.551" color-interpolation-filters="sRGB" filterUnits="userSpaceOnUse">
      <feFlood flood-opacity="0" result="BackgroundImageFix"></feFlood>
      <feBlend in="SourceGraphic" in2="BackgroundImageFix" result="shape"></feBlend>
      <feGaussianBlur result="effect1_foregroundBlur_28327_7988" stdDeviation=".125"></feGaussianBlur>
    </filter>
    <filter id="filter17_f_28327_7988" width="7.753" height="3.289" x="5.698" y="5.011" color-interpolation-filters="sRGB" filterUnits="userSpaceOnUse">
      <feFlood flood-opacity="0" result="BackgroundImageFix"></feFlood>
      <feBlend in="SourceGraphic" in2="BackgroundImageFix" result="shape"></feBlend>
      <feGaussianBlur result="effect1_foregroundBlur_28327_7988" stdDeviation=".125"></feGaussianBlur>
    </filter>
    <filter id="filter18_f_28327_7988" width="5.928" height="1.28" x="11.074" y="2.061" color-interpolation-filters="sRGB" filterUnits="userSpaceOnUse">
      <feFlood flood-opacity="0" result="BackgroundImageFix"></feFlood>
      <feBlend in="SourceGraphic" in2="BackgroundImageFix" result="shape"></feBlend>
      <feGaussianBlur result="effect1_foregroundBlur_28327_7988" stdDeviation=".125"></feGaussianBlur>
    </filter>
    <filter id="filter19_f_28327_7988" width="4.619" height="3.408" x="3.992" y="3.028" color-interpolation-filters="sRGB" filterUnits="userSpaceOnUse">
      <feFlood flood-opacity="0" result="BackgroundImageFix"></feFlood>
      <feBlend in="SourceGraphic" in2="BackgroundImageFix" result="shape"></feBlend>
      <feGaussianBlur result="effect1_foregroundBlur_28327_7988" stdDeviation=".125"></feGaussianBlur>
    </filter>
    <radialGradient id="paint0_radial_28327_7988" cx="0" cy="0" r="1" gradientTransform="matrix(-.31742 -1.30934 8.71853 -2.11358 10.14 3.66)" gradientUnits="userSpaceOnUse">
      <stop offset=".006" stop-color="#CBBDDC"></stop>
      <stop offset="1" stop-color="#D2CCDB"></stop>
    </radialGradient>
    <radialGradient id="paint12_radial_28327_7988" cx="0" cy="0" r="1" gradientTransform="matrix(-.49998 .32812 -.33496 -.5104 28 2.39)" gradientUnits="userSpaceOnUse">
      <stop stop-color="#66B386"></stop>
      <stop offset="1" stop-color="#66B386" stop-opacity="0"></stop>
    </radialGradient>
    <radialGradient id="paint13_radial_28327_7988" cx="0" cy="0" r="1" gradientTransform="matrix(.588 .4694 -.58842 .73708 26.547 5.174)" gradientUnits="userSpaceOnUse">
      <stop stop-color="#60A576"></stop>
      <stop offset="1" stop-color="#60A576" stop-opacity="0"></stop>
    </radialGradient>
    <radialGradient id="paint18_radial_28327_7988" cx="0" cy="0" r="1" gradientTransform="matrix(3.35995 -4.07146 4.021 3.31831 9.429 25.566)" gradientUnits="userSpaceOnUse">
      <stop stop-color="#6CC995"></stop>
      <stop offset="1" stop-color="#6CC995" stop-opacity="0"></stop>
    </radialGradient>
    <radialGradient id="paint21_radial_28327_7988" cx="0" cy="0" r="1" gradientTransform="matrix(-.33484 .57317 -5.13139 -2.9977 12.721 20.17)" gradientUnits="userSpaceOnUse">
      <stop stop-color="#23A965"></stop>
      <stop offset="1" stop-color="#23A965" stop-opacity="0"></stop>
    </radialGradient>
    <radialGradient id="paint22_radial_28327_7988" cx="0" cy="0" r="1" gradientTransform="matrix(-.67187 -.03125 .03311 -.71197 19.938 25.313)" gradientUnits="userSpaceOnUse">
      <stop stop-color="#65D69C"></stop>
      <stop offset="1" stop-color="#65D69C" stop-opacity="0"></stop>
    </radialGradient>
    <radialGradient id="paint23_radial_28327_7988" cx="0" cy="0" r="1" gradientTransform="matrix(2.56937 -1.81832 1.44181 2.03734 7.01 17.818)" gradientUnits="userSpaceOnUse">
      <stop stop-color="#62B78C"></stop>
      <stop offset="1" stop-color="#62B78C" stop-opacity="0"></stop>
    </radialGradient>
  </defs>
</svg>
