<svg xmlns="http://www.w3.org/2000/svg" width="32" height="32" fill="none" viewBox="0 0 32 32" id="cloud">
  <path fill="url(#paint0_radial_18_15159)" d="M12.3666 12.3031C14.5945 12.3031 16.4006 10.4971 16.4006 8.26917C16.4006 6.04128 14.5945 4.23521 12.3666 4.23521C10.1387 4.23521 8.33264 6.04128 8.33264 8.26917C8.33264 10.4971 10.1387 12.3031 12.3666 12.3031Z"></path>
  <path fill="url(#paint1_radial_18_15159)" d="M12.3666 12.3031C14.5945 12.3031 16.4006 10.4971 16.4006 8.26917C16.4006 6.04128 14.5945 4.23521 12.3666 4.23521C10.1387 4.23521 8.33264 6.04128 8.33264 8.26917C8.33264 10.4971 10.1387 12.3031 12.3666 12.3031Z"></path>
  <g filter="url(#filter0_ii_18_15159)">
    <path fill="#3239FF" d="M8.78877 22.9942L6.39837 26.2642C5.80853 27.0714 4.68058 27.2473 3.87343 26.6574C3.06628 26.0676 2.89036 24.9397 3.4802 24.1325L5.87061 20.8625C6.46045 20.0554 7.58839 19.8795 8.39554 20.4693C9.20269 21.0488 9.37861 22.1871 8.78877 22.9942Z"></path>
    <path fill="url(#paint2_radial_18_15159)" d="M8.78877 22.9942L6.39837 26.2642C5.80853 27.0714 4.68058 27.2473 3.87343 26.6574C3.06628 26.0676 2.89036 24.9397 3.4802 24.1325L5.87061 20.8625C6.46045 20.0554 7.58839 19.8795 8.39554 20.4693C9.20269 21.0488 9.37861 22.1871 8.78877 22.9942Z"></path>
  </g>
  <g filter="url(#filter1_ii_18_15159)">
    <path fill="#3239FF" d="M15.3351 22.9942L12.9447 26.2642C12.3549 27.0714 11.2269 27.2473 10.4198 26.6574C9.61261 26.0676 9.43669 24.9397 10.0265 24.1325L12.4169 20.8625C13.0068 20.0554 14.1347 19.8795 14.9419 20.4693C15.749 21.0488 15.9249 22.1871 15.3351 22.9942Z"></path>
    <path fill="url(#paint3_radial_18_15159)" d="M15.3351 22.9942L12.9447 26.2642C12.3549 27.0714 11.2269 27.2473 10.4198 26.6574C9.61261 26.0676 9.43669 24.9397 10.0265 24.1325L12.4169 20.8625C13.0068 20.0554 14.1347 19.8795 14.9419 20.4693C15.749 21.0488 15.9249 22.1871 15.3351 22.9942Z"></path>
  </g>
  <g filter="url(#filter2_ii_18_15159)">
    <path fill="url(#paint4_linear_18_15159)" d="M21.8814 22.9942L19.491 26.2642C18.9012 27.0714 17.7732 27.2473 16.9661 26.6574C16.1589 26.0676 15.983 24.9397 16.5729 24.1325L18.9633 20.8625C19.5531 20.0554 20.681 19.8795 21.4882 20.4693C22.2953 21.0488 22.4713 22.1871 21.8814 22.9942Z"></path>
    <path fill="url(#paint5_radial_18_15159)" d="M21.8814 22.9942L19.491 26.2642C18.9012 27.0714 17.7732 27.2473 16.9661 26.6574C16.1589 26.0676 15.983 24.9397 16.5729 24.1325L18.9633 20.8625C19.5531 20.0554 20.681 19.8795 21.4882 20.4693C22.2953 21.0488 22.4713 22.1871 21.8814 22.9942Z"></path>
  </g>
  <g filter="url(#filter3_i_18_15159)">
    <path fill="#E0D3FF" d="M27.2023 4.55052C23.6576 1.09569 17.9861 1.15561 14.5312 4.7003C13.609 5.64078 12.9456 6.73155 12.5182 7.89627C12.4593 8.05674 12.2622 8.1195 12.1197 8.0252C11.8094 7.81995 11.4786 7.64064 11.1363 7.49611C10.3175 7.11668 9.4089 6.90699 8.45034 6.90699C4.88568 6.90699 2 9.79267 2 13.3573C2 14.8751 2.52921 16.273 3.40789 17.3813C4.59611 18.939 6.46332 19.9375 8.57016 19.9375C11.1064 19.9375 18.3954 19.9375 21.2412 19.9375C24.057 19.9375 26.5432 18.5496 28.061 16.4227C30.7769 12.8681 30.4774 7.75572 27.2023 4.55052Z"></path>
  </g>
  <g filter="url(#filter4_ii_18_15159)">
    <path fill="#E0D3FF" d="M27.2023 4.55052C23.6576 1.09569 17.9861 1.15561 14.5312 4.7003C13.609 5.64078 12.9456 6.73155 12.5182 7.89627C12.4593 8.05674 12.2622 8.1195 12.1197 8.0252C11.8094 7.81995 11.4786 7.64064 11.1363 7.49611C10.3175 7.11668 9.4089 6.90699 8.45034 6.90699C4.88568 6.90699 2 9.79267 2 13.3573C2 14.8751 2.52921 16.273 3.40789 17.3813C4.59611 18.939 6.46332 19.9375 8.57016 19.9375C11.1064 19.9375 18.3954 19.9375 21.2412 19.9375C24.057 19.9375 26.5432 18.5496 28.061 16.4227C30.7769 12.8681 30.4774 7.75572 27.2023 4.55052Z"></path>
    <path fill="url(#paint6_radial_18_15159)" d="M27.2023 4.55052C23.6576 1.09569 17.9861 1.15561 14.5312 4.7003C13.609 5.64078 12.9456 6.73155 12.5182 7.89627C12.4593 8.05674 12.2622 8.1195 12.1197 8.0252C11.8094 7.81995 11.4786 7.64064 11.1363 7.49611C10.3175 7.11668 9.4089 6.90699 8.45034 6.90699C4.88568 6.90699 2 9.79267 2 13.3573C2 14.8751 2.52921 16.273 3.40789 17.3813C4.59611 18.939 6.46332 19.9375 8.57016 19.9375C11.1064 19.9375 18.3954 19.9375 21.2412 19.9375C24.057 19.9375 26.5432 18.5496 28.061 16.4227C30.7769 12.8681 30.4774 7.75572 27.2023 4.55052Z"></path>
    <path fill="url(#paint7_radial_18_15159)" d="M27.2023 4.55052C23.6576 1.09569 17.9861 1.15561 14.5312 4.7003C13.609 5.64078 12.9456 6.73155 12.5182 7.89627C12.4593 8.05674 12.2622 8.1195 12.1197 8.0252C11.8094 7.81995 11.4786 7.64064 11.1363 7.49611C10.3175 7.11668 9.4089 6.90699 8.45034 6.90699C4.88568 6.90699 2 9.79267 2 13.3573C2 14.8751 2.52921 16.273 3.40789 17.3813C4.59611 18.939 6.46332 19.9375 8.57016 19.9375C11.1064 19.9375 18.3954 19.9375 21.2412 19.9375C24.057 19.9375 26.5432 18.5496 28.061 16.4227C30.7769 12.8681 30.4774 7.75572 27.2023 4.55052Z"></path>
    <path fill="url(#paint8_radial_18_15159)" d="M27.2023 4.55052C23.6576 1.09569 17.9861 1.15561 14.5312 4.7003C13.609 5.64078 12.9456 6.73155 12.5182 7.89627C12.4593 8.05674 12.2622 8.1195 12.1197 8.0252C11.8094 7.81995 11.4786 7.64064 11.1363 7.49611C10.3175 7.11668 9.4089 6.90699 8.45034 6.90699C4.88568 6.90699 2 9.79267 2 13.3573C2 14.8751 2.52921 16.273 3.40789 17.3813C4.59611 18.939 6.46332 19.9375 8.57016 19.9375C11.1064 19.9375 18.3954 19.9375 21.2412 19.9375C24.057 19.9375 26.5432 18.5496 28.061 16.4227C30.7769 12.8681 30.4774 7.75572 27.2023 4.55052Z"></path>
    <path fill="url(#paint9_radial_18_15159)" d="M27.2023 4.55052C23.6576 1.09569 17.9861 1.15561 14.5312 4.7003C13.609 5.64078 12.9456 6.73155 12.5182 7.89627C12.4593 8.05674 12.2622 8.1195 12.1197 8.0252C11.8094 7.81995 11.4786 7.64064 11.1363 7.49611C10.3175 7.11668 9.4089 6.90699 8.45034 6.90699C4.88568 6.90699 2 9.79267 2 13.3573C2 14.8751 2.52921 16.273 3.40789 17.3813C4.59611 18.939 6.46332 19.9375 8.57016 19.9375C11.1064 19.9375 18.3954 19.9375 21.2412 19.9375C24.057 19.9375 26.5432 18.5496 28.061 16.4227C30.7769 12.8681 30.4774 7.75572 27.2023 4.55052Z"></path>
  </g>
  <defs>
    <radialGradient id="paint0_radial_18_15159" cx="0" cy="0" r="1" gradientTransform="rotate(-110.468 8.676 -.406)scale(3.57025 3.46764)" gradientUnits="userSpaceOnUse">
      <stop offset=".307" stop-color="#CECDFF"></stop>
      <stop offset="1" stop-color="#B7B6FA"></stop>
    </radialGradient>
    <radialGradient id="paint1_radial_18_15159" cx="0" cy="0" r="1" gradientTransform="matrix(-1.23828 -.7496 2.49269 -4.1177 13.605 6.683)" gradientUnits="userSpaceOnUse">
      <stop offset=".401" stop-color="#B8B7FF"></stop>
      <stop offset="1" stop-color="#B8B7FF" stop-opacity="0"></stop>
    </radialGradient>
    <radialGradient id="paint2_radial_18_15159" cx="0" cy="0" r="1" gradientTransform="rotate(142.938 1.301 11.974)scale(3.03715 2.64919)" gradientUnits="userSpaceOnUse">
      <stop stop-color="#627AFE"></stop>
      <stop offset="1" stop-color="#627AFE" stop-opacity="0"></stop>
    </radialGradient>
    <radialGradient id="paint3_radial_18_15159" cx="0" cy="0" r="1" gradientTransform="rotate(142.938 4.574 13.07)scale(3.03715 2.64919)" gradientUnits="userSpaceOnUse">
      <stop stop-color="#627AFE"></stop>
      <stop offset="1" stop-color="#627AFE" stop-opacity="0"></stop>
    </radialGradient>
    <radialGradient id="paint5_radial_18_15159" cx="0" cy="0" r="1" gradientTransform="rotate(142.938 7.847 14.168)scale(3.03715 2.64919)" gradientUnits="userSpaceOnUse">
      <stop stop-color="#627AFE"></stop>
      <stop offset="1" stop-color="#627AFE" stop-opacity="0"></stop>
    </radialGradient>
    <radialGradient id="paint6_radial_18_15159" cx="0" cy="0" r="1" gradientTransform="matrix(-3.78308 -12.40873 6.9718 -2.1255 16.395 13.277)" gradientUnits="userSpaceOnUse">
      <stop stop-color="#D6CCFF"></stop>
      <stop offset="1" stop-color="#D6CCFF" stop-opacity="0"></stop>
    </radialGradient>
    <radialGradient id="paint7_radial_18_15159" cx="0" cy="0" r="1" gradientTransform="rotate(147.006 13.079 7.761)scale(12.0883 13.5028)" gradientUnits="userSpaceOnUse">
      <stop offset=".19" stop-color="#F2F0FF"></stop>
      <stop offset="1" stop-color="#F2F0FF" stop-opacity="0"></stop>
    </radialGradient>
    <radialGradient id="paint8_radial_18_15159" cx="0" cy="0" r="1" gradientTransform="rotate(147.319 3.003 6.529)scale(9.52873 11.6115)" gradientUnits="userSpaceOnUse">
      <stop stop-color="#F2F0FF"></stop>
      <stop offset=".696" stop-color="#F2F0FF" stop-opacity="0"></stop>
    </radialGradient>
    <radialGradient id="paint9_radial_18_15159" cx="0" cy="0" r="1" gradientTransform="matrix(2.49688 7.64197 -2.84897 .93085 11.25 6.392)" gradientUnits="userSpaceOnUse">
      <stop stop-color="#F2F0FF"></stop>
      <stop offset="1" stop-color="#F2F0FF" stop-opacity="0"></stop>
    </radialGradient>
    <filter id="filter0_ii_18_15159" width="6.606" height="7.086" x="3.131" y="20.02" color-interpolation-filters="sRGB" filterUnits="userSpaceOnUse">
      <feFlood flood-opacity="0" result="BackgroundImageFix"></feFlood>
      <feBlend in="SourceGraphic" in2="BackgroundImageFix" result="shape"></feBlend>
      <feColorMatrix in="SourceAlpha" result="hardAlpha" values="0 0 0 0 0 0 0 0 0 0 0 0 0 0 0 0 0 0 127 0"></feColorMatrix>
      <feOffset dx=".6" dy="-.1"></feOffset>
      <feGaussianBlur stdDeviation=".75"></feGaussianBlur>
      <feComposite in2="hardAlpha" k2="-1" k3="1" operator="arithmetic"></feComposite>
      <feColorMatrix values="0 0 0 0 0.196078 0 0 0 0 0.152941 0 0 0 0 0.972549 0 0 0 1 0"></feColorMatrix>
      <feBlend in2="shape" result="effect1_innerShadow_18_15159"></feBlend>
      <feColorMatrix in="SourceAlpha" result="hardAlpha" values="0 0 0 0 0 0 0 0 0 0 0 0 0 0 0 0 0 0 127 0"></feColorMatrix>
      <feOffset dx=".1" dy=".1"></feOffset>
      <feGaussianBlur stdDeviation=".25"></feGaussianBlur>
      <feComposite in2="hardAlpha" k2="-1" k3="1" operator="arithmetic"></feComposite>
      <feColorMatrix values="0 0 0 0 0.65098 0 0 0 0 0.529412 0 0 0 0 0.87451 0 0 0 1 0"></feColorMatrix>
      <feBlend in2="effect1_innerShadow_18_15159" result="effect2_innerShadow_18_15159"></feBlend>
    </filter>
    <filter id="filter1_ii_18_15159" width="6.606" height="7.086" x="9.678" y="20.02" color-interpolation-filters="sRGB" filterUnits="userSpaceOnUse">
      <feFlood flood-opacity="0" result="BackgroundImageFix"></feFlood>
      <feBlend in="SourceGraphic" in2="BackgroundImageFix" result="shape"></feBlend>
      <feColorMatrix in="SourceAlpha" result="hardAlpha" values="0 0 0 0 0 0 0 0 0 0 0 0 0 0 0 0 0 0 127 0"></feColorMatrix>
      <feOffset dx=".6" dy="-.1"></feOffset>
      <feGaussianBlur stdDeviation=".75"></feGaussianBlur>
      <feComposite in2="hardAlpha" k2="-1" k3="1" operator="arithmetic"></feComposite>
      <feColorMatrix values="0 0 0 0 0.196078 0 0 0 0 0.152941 0 0 0 0 0.972549 0 0 0 1 0"></feColorMatrix>
      <feBlend in2="shape" result="effect1_innerShadow_18_15159"></feBlend>
      <feColorMatrix in="SourceAlpha" result="hardAlpha" values="0 0 0 0 0 0 0 0 0 0 0 0 0 0 0 0 0 0 127 0"></feColorMatrix>
      <feOffset dx=".1" dy=".1"></feOffset>
      <feGaussianBlur stdDeviation=".25"></feGaussianBlur>
      <feComposite in2="hardAlpha" k2="-1" k3="1" operator="arithmetic"></feComposite>
      <feColorMatrix values="0 0 0 0 0.65098 0 0 0 0 0.529412 0 0 0 0 0.87451 0 0 0 1 0"></feColorMatrix>
      <feBlend in2="effect1_innerShadow_18_15159" result="effect2_innerShadow_18_15159"></feBlend>
    </filter>
    <filter id="filter2_ii_18_15159" width="6.606" height="7.086" x="16.224" y="20.02" color-interpolation-filters="sRGB" filterUnits="userSpaceOnUse">
      <feFlood flood-opacity="0" result="BackgroundImageFix"></feFlood>
      <feBlend in="SourceGraphic" in2="BackgroundImageFix" result="shape"></feBlend>
      <feColorMatrix in="SourceAlpha" result="hardAlpha" values="0 0 0 0 0 0 0 0 0 0 0 0 0 0 0 0 0 0 127 0"></feColorMatrix>
      <feOffset dx=".6" dy="-.1"></feOffset>
      <feGaussianBlur stdDeviation=".75"></feGaussianBlur>
      <feComposite in2="hardAlpha" k2="-1" k3="1" operator="arithmetic"></feComposite>
      <feColorMatrix values="0 0 0 0 0.196078 0 0 0 0 0.152941 0 0 0 0 0.972549 0 0 0 1 0"></feColorMatrix>
      <feBlend in2="shape" result="effect1_innerShadow_18_15159"></feBlend>
      <feColorMatrix in="SourceAlpha" result="hardAlpha" values="0 0 0 0 0 0 0 0 0 0 0 0 0 0 0 0 0 0 127 0"></feColorMatrix>
      <feOffset dx=".1" dy=".1"></feOffset>
      <feGaussianBlur stdDeviation=".25"></feGaussianBlur>
      <feComposite in2="hardAlpha" k2="-1" k3="1" operator="arithmetic"></feComposite>
      <feColorMatrix values="0 0 0 0 0.65098 0 0 0 0 0.529412 0 0 0 0 0.87451 0 0 0 1 0"></feColorMatrix>
      <feBlend in2="effect1_innerShadow_18_15159" result="effect2_innerShadow_18_15159"></feBlend>
    </filter>
    <filter id="filter3_i_18_15159" width="27.899" height="17.938" x="2" y="2" color-interpolation-filters="sRGB" filterUnits="userSpaceOnUse">
      <feFlood flood-opacity="0" result="BackgroundImageFix"></feFlood>
      <feBlend in="SourceGraphic" in2="BackgroundImageFix" result="shape"></feBlend>
      <feColorMatrix in="SourceAlpha" result="hardAlpha" values="0 0 0 0 0 0 0 0 0 0 0 0 0 0 0 0 0 0 127 0"></feColorMatrix>
      <feOffset></feOffset>
      <feGaussianBlur stdDeviation="2"></feGaussianBlur>
      <feComposite in2="hardAlpha" k2="-1" k3="1" operator="arithmetic"></feComposite>
      <feColorMatrix values="0 0 0 0 0.701961 0 0 0 0 0.698039 0 0 0 0 0.992157 0 0 0 1 0"></feColorMatrix>
      <feBlend in2="shape" result="effect1_innerShadow_18_15159"></feBlend>
    </filter>
    <filter id="filter4_ii_18_15159" width="27.899" height="17.938" x="2" y="2" color-interpolation-filters="sRGB" filterUnits="userSpaceOnUse">
      <feFlood flood-opacity="0" result="BackgroundImageFix"></feFlood>
      <feBlend in="SourceGraphic" in2="BackgroundImageFix" result="shape"></feBlend>
      <feColorMatrix in="SourceAlpha" result="hardAlpha" values="0 0 0 0 0 0 0 0 0 0 0 0 0 0 0 0 0 0 127 0"></feColorMatrix>
      <feOffset></feOffset>
      <feGaussianBlur stdDeviation="3.5"></feGaussianBlur>
      <feComposite in2="hardAlpha" k2="-1" k3="1" operator="arithmetic"></feComposite>
      <feColorMatrix values="0 0 0 0 0.701961 0 0 0 0 0.698039 0 0 0 0 0.992157 0 0 0 1 0"></feColorMatrix>
      <feBlend in2="shape" result="effect1_innerShadow_18_15159"></feBlend>
      <feColorMatrix in="SourceAlpha" result="hardAlpha" values="0 0 0 0 0 0 0 0 0 0 0 0 0 0 0 0 0 0 127 0"></feColorMatrix>
      <feOffset></feOffset>
      <feGaussianBlur stdDeviation="1.25"></feGaussianBlur>
      <feComposite in2="hardAlpha" k2="-1" k3="1" operator="arithmetic"></feComposite>
      <feColorMatrix values="0 0 0 0 0.701961 0 0 0 0 0.698039 0 0 0 0 0.992157 0 0 0 1 0"></feColorMatrix>
      <feBlend in2="effect1_innerShadow_18_15159" result="effect2_innerShadow_18_15159"></feBlend>
    </filter>
    <linearGradient id="paint4_linear_18_15159" x1="22.23" x2="17.066" y1="20.873" y2="27.748" gradientUnits="userSpaceOnUse">
      <stop stop-color="#3364FE"></stop>
      <stop offset="1" stop-color="#3749FF"></stop>
    </linearGradient>
  </defs>
</svg>
