<svg xmlns="http://www.w3.org/2000/svg" width="32" height="32" fill="none" viewBox="0 0 32 32" id="evergreen">
  <path fill="#795556" d="M19.1806 29.9607H12.8689C12.3331 29.9607 11.9259 29.3523 12.0438 28.718L12.5581 25.9607H19.4914L20.0057 28.718C20.1129 29.3523 19.7164 29.9607 19.1806 29.9607Z"></path>
  <path fill="url(#paint0_radial_28327_7648)" d="M19.1806 29.9607H12.8689C12.3331 29.9607 11.9259 29.3523 12.0438 28.718L12.5581 25.9607H19.4914L20.0057 28.718C20.1129 29.3523 19.7164 29.9607 19.1806 29.9607Z"></path>
  <path fill="url(#paint1_radial_28327_7648)" d="M19.1806 29.9607H12.8689C12.3331 29.9607 11.9259 29.3523 12.0438 28.718L12.5581 25.9607H19.4914L20.0057 28.718C20.1129 29.3523 19.7164 29.9607 19.1806 29.9607Z"></path>
  <path fill="url(#paint2_linear_28327_7648)" d="M19.1806 29.9607H12.8689C12.3331 29.9607 11.9259 29.3523 12.0438 28.718L12.5581 25.9607H19.4914L20.0057 28.718C20.1129 29.3523 19.7164 29.9607 19.1806 29.9607Z"></path>
  <path fill="url(#paint3_linear_28327_7648)" d="M19.1806 29.9607H12.8689C12.3331 29.9607 11.9259 29.3523 12.0438 28.718L12.5581 25.9607H19.4914L20.0057 28.718C20.1129 29.3523 19.7164 29.9607 19.1806 29.9607Z"></path>
  <path fill="url(#paint4_linear_28327_7648)" d="M19.1806 29.9607H12.8689C12.3331 29.9607 11.9259 29.3523 12.0438 28.718L12.5581 25.9607H19.4914L20.0057 28.718C20.1129 29.3523 19.7164 29.9607 19.1806 29.9607Z"></path>
  <path fill="url(#paint5_linear_28327_7648)" d="M19.1806 29.9607H12.8689C12.3331 29.9607 11.9259 29.3523 12.0438 28.718L12.5581 25.9607H19.4914L20.0057 28.718C20.1129 29.3523 19.7164 29.9607 19.1806 29.9607Z"></path>
  <g filter="url(#filter0_i_28327_7648)">
    <path fill="url(#paint6_radial_28327_7648)" d="M12.3777 19.2576H19.6689C21.7577 19.2576 22.6049 19.5605 23.703 20.7263C24.3827 21.5362 25.0467 22.4065 24.9686 24.0076C24.8749 25.9294 23.7656 26.8982 21.4687 26.8982H10.5779C8.28106 26.8982 7.17172 25.9294 7.07799 24.0076C6.99991 22.4065 7.66387 21.5362 8.3436 20.7263C9.44169 19.5605 10.2889 19.2576 12.3777 19.2576Z"></path>
    <path fill="url(#paint7_radial_28327_7648)" d="M12.3777 19.2576H19.6689C21.7577 19.2576 22.6049 19.5605 23.703 20.7263C24.3827 21.5362 25.0467 22.4065 24.9686 24.0076C24.8749 25.9294 23.7656 26.8982 21.4687 26.8982H10.5779C8.28106 26.8982 7.17172 25.9294 7.07799 24.0076C6.99991 22.4065 7.66387 21.5362 8.3436 20.7263C9.44169 19.5605 10.2889 19.2576 12.3777 19.2576Z"></path>
    <path fill="url(#paint8_radial_28327_7648)" d="M12.3777 19.2576H19.6689C21.7577 19.2576 22.6049 19.5605 23.703 20.7263C24.3827 21.5362 25.0467 22.4065 24.9686 24.0076C24.8749 25.9294 23.7656 26.8982 21.4687 26.8982H10.5779C8.28106 26.8982 7.17172 25.9294 7.07799 24.0076C6.99991 22.4065 7.66387 21.5362 8.3436 20.7263C9.44169 19.5605 10.2889 19.2576 12.3777 19.2576Z"></path>
    <path fill="url(#paint9_linear_28327_7648)" d="M12.3777 19.2576H19.6689C21.7577 19.2576 22.6049 19.5605 23.703 20.7263C24.3827 21.5362 25.0467 22.4065 24.9686 24.0076C24.8749 25.9294 23.7656 26.8982 21.4687 26.8982H10.5779C8.28106 26.8982 7.17172 25.9294 7.07799 24.0076C6.99991 22.4065 7.66387 21.5362 8.3436 20.7263C9.44169 19.5605 10.2889 19.2576 12.3777 19.2576Z"></path>
  </g>
  <path fill="url(#paint10_radial_28327_7648)" d="M12.3777 19.2576H19.6689C21.7577 19.2576 22.6049 19.5605 23.703 20.7263C24.3827 21.5362 25.0467 22.4065 24.9686 24.0076C24.8749 25.9294 23.7656 26.8982 21.4687 26.8982H10.5779C8.28106 26.8982 7.17172 25.9294 7.07799 24.0076C6.99991 22.4065 7.66387 21.5362 8.3436 20.7263C9.44169 19.5605 10.2889 19.2576 12.3777 19.2576Z"></path>
  <path fill="url(#paint11_radial_28327_7648)" d="M13.6498 13.8044C12.6536 13.8044 11.8007 14.1521 11.0859 14.9841C11.0581 15.0205 11.03 15.0569 11.0018 15.0935C10.581 15.6393 10.1256 16.2301 9.96085 17.2774C9.89051 18.6091 10.5438 19.2576 11.6484 19.2576H20.3672C21.4717 19.2576 22.1251 18.6091 22.0547 17.2774C21.89 16.2301 21.4346 15.6393 21.0138 15.0935C20.9855 15.0569 20.9575 15.0205 20.9297 14.9841C20.2148 14.1521 19.362 13.8044 18.3658 13.8044H13.6498Z"></path>
  <path fill="url(#paint12_linear_28327_7648)" d="M13.6498 13.8044C12.6536 13.8044 11.8007 14.1521 11.0859 14.9841C11.0581 15.0205 11.03 15.0569 11.0018 15.0935C10.581 15.6393 10.1256 16.2301 9.96085 17.2774C9.89051 18.6091 10.5438 19.2576 11.6484 19.2576H20.3672C21.4717 19.2576 22.1251 18.6091 22.0547 17.2774C21.89 16.2301 21.4346 15.6393 21.0138 15.0935C20.9855 15.0569 20.9575 15.0205 20.9297 14.9841C20.2148 14.1521 19.362 13.8044 18.3658 13.8044H13.6498Z"></path>
  <path fill="url(#paint13_radial_28327_7648)" d="M13.6498 13.8044C12.6536 13.8044 11.8007 14.1521 11.0859 14.9841C11.0581 15.0205 11.03 15.0569 11.0018 15.0935C10.581 15.6393 10.1256 16.2301 9.96085 17.2774C9.89051 18.6091 10.5438 19.2576 11.6484 19.2576H20.3672C21.4717 19.2576 22.1251 18.6091 22.0547 17.2774C21.89 16.2301 21.4346 15.6393 21.0138 15.0935C20.9855 15.0569 20.9575 15.0205 20.9297 14.9841C20.2148 14.1521 19.362 13.8044 18.3658 13.8044H13.6498Z"></path>
  <path fill="url(#paint14_radial_28327_7648)" d="M13.6498 13.8044C12.6536 13.8044 11.8007 14.1521 11.0859 14.9841C11.0581 15.0205 11.03 15.0569 11.0018 15.0935C10.581 15.6393 10.1256 16.2301 9.96085 17.2774C9.89051 18.6091 10.5438 19.2576 11.6484 19.2576H20.3672C21.4717 19.2576 22.1251 18.6091 22.0547 17.2774C21.89 16.2301 21.4346 15.6393 21.0138 15.0935C20.9855 15.0569 20.9575 15.0205 20.9297 14.9841C20.2148 14.1521 19.362 13.8044 18.3658 13.8044H13.6498Z"></path>
  <path fill="url(#paint15_radial_28327_7648)" d="M13.6498 13.8044C12.6536 13.8044 11.8007 14.1521 11.0859 14.9841C11.0581 15.0205 11.03 15.0569 11.0018 15.0935C10.581 15.6393 10.1256 16.2301 9.96085 17.2774C9.89051 18.6091 10.5438 19.2576 11.6484 19.2576H20.3672C21.4717 19.2576 22.1251 18.6091 22.0547 17.2774C21.89 16.2301 21.4346 15.6393 21.0138 15.0935C20.9855 15.0569 20.9575 15.0205 20.9297 14.9841C20.2148 14.1521 19.362 13.8044 18.3658 13.8044H13.6498Z"></path>
  <path fill="url(#paint16_radial_28327_7648)" d="M13.6498 13.8044C12.6536 13.8044 11.8007 14.1521 11.0859 14.9841C11.0581 15.0205 11.03 15.0569 11.0018 15.0935C10.581 15.6393 10.1256 16.2301 9.96085 17.2774C9.89051 18.6091 10.5438 19.2576 11.6484 19.2576H20.3672C21.4717 19.2576 22.1251 18.6091 22.0547 17.2774C21.89 16.2301 21.4346 15.6393 21.0138 15.0935C20.9855 15.0569 20.9575 15.0205 20.9297 14.9841C20.2148 14.1521 19.362 13.8044 18.3658 13.8044H13.6498Z"></path>
  <path fill="url(#paint17_radial_28327_7648)" d="M13.6498 13.8044C12.6536 13.8044 11.8007 14.1521 11.0859 14.9841C11.0581 15.0205 11.03 15.0569 11.0018 15.0935C10.581 15.6393 10.1256 16.2301 9.96085 17.2774C9.89051 18.6091 10.5438 19.2576 11.6484 19.2576H20.3672C21.4717 19.2576 22.1251 18.6091 22.0547 17.2774C21.89 16.2301 21.4346 15.6393 21.0138 15.0935C20.9855 15.0569 20.9575 15.0205 20.9297 14.9841C20.2148 14.1521 19.362 13.8044 18.3658 13.8044H13.6498Z"></path>
  <path fill="url(#paint18_linear_28327_7648)" d="M14.7084 7.16854C15.278 6.131 16.7686 6.13099 17.3382 7.16853L19.9242 11.879C20.3998 12.7454 19.7729 13.8046 18.7846 13.8046H13.2621C12.2737 13.8046 11.6469 12.7454 12.1225 11.879L14.7084 7.16854Z"></path>
  <path fill="url(#paint19_radial_28327_7648)" d="M14.7084 7.16854C15.278 6.131 16.7686 6.13099 17.3382 7.16853L19.9242 11.879C20.3998 12.7454 19.7729 13.8046 18.7846 13.8046H13.2621C12.2737 13.8046 11.6469 12.7454 12.1225 11.879L14.7084 7.16854Z"></path>
  <path fill="url(#paint20_radial_28327_7648)" d="M14.7084 7.16854C15.278 6.131 16.7686 6.13099 17.3382 7.16853L19.9242 11.879C20.3998 12.7454 19.7729 13.8046 18.7846 13.8046H13.2621C12.2737 13.8046 11.6469 12.7454 12.1225 11.879L14.7084 7.16854Z"></path>
  <path fill="url(#paint21_linear_28327_7648)" d="M14.7084 7.16854C15.278 6.131 16.7686 6.13099 17.3382 7.16853L19.9242 11.879C20.3998 12.7454 19.7729 13.8046 18.7846 13.8046H13.2621C12.2737 13.8046 11.6469 12.7454 12.1225 11.879L14.7084 7.16854Z"></path>
  <path fill="url(#paint22_radial_28327_7648)" d="M14.7084 7.16854C15.278 6.131 16.7686 6.13099 17.3382 7.16853L19.9242 11.879C20.3998 12.7454 19.7729 13.8046 18.7846 13.8046H13.2621C12.2737 13.8046 11.6469 12.7454 12.1225 11.879L14.7084 7.16854Z"></path>
  <path fill="url(#paint23_radial_28327_7648)" d="M14.7084 7.16854C15.278 6.131 16.7686 6.13099 17.3382 7.16853L19.9242 11.879C20.3998 12.7454 19.7729 13.8046 18.7846 13.8046H13.2621C12.2737 13.8046 11.6469 12.7454 12.1225 11.879L14.7084 7.16854Z"></path>
  <path fill="url(#paint24_linear_28327_7648)" d="M14.7084 7.16854C15.278 6.131 16.7686 6.13099 17.3382 7.16853L19.9242 11.879C20.3998 12.7454 19.7729 13.8046 18.7846 13.8046H13.2621C12.2737 13.8046 11.6469 12.7454 12.1225 11.879L14.7084 7.16854Z"></path>
  <g filter="url(#filter1_f_28327_7648)">
    <ellipse cx="18.424" cy="23.078" fill="url(#paint25_radial_28327_7648)" rx="5.597" ry="2.594"></ellipse>
    <ellipse cx="18.424" cy="23.078" fill="url(#paint26_radial_28327_7648)" rx="5.597" ry="2.594"></ellipse>
  </g>
  <g filter="url(#filter2_f_28327_7648)">
    <ellipse cx="16.772" cy="16.531" fill="url(#paint27_radial_28327_7648)" rx="4.436" ry="1.586"></ellipse>
    <ellipse cx="16.772" cy="16.531" fill="url(#paint28_radial_28327_7648)" rx="4.436" ry="1.586"></ellipse>
  </g>
  <g filter="url(#filter3_f_28327_7648)">
    <path fill="url(#paint29_linear_28327_7648)" d="M15.1093 12.2828C15.8005 11.9703 17.6228 11.5484 19.3827 12.3609C18.6254 12.6057 16.7104 12.9328 15.1093 12.2828Z"></path>
  </g>
  <g filter="url(#filter4_f_28327_7648)">
    <path fill="url(#paint30_linear_28327_7648)" d="M16.5996 6.87134V12.5446H19.7522L16.5996 6.87134Z"></path>
  </g>
  <defs>
    <radialGradient id="paint0_radial_28327_7648" cx="0" cy="0" r="1" gradientTransform="rotate(70.328 -9.8 25.224)scale(3.03988 1.95488)" gradientUnits="userSpaceOnUse">
      <stop offset=".34" stop-color="#5F2F2E"></stop>
      <stop offset="1" stop-color="#5F2F2E" stop-opacity="0"></stop>
    </radialGradient>
    <radialGradient id="paint1_radial_28327_7648" cx="0" cy="0" r="1" gradientTransform="rotate(102.416 -2.632 18.885)scale(5.35131 2.99668)" gradientUnits="userSpaceOnUse">
      <stop offset=".481" stop-color="#5F2F2E"></stop>
      <stop offset=".967" stop-color="#5F2F2E" stop-opacity="0"></stop>
    </radialGradient>
    <radialGradient id="paint6_radial_28327_7648" cx="0" cy="0" r="1" gradientTransform="matrix(-16.4585 0 0 -9.1748 24.294 23.078)" gradientUnits="userSpaceOnUse">
      <stop stop-color="#80C156"></stop>
      <stop offset="1" stop-color="#52915C"></stop>
    </radialGradient>
    <radialGradient id="paint7_radial_28327_7648" cx="0" cy="0" r="1" gradientTransform="matrix(0 5.01113 -22.6983 0 16.023 18.067)" gradientUnits="userSpaceOnUse">
      <stop stop-color="#57A22C"></stop>
      <stop offset="1" stop-color="#57A22C" stop-opacity="0"></stop>
    </radialGradient>
    <radialGradient id="paint8_radial_28327_7648" cx="0" cy="0" r="1" gradientTransform="matrix(10.0406 0 0 1.58933 10.317 26.898)" gradientUnits="userSpaceOnUse">
      <stop stop-color="#7F779B"></stop>
      <stop offset="1" stop-color="#7F779B" stop-opacity="0"></stop>
    </radialGradient>
    <radialGradient id="paint10_radial_28327_7648" cx="0" cy="0" r="1" gradientTransform="rotate(173.698 7.753 9.904)scale(9.53308 2.17183)" gradientUnits="userSpaceOnUse">
      <stop stop-color="#105B0D"></stop>
      <stop offset="1" stop-color="#105B0D" stop-opacity="0"></stop>
    </radialGradient>
    <radialGradient id="paint11_radial_28327_7648" cx="0" cy="0" r="1" gradientTransform="matrix(-11.1275 0 0 -6.54807 21.6 16.531)" gradientUnits="userSpaceOnUse">
      <stop stop-color="#80C156"></stop>
      <stop offset="1" stop-color="#52915C"></stop>
    </radialGradient>
    <radialGradient id="paint13_radial_28327_7648" cx="0" cy="0" r="1" gradientTransform="matrix(0 3.57645 -15.3461 0 16.008 12.955)" gradientUnits="userSpaceOnUse">
      <stop stop-color="#57A22C"></stop>
      <stop offset="1" stop-color="#57A22C" stop-opacity="0"></stop>
    </radialGradient>
    <radialGradient id="paint14_radial_28327_7648" cx="0" cy="0" r="1" gradientTransform="matrix(0 -1.80124 9.00368 0 16.008 19.646)" gradientUnits="userSpaceOnUse">
      <stop stop-color="#479820"></stop>
      <stop offset="1" stop-color="#479820" stop-opacity="0"></stop>
    </radialGradient>
    <radialGradient id="paint15_radial_28327_7648" cx="0" cy="0" r="1" gradientTransform="matrix(0 -.84375 7.43741 0 16.008 19.398)" gradientUnits="userSpaceOnUse">
      <stop stop-color="#15600B"></stop>
      <stop offset="1" stop-color="#15600B" stop-opacity="0"></stop>
    </radialGradient>
    <radialGradient id="paint16_radial_28327_7648" cx="0" cy="0" r="1" gradientTransform="rotate(-164.816 12.329 8.276)scale(12.5421 6.6444)" gradientUnits="userSpaceOnUse">
      <stop offset=".871" stop-color="#75947D" stop-opacity="0"></stop>
      <stop offset="1" stop-color="#75947D"></stop>
    </radialGradient>
    <radialGradient id="paint17_radial_28327_7648" cx="0" cy="0" r="1" gradientTransform="matrix(0 1.07813 -7.3989 0 15.07 13.273)" gradientUnits="userSpaceOnUse">
      <stop stop-color="#15600B"></stop>
      <stop offset="1" stop-color="#15600B" stop-opacity="0"></stop>
    </radialGradient>
    <radialGradient id="paint19_radial_28327_7648" cx="0" cy="0" r="1" gradientTransform="matrix(0 -1.8125 8.0625 0 16.023 14.117)" gradientUnits="userSpaceOnUse">
      <stop stop-color="#3B9017"></stop>
      <stop offset="1" stop-color="#3B9017" stop-opacity="0"></stop>
    </radialGradient>
    <radialGradient id="paint20_radial_28327_7648" cx="0" cy="0" r="1" gradientTransform="matrix(3.89304 -.78575 .934 4.62756 11.516 13.425)" gradientUnits="userSpaceOnUse">
      <stop stop-color="#608371"></stop>
      <stop offset="1" stop-color="#608371" stop-opacity="0"></stop>
    </radialGradient>
    <radialGradient id="paint22_radial_28327_7648" cx="0" cy="0" r="1" gradientTransform="matrix(.86717 -.95535 1.85992 1.68825 12.4 14.256)" gradientUnits="userSpaceOnUse">
      <stop stop-color="#637374"></stop>
      <stop offset="1" stop-color="#637374" stop-opacity="0"></stop>
    </radialGradient>
    <radialGradient id="paint23_radial_28327_7648" cx="0" cy="0" r="1" gradientTransform="matrix(4.37193 -.38214 .0865 .98966 11.651 14.315)" gradientUnits="userSpaceOnUse">
      <stop stop-color="#15600B"></stop>
      <stop offset="1" stop-color="#15600B" stop-opacity="0"></stop>
    </radialGradient>
    <radialGradient id="paint25_radial_28327_7648" cx="0" cy="0" r="1" gradientTransform="matrix(-9.74151 0 0 -1.76903 24.489 23.078)" gradientUnits="userSpaceOnUse">
      <stop stop-color="#A2E070"></stop>
      <stop offset="1" stop-color="#A2E070" stop-opacity="0"></stop>
    </radialGradient>
    <radialGradient id="paint26_radial_28327_7648" cx="0" cy="0" r="1" gradientTransform="matrix(13.1471 0 0 4.03716 10.71 23.078)" gradientUnits="userSpaceOnUse">
      <stop offset=".882" stop-color="#9FDF6B" stop-opacity="0"></stop>
      <stop offset="1" stop-color="#9FDF6B"></stop>
    </radialGradient>
    <radialGradient id="paint27_radial_28327_7648" cx="0" cy="0" r="1" gradientTransform="matrix(-7.72205 0 0 -1.08151 21.58 16.531)" gradientUnits="userSpaceOnUse">
      <stop stop-color="#A2E070"></stop>
      <stop offset="1" stop-color="#A2E070" stop-opacity="0"></stop>
    </radialGradient>
    <radialGradient id="paint28_radial_28327_7648" cx="0" cy="0" r="1" gradientTransform="matrix(10.4217 0 0 2.46816 10.657 16.531)" gradientUnits="userSpaceOnUse">
      <stop offset=".882" stop-color="#9FDF6B" stop-opacity="0"></stop>
      <stop offset="1" stop-color="#9FDF6B"></stop>
    </radialGradient>
    <linearGradient id="paint2_linear_28327_7648" x1="16.023" x2="15.875" y1="30.076" y2="28.858" gradientUnits="userSpaceOnUse">
      <stop stop-color="#7B4064"></stop>
      <stop offset="1" stop-color="#7B4064" stop-opacity="0"></stop>
    </linearGradient>
    <linearGradient id="paint3_linear_28327_7648" x1="11.56" x2="12.983" y1="27.798" y2="27.961" gradientUnits="userSpaceOnUse">
      <stop stop-color="#826C6A"></stop>
      <stop offset="1" stop-color="#826C6A" stop-opacity="0"></stop>
    </linearGradient>
    <linearGradient id="paint4_linear_28327_7648" x1="20.179" x2="19.282" y1="27.603" y2="27.961" gradientUnits="userSpaceOnUse">
      <stop stop-color="#826C6A"></stop>
      <stop offset="1" stop-color="#826C6A" stop-opacity="0"></stop>
    </linearGradient>
    <linearGradient id="paint5_linear_28327_7648" x1="16.023" x2="16.023" y1="29.722" y2="30.024" gradientUnits="userSpaceOnUse">
      <stop stop-color="#8F5790" stop-opacity="0"></stop>
      <stop offset="1" stop-color="#8F5790"></stop>
    </linearGradient>
    <linearGradient id="paint9_linear_28327_7648" x1="17.114" x2="17.114" y1="27.175" y2="26.434" gradientUnits="userSpaceOnUse">
      <stop stop-color="#7F779B"></stop>
      <stop offset="1" stop-color="#7F779B" stop-opacity="0"></stop>
    </linearGradient>
    <linearGradient id="paint12_linear_28327_7648" x1="11.094" x2="17.019" y1="16.531" y2="16.531" gradientUnits="userSpaceOnUse">
      <stop stop-color="#529257"></stop>
      <stop offset="1" stop-color="#529257" stop-opacity="0"></stop>
    </linearGradient>
    <linearGradient id="paint18_linear_28327_7648" x1="14.648" x2="19.398" y1="11.049" y2="11.049" gradientUnits="userSpaceOnUse">
      <stop stop-color="#5A9D57"></stop>
      <stop offset="1" stop-color="#7FC43A"></stop>
    </linearGradient>
    <linearGradient id="paint21_linear_28327_7648" x1="11.96" x2="13.606" y1="10.098" y2="10.714" gradientUnits="userSpaceOnUse">
      <stop stop-color="#608371"></stop>
      <stop offset="1" stop-color="#608371" stop-opacity="0"></stop>
    </linearGradient>
    <linearGradient id="paint24_linear_28327_7648" x1="16.023" x2="16.023" y1="6.39" y2="7.574" gradientUnits="userSpaceOnUse">
      <stop stop-color="#639E52"></stop>
      <stop offset="1" stop-color="#70A960" stop-opacity="0"></stop>
    </linearGradient>
    <linearGradient id="paint29_linear_28327_7648" x1="18.663" x2="15.326" y1="12.277" y2="12.277" gradientUnits="userSpaceOnUse">
      <stop stop-color="#9DD573"></stop>
      <stop offset="1" stop-color="#9DD573" stop-opacity="0"></stop>
    </linearGradient>
    <linearGradient id="paint30_linear_28327_7648" x1="18.553" x2="16.61" y1="9.842" y2="10.362" gradientUnits="userSpaceOnUse">
      <stop stop-color="#9AD869"></stop>
      <stop offset="1" stop-color="#9AD869" stop-opacity="0"></stop>
    </linearGradient>
    <filter id="filter0_i_28327_7648" width="18.153" height="7.641" x="7.072" y="19.258" color-interpolation-filters="sRGB" filterUnits="userSpaceOnUse">
      <feFlood flood-opacity="0" result="BackgroundImageFix"></feFlood>
      <feBlend in="SourceGraphic" in2="BackgroundImageFix" result="shape"></feBlend>
      <feColorMatrix in="SourceAlpha" result="hardAlpha" values="0 0 0 0 0 0 0 0 0 0 0 0 0 0 0 0 0 0 127 0"></feColorMatrix>
      <feOffset dx=".25"></feOffset>
      <feGaussianBlur stdDeviation=".375"></feGaussianBlur>
      <feComposite in2="hardAlpha" k2="-1" k3="1" operator="arithmetic"></feComposite>
      <feColorMatrix values="0 0 0 0 0.486275 0 0 0 0 0.6 0 0 0 0 0.513726 0 0 0 1 0"></feColorMatrix>
      <feBlend in2="shape" result="effect1_innerShadow_28327_7648"></feBlend>
    </filter>
    <filter id="filter1_f_28327_7648" width="15.193" height="9.188" x="10.827" y="18.484" color-interpolation-filters="sRGB" filterUnits="userSpaceOnUse">
      <feFlood flood-opacity="0" result="BackgroundImageFix"></feFlood>
      <feBlend in="SourceGraphic" in2="BackgroundImageFix" result="shape"></feBlend>
      <feGaussianBlur result="effect1_foregroundBlur_28327_7648" stdDeviation="1"></feGaussianBlur>
    </filter>
    <filter id="filter2_f_28327_7648" width="12.873" height="7.172" x="10.335" y="12.945" color-interpolation-filters="sRGB" filterUnits="userSpaceOnUse">
      <feFlood flood-opacity="0" result="BackgroundImageFix"></feFlood>
      <feBlend in="SourceGraphic" in2="BackgroundImageFix" result="shape"></feBlend>
      <feGaussianBlur result="effect1_foregroundBlur_28327_7648" stdDeviation="1"></feGaussianBlur>
    </filter>
    <filter id="filter3_f_28327_7648" width="6.273" height="2.773" x="14.109" y="10.891" color-interpolation-filters="sRGB" filterUnits="userSpaceOnUse">
      <feFlood flood-opacity="0" result="BackgroundImageFix"></feFlood>
      <feBlend in="SourceGraphic" in2="BackgroundImageFix" result="shape"></feBlend>
      <feGaussianBlur result="effect1_foregroundBlur_28327_7648" stdDeviation=".5"></feGaussianBlur>
    </filter>
    <filter id="filter4_f_28327_7648" width="5.153" height="7.673" x="15.6" y="5.871" color-interpolation-filters="sRGB" filterUnits="userSpaceOnUse">
      <feFlood flood-opacity="0" result="BackgroundImageFix"></feFlood>
      <feBlend in="SourceGraphic" in2="BackgroundImageFix" result="shape"></feBlend>
      <feGaussianBlur result="effect1_foregroundBlur_28327_7648" stdDeviation=".5"></feGaussianBlur>
    </filter>
  </defs>
</svg>
