<svg xmlns="http://www.w3.org/2000/svg" width="32" height="32" fill="none" viewBox="0 0 32 32" id="headphone">
  <g filter="url(#filter0_i_18_18382)">
    <path fill="url(#paint0_radial_18_18382)" d="M8.97094 7.24512C6.29539 9.30811 5.9423 11.5837 5.9873 12.9995C6.05991 14.2784 6.22043 15.1674 6.34761 15.8717L6.36089 15.9453C6.51034 16.7742 6.17759 17.5816 5.56055 18.0928L4.91841 18.6248C4.8743 18.6613 4.86067 18.7232 4.88534 18.7749L6.09659 21.3137L4.51715 22.0672L3.3059 19.5285C2.93592 18.753 3.14034 17.8253 3.80197 17.2772L4.44412 16.7452C4.60682 16.6104 4.66887 16.4233 4.63866 16.2557L4.62452 16.1775C4.56451 15.8452 4.27047 13.8177 4.25247 13.0581C4.22614 11.9474 4.29703 8.81201 6.58812 6.15918C9.26 3.06543 13.4866 2.08105 15.9553 2.08105C18.5881 2.08105 22.7402 3.06543 25.4121 6.15918C27.7032 8.81201 27.7741 11.9474 27.7478 13.0581C27.7856 13.7659 27.4357 15.8452 27.3757 16.1775L27.3616 16.2557C27.3314 16.4233 27.3934 16.6104 27.5561 16.7452L28.1983 17.2772C28.8599 17.8253 29.0643 18.753 28.6943 19.5285L27.4831 22.0672L25.9036 21.3137L27.1149 18.7749C27.1396 18.7232 27.1259 18.6613 27.0818 18.6248L26.4397 18.0928C25.8226 17.5816 25.4899 16.7742 25.6393 15.9453L25.6526 15.8717C25.7798 15.1674 25.9403 14.2785 26.0129 12.9997C26.0579 11.5838 25.7049 9.30811 23.0293 7.24512C20.219 5.07819 17.1662 4.90137 15.9553 4.90137C14.7444 4.90137 11.7812 5.07819 8.97094 7.24512Z"></path>
    <path fill="url(#paint1_radial_18_18382)" d="M8.97094 7.24512C6.29539 9.30811 5.9423 11.5837 5.9873 12.9995C6.05991 14.2784 6.22043 15.1674 6.34761 15.8717L6.36089 15.9453C6.51034 16.7742 6.17759 17.5816 5.56055 18.0928L4.91841 18.6248C4.8743 18.6613 4.86067 18.7232 4.88534 18.7749L6.09659 21.3137L4.51715 22.0672L3.3059 19.5285C2.93592 18.753 3.14034 17.8253 3.80197 17.2772L4.44412 16.7452C4.60682 16.6104 4.66887 16.4233 4.63866 16.2557L4.62452 16.1775C4.56451 15.8452 4.27047 13.8177 4.25247 13.0581C4.22614 11.9474 4.29703 8.81201 6.58812 6.15918C9.26 3.06543 13.4866 2.08105 15.9553 2.08105C18.5881 2.08105 22.7402 3.06543 25.4121 6.15918C27.7032 8.81201 27.7741 11.9474 27.7478 13.0581C27.7856 13.7659 27.4357 15.8452 27.3757 16.1775L27.3616 16.2557C27.3314 16.4233 27.3934 16.6104 27.5561 16.7452L28.1983 17.2772C28.8599 17.8253 29.0643 18.753 28.6943 19.5285L27.4831 22.0672L25.9036 21.3137L27.1149 18.7749C27.1396 18.7232 27.1259 18.6613 27.0818 18.6248L26.4397 18.0928C25.8226 17.5816 25.4899 16.7742 25.6393 15.9453L25.6526 15.8717C25.7798 15.1674 25.9403 14.2785 26.0129 12.9997C26.0579 11.5838 25.7049 9.30811 23.0293 7.24512C20.219 5.07819 17.1662 4.90137 15.9553 4.90137C14.7444 4.90137 11.7812 5.07819 8.97094 7.24512Z"></path>
    <path fill="url(#paint2_radial_18_18382)" d="M8.97094 7.24512C6.29539 9.30811 5.9423 11.5837 5.9873 12.9995C6.05991 14.2784 6.22043 15.1674 6.34761 15.8717L6.36089 15.9453C6.51034 16.7742 6.17759 17.5816 5.56055 18.0928L4.91841 18.6248C4.8743 18.6613 4.86067 18.7232 4.88534 18.7749L6.09659 21.3137L4.51715 22.0672L3.3059 19.5285C2.93592 18.753 3.14034 17.8253 3.80197 17.2772L4.44412 16.7452C4.60682 16.6104 4.66887 16.4233 4.63866 16.2557L4.62452 16.1775C4.56451 15.8452 4.27047 13.8177 4.25247 13.0581C4.22614 11.9474 4.29703 8.81201 6.58812 6.15918C9.26 3.06543 13.4866 2.08105 15.9553 2.08105C18.5881 2.08105 22.7402 3.06543 25.4121 6.15918C27.7032 8.81201 27.7741 11.9474 27.7478 13.0581C27.7856 13.7659 27.4357 15.8452 27.3757 16.1775L27.3616 16.2557C27.3314 16.4233 27.3934 16.6104 27.5561 16.7452L28.1983 17.2772C28.8599 17.8253 29.0643 18.753 28.6943 19.5285L27.4831 22.0672L25.9036 21.3137L27.1149 18.7749C27.1396 18.7232 27.1259 18.6613 27.0818 18.6248L26.4397 18.0928C25.8226 17.5816 25.4899 16.7742 25.6393 15.9453L25.6526 15.8717C25.7798 15.1674 25.9403 14.2785 26.0129 12.9997C26.0579 11.5838 25.7049 9.30811 23.0293 7.24512C20.219 5.07819 17.1662 4.90137 15.9553 4.90137C14.7444 4.90137 11.7812 5.07819 8.97094 7.24512Z"></path>
    <path fill="url(#paint3_radial_18_18382)" d="M8.97094 7.24512C6.29539 9.30811 5.9423 11.5837 5.9873 12.9995C6.05991 14.2784 6.22043 15.1674 6.34761 15.8717L6.36089 15.9453C6.51034 16.7742 6.17759 17.5816 5.56055 18.0928L4.91841 18.6248C4.8743 18.6613 4.86067 18.7232 4.88534 18.7749L6.09659 21.3137L4.51715 22.0672L3.3059 19.5285C2.93592 18.753 3.14034 17.8253 3.80197 17.2772L4.44412 16.7452C4.60682 16.6104 4.66887 16.4233 4.63866 16.2557L4.62452 16.1775C4.56451 15.8452 4.27047 13.8177 4.25247 13.0581C4.22614 11.9474 4.29703 8.81201 6.58812 6.15918C9.26 3.06543 13.4866 2.08105 15.9553 2.08105C18.5881 2.08105 22.7402 3.06543 25.4121 6.15918C27.7032 8.81201 27.7741 11.9474 27.7478 13.0581C27.7856 13.7659 27.4357 15.8452 27.3757 16.1775L27.3616 16.2557C27.3314 16.4233 27.3934 16.6104 27.5561 16.7452L28.1983 17.2772C28.8599 17.8253 29.0643 18.753 28.6943 19.5285L27.4831 22.0672L25.9036 21.3137L27.1149 18.7749C27.1396 18.7232 27.1259 18.6613 27.0818 18.6248L26.4397 18.0928C25.8226 17.5816 25.4899 16.7742 25.6393 15.9453L25.6526 15.8717C25.7798 15.1674 25.9403 14.2785 26.0129 12.9997C26.0579 11.5838 25.7049 9.30811 23.0293 7.24512C20.219 5.07819 17.1662 4.90137 15.9553 4.90137C14.7444 4.90137 11.7812 5.07819 8.97094 7.24512Z"></path>
    <path fill="url(#paint4_radial_18_18382)" d="M8.97094 7.24512C6.29539 9.30811 5.9423 11.5837 5.9873 12.9995C6.05991 14.2784 6.22043 15.1674 6.34761 15.8717L6.36089 15.9453C6.51034 16.7742 6.17759 17.5816 5.56055 18.0928L4.91841 18.6248C4.8743 18.6613 4.86067 18.7232 4.88534 18.7749L6.09659 21.3137L4.51715 22.0672L3.3059 19.5285C2.93592 18.753 3.14034 17.8253 3.80197 17.2772L4.44412 16.7452C4.60682 16.6104 4.66887 16.4233 4.63866 16.2557L4.62452 16.1775C4.56451 15.8452 4.27047 13.8177 4.25247 13.0581C4.22614 11.9474 4.29703 8.81201 6.58812 6.15918C9.26 3.06543 13.4866 2.08105 15.9553 2.08105C18.5881 2.08105 22.7402 3.06543 25.4121 6.15918C27.7032 8.81201 27.7741 11.9474 27.7478 13.0581C27.7856 13.7659 27.4357 15.8452 27.3757 16.1775L27.3616 16.2557C27.3314 16.4233 27.3934 16.6104 27.5561 16.7452L28.1983 17.2772C28.8599 17.8253 29.0643 18.753 28.6943 19.5285L27.4831 22.0672L25.9036 21.3137L27.1149 18.7749C27.1396 18.7232 27.1259 18.6613 27.0818 18.6248L26.4397 18.0928C25.8226 17.5816 25.4899 16.7742 25.6393 15.9453L25.6526 15.8717C25.7798 15.1674 25.9403 14.2785 26.0129 12.9997C26.0579 11.5838 25.7049 9.30811 23.0293 7.24512C20.219 5.07819 17.1662 4.90137 15.9553 4.90137C14.7444 4.90137 11.7812 5.07819 8.97094 7.24512Z"></path>
    <path fill="url(#paint5_linear_18_18382)" d="M8.97094 7.24512C6.29539 9.30811 5.9423 11.5837 5.9873 12.9995C6.05991 14.2784 6.22043 15.1674 6.34761 15.8717L6.36089 15.9453C6.51034 16.7742 6.17759 17.5816 5.56055 18.0928L4.91841 18.6248C4.8743 18.6613 4.86067 18.7232 4.88534 18.7749L6.09659 21.3137L4.51715 22.0672L3.3059 19.5285C2.93592 18.753 3.14034 17.8253 3.80197 17.2772L4.44412 16.7452C4.60682 16.6104 4.66887 16.4233 4.63866 16.2557L4.62452 16.1775C4.56451 15.8452 4.27047 13.8177 4.25247 13.0581C4.22614 11.9474 4.29703 8.81201 6.58812 6.15918C9.26 3.06543 13.4866 2.08105 15.9553 2.08105C18.5881 2.08105 22.7402 3.06543 25.4121 6.15918C27.7032 8.81201 27.7741 11.9474 27.7478 13.0581C27.7856 13.7659 27.4357 15.8452 27.3757 16.1775L27.3616 16.2557C27.3314 16.4233 27.3934 16.6104 27.5561 16.7452L28.1983 17.2772C28.8599 17.8253 29.0643 18.753 28.6943 19.5285L27.4831 22.0672L25.9036 21.3137L27.1149 18.7749C27.1396 18.7232 27.1259 18.6613 27.0818 18.6248L26.4397 18.0928C25.8226 17.5816 25.4899 16.7742 25.6393 15.9453L25.6526 15.8717C25.7798 15.1674 25.9403 14.2785 26.0129 12.9997C26.0579 11.5838 25.7049 9.30811 23.0293 7.24512C20.219 5.07819 17.1662 4.90137 15.9553 4.90137C14.7444 4.90137 11.7812 5.07819 8.97094 7.24512Z"></path>
  </g>
  <path fill="url(#paint6_linear_18_18382)" d="M3.72032 22.4236C3.5802 21.9624 3.78897 21.4669 4.21686 21.2451L7.50131 19.5423C7.94222 19.3137 8.4827 19.5379 8.63234 20.0115L11.1429 27.9561C11.2933 28.432 10.9759 28.928 10.4808 28.9908L6.72997 29.4669C6.24636 29.5283 5.78896 29.232 5.64724 28.7656L3.72032 22.4236Z"></path>
  <path fill="url(#paint7_linear_18_18382)" d="M3.72032 22.4236C3.5802 21.9624 3.78897 21.4669 4.21686 21.2451L7.50131 19.5423C7.94222 19.3137 8.4827 19.5379 8.63234 20.0115L11.1429 27.9561C11.2933 28.432 10.9759 28.928 10.4808 28.9908L6.72997 29.4669C6.24636 29.5283 5.78896 29.232 5.64724 28.7656L3.72032 22.4236Z"></path>
  <path fill="url(#paint8_radial_18_18382)" d="M3.72032 22.4236C3.5802 21.9624 3.78897 21.4669 4.21686 21.2451L7.50131 19.5423C7.94222 19.3137 8.4827 19.5379 8.63234 20.0115L11.1429 27.9561C11.2933 28.432 10.9759 28.928 10.4808 28.9908L6.72997 29.4669C6.24636 29.5283 5.78896 29.232 5.64724 28.7656L3.72032 22.4236Z"></path>
  <path fill="url(#paint9_linear_18_18382)" d="M3.72032 22.4236C3.5802 21.9624 3.78897 21.4669 4.21686 21.2451L7.50131 19.5423C7.94222 19.3137 8.4827 19.5379 8.63234 20.0115L11.1429 27.9561C11.2933 28.432 10.9759 28.928 10.4808 28.9908L6.72997 29.4669C6.24636 29.5283 5.78896 29.232 5.64724 28.7656L3.72032 22.4236Z"></path>
  <path fill="url(#paint10_linear_18_18382)" d="M3.72032 22.4236C3.5802 21.9624 3.78897 21.4669 4.21686 21.2451L7.50131 19.5423C7.94222 19.3137 8.4827 19.5379 8.63234 20.0115L11.1429 27.9561C11.2933 28.432 10.9759 28.928 10.4808 28.9908L6.72997 29.4669C6.24636 29.5283 5.78896 29.232 5.64724 28.7656L3.72032 22.4236Z"></path>
  <g filter="url(#filter1_i_18_18382)">
    <path fill="url(#paint11_linear_18_18382)" d="M28.263 22.4236C28.4031 21.9624 28.1943 21.4669 27.7664 21.2451L24.482 19.5423C24.0411 19.3137 23.5006 19.5379 23.3509 20.0115L20.8404 27.9561C20.69 28.432 21.0074 28.928 21.5025 28.9908L25.2533 29.4669C25.7369 29.5283 26.1943 29.232 26.336 28.7656L28.263 22.4236Z"></path>
    <path fill="url(#paint12_linear_18_18382)" d="M28.263 22.4236C28.4031 21.9624 28.1943 21.4669 27.7664 21.2451L24.482 19.5423C24.0411 19.3137 23.5006 19.5379 23.3509 20.0115L20.8404 27.9561C20.69 28.432 21.0074 28.928 21.5025 28.9908L25.2533 29.4669C25.7369 29.5283 26.1943 29.232 26.336 28.7656L28.263 22.4236Z"></path>
    <path fill="url(#paint13_radial_18_18382)" d="M28.263 22.4236C28.4031 21.9624 28.1943 21.4669 27.7664 21.2451L24.482 19.5423C24.0411 19.3137 23.5006 19.5379 23.3509 20.0115L20.8404 27.9561C20.69 28.432 21.0074 28.928 21.5025 28.9908L25.2533 29.4669C25.7369 29.5283 26.1943 29.232 26.336 28.7656L28.263 22.4236Z"></path>
    <path fill="url(#paint14_radial_18_18382)" d="M28.263 22.4236C28.4031 21.9624 28.1943 21.4669 27.7664 21.2451L24.482 19.5423C24.0411 19.3137 23.5006 19.5379 23.3509 20.0115L20.8404 27.9561C20.69 28.432 21.0074 28.928 21.5025 28.9908L25.2533 29.4669C25.7369 29.5283 26.1943 29.232 26.336 28.7656L28.263 22.4236Z"></path>
  </g>
  <path fill="url(#paint15_linear_18_18382)" d="M6.46752 19.7017C6.34016 19.2787 6.57989 18.8324 7.00296 18.7051L9.338 18.0022C9.76108 17.8748 10.2073 18.1146 10.3346 18.5376L13.2486 28.2178C13.376 28.6409 13.1362 29.0871 12.7132 29.2144L10.3781 29.9173C9.95505 30.0447 9.50884 29.805 9.38149 29.3819L6.46752 19.7017Z"></path>
  <path fill="url(#paint16_radial_18_18382)" d="M6.46752 19.7017C6.34016 19.2787 6.57989 18.8324 7.00296 18.7051L9.338 18.0022C9.76108 17.8748 10.2073 18.1146 10.3346 18.5376L13.2486 28.2178C13.376 28.6409 13.1362 29.0871 12.7132 29.2144L10.3781 29.9173C9.95505 30.0447 9.50884 29.805 9.38149 29.3819L6.46752 19.7017Z"></path>
  <path fill="url(#paint17_radial_18_18382)" d="M6.46752 19.7017C6.34016 19.2787 6.57989 18.8324 7.00296 18.7051L9.338 18.0022C9.76108 17.8748 10.2073 18.1146 10.3346 18.5376L13.2486 28.2178C13.376 28.6409 13.1362 29.0871 12.7132 29.2144L10.3781 29.9173C9.95505 30.0447 9.50884 29.805 9.38149 29.3819L6.46752 19.7017Z"></path>
  <path fill="url(#paint18_linear_18_18382)" d="M6.46752 19.7017C6.34016 19.2787 6.57989 18.8324 7.00296 18.7051L9.338 18.0022C9.76108 17.8748 10.2073 18.1146 10.3346 18.5376L13.2486 28.2178C13.376 28.6409 13.1362 29.0871 12.7132 29.2144L10.3781 29.9173C9.95505 30.0447 9.50884 29.805 9.38149 29.3819L6.46752 19.7017Z"></path>
  <path fill="url(#paint19_linear_18_18382)" d="M25.3283 19.7017C25.4556 19.2787 25.2159 18.8324 24.7928 18.7051L22.4578 18.0022C22.0347 17.8748 21.5885 18.1146 21.4611 18.5376L18.5472 28.2178C18.4198 28.6409 18.6595 29.0871 19.0826 29.2144L21.4176 29.9173C21.8407 30.0447 22.2869 29.805 22.4143 29.3819L25.3283 19.7017Z"></path>
  <path fill="url(#paint20_linear_18_18382)" d="M25.3283 19.7017C25.4556 19.2787 25.2159 18.8324 24.7928 18.7051L22.4578 18.0022C22.0347 17.8748 21.5885 18.1146 21.4611 18.5376L18.5472 28.2178C18.4198 28.6409 18.6595 29.0871 19.0826 29.2144L21.4176 29.9173C21.8407 30.0447 22.2869 29.805 22.4143 29.3819L25.3283 19.7017Z"></path>
  <path fill="url(#paint21_radial_18_18382)" d="M25.3283 19.7017C25.4556 19.2787 25.2159 18.8324 24.7928 18.7051L22.4578 18.0022C22.0347 17.8748 21.5885 18.1146 21.4611 18.5376L18.5472 28.2178C18.4198 28.6409 18.6595 29.0871 19.0826 29.2144L21.4176 29.9173C21.8407 30.0447 22.2869 29.805 22.4143 29.3819L25.3283 19.7017Z"></path>
  <path fill="url(#paint22_radial_18_18382)" d="M25.3283 19.7017C25.4556 19.2787 25.2159 18.8324 24.7928 18.7051L22.4578 18.0022C22.0347 17.8748 21.5885 18.1146 21.4611 18.5376L18.5472 28.2178C18.4198 28.6409 18.6595 29.0871 19.0826 29.2144L21.4176 29.9173C21.8407 30.0447 22.2869 29.805 22.4143 29.3819L25.3283 19.7017Z"></path>
  <path fill="url(#paint23_linear_18_18382)" d="M5.98718 12.9995C5.94219 11.5837 6.29527 9.30811 8.97082 7.24512C11.7811 5.07819 14.7443 4.90137 15.9552 4.90137C17.1661 4.90137 20.2189 5.07819 23.0292 7.24512C25.7048 9.30811 26.0578 11.5838 26.0128 12.9997C25.9402 14.2785 25.7797 15.1674 25.6525 15.8717L25.6392 15.9453C25.5195 16.6093 25.7093 17.2597 26.1068 17.7549L26.7731 14.0724C26.7903 13.986 26.806 13.8988 26.8203 13.8115C26.8873 13.4016 26.9219 12.983 26.9219 12.5576C26.9219 7.50073 22.032 3.40137 16 3.40137C9.96801 3.40137 5.07812 7.50073 5.07812 12.5576C5.07812 12.9883 5.1136 13.4121 5.18224 13.8271L5.17969 13.8271L5.89691 17.7503C6.2919 17.2556 6.48014 16.6073 6.36077 15.9453L6.34749 15.8717C6.22031 15.1674 6.05979 14.2784 5.98718 12.9995Z"></path>
  <path fill="url(#paint24_radial_18_18382)" d="M5.98718 12.9995C5.94219 11.5837 6.29527 9.30811 8.97082 7.24512C11.7811 5.07819 14.7443 4.90137 15.9552 4.90137C17.1661 4.90137 20.2189 5.07819 23.0292 7.24512C25.7048 9.30811 26.0578 11.5838 26.0128 12.9997C25.9402 14.2785 25.7797 15.1674 25.6525 15.8717L25.6392 15.9453C25.5195 16.6093 25.7093 17.2597 26.1068 17.7549L26.7731 14.0724C26.7903 13.986 26.806 13.8988 26.8203 13.8115C26.8873 13.4016 26.9219 12.983 26.9219 12.5576C26.9219 7.50073 22.032 3.40137 16 3.40137C9.96801 3.40137 5.07812 7.50073 5.07812 12.5576C5.07812 12.9883 5.1136 13.4121 5.18224 13.8271L5.17969 13.8271L5.89691 17.7503C6.2919 17.2556 6.48014 16.6073 6.36077 15.9453L6.34749 15.8717C6.22031 15.1674 6.05979 14.2784 5.98718 12.9995Z"></path>
  <path fill="url(#paint25_linear_18_18382)" d="M5.98718 12.9995C5.94219 11.5837 6.29527 9.30811 8.97082 7.24512C11.7811 5.07819 14.7443 4.90137 15.9552 4.90137C17.1661 4.90137 20.2189 5.07819 23.0292 7.24512C25.7048 9.30811 26.0578 11.5838 26.0128 12.9997C25.9402 14.2785 25.7797 15.1674 25.6525 15.8717L25.6392 15.9453C25.5195 16.6093 25.7093 17.2597 26.1068 17.7549L26.7731 14.0724C26.7903 13.986 26.806 13.8988 26.8203 13.8115C26.8873 13.4016 26.9219 12.983 26.9219 12.5576C26.9219 7.50073 22.032 3.40137 16 3.40137C9.96801 3.40137 5.07812 7.50073 5.07812 12.5576C5.07812 12.9883 5.1136 13.4121 5.18224 13.8271L5.17969 13.8271L5.89691 17.7503C6.2919 17.2556 6.48014 16.6073 6.36077 15.9453L6.34749 15.8717C6.22031 15.1674 6.05979 14.2784 5.98718 12.9995Z"></path>
  <path fill="url(#paint26_radial_18_18382)" d="M5.98718 12.9995C5.94219 11.5837 6.29527 9.30811 8.97082 7.24512C11.7811 5.07819 14.7443 4.90137 15.9552 4.90137C17.1661 4.90137 20.2189 5.07819 23.0292 7.24512C25.7048 9.30811 26.0578 11.5838 26.0128 12.9997C25.9402 14.2785 25.7797 15.1674 25.6525 15.8717L25.6392 15.9453C25.5195 16.6093 25.7093 17.2597 26.1068 17.7549L26.7731 14.0724C26.7903 13.986 26.806 13.8988 26.8203 13.8115C26.8873 13.4016 26.9219 12.983 26.9219 12.5576C26.9219 7.50073 22.032 3.40137 16 3.40137C9.96801 3.40137 5.07812 7.50073 5.07812 12.5576C5.07812 12.9883 5.1136 13.4121 5.18224 13.8271L5.17969 13.8271L5.89691 17.7503C6.2919 17.2556 6.48014 16.6073 6.36077 15.9453L6.34749 15.8717C6.22031 15.1674 6.05979 14.2784 5.98718 12.9995Z"></path>
  <g filter="url(#filter2_f_18_18382)">
    <path stroke="url(#paint27_linear_18_18382)" stroke-width=".1" d="M26.1724 17.316C26.1896 17.2295 26.806 13.8988 26.8203 13.8115C26.8873 13.4016 26.9219 12.983 26.9219 12.5576C26.9219 7.50073 22.032 3.40137 16 3.40137C9.96801 3.40137 5.07812 7.50073 5.07812 12.5576C5.07812 12.9883 5.1136 13.4121 5.18224 13.8271L5.17969 13.8271L5.83019 17.4014"></path>
  </g>
  <g filter="url(#filter3_f_18_18382)">
    <path stroke="#D1D1D3" stroke-width=".3" d="M27.0589 16.0014C26.9997 16.2263 26.9622 16.7367 27.2856 16.9788C27.609 17.2208 27.8068 17.3878 27.8653 17.441C28.1661 17.6417 28.6741 18.257 28.299 19.1125"></path>
  </g>
  <defs>
    <radialGradient id="paint0_radial_18_18382" cx="0" cy="0" r="1" gradientTransform="rotate(114.311 10.363 9.865)scale(16.9353 23.4245)" gradientUnits="userSpaceOnUse">
      <stop stop-color="#DADADB"></stop>
      <stop offset="1" stop-color="#B9B5BD"></stop>
    </radialGradient>
    <radialGradient id="paint1_radial_18_18382" cx="0" cy="0" r="1" gradientTransform="matrix(9.07664 3.16192 -10.55273 30.29275 3.123 10.807)" gradientUnits="userSpaceOnUse">
      <stop offset=".096" stop-color="#969499"></stop>
      <stop offset="1" stop-color="#969499" stop-opacity="0"></stop>
    </radialGradient>
    <radialGradient id="paint2_radial_18_18382" cx="0" cy="0" r="1" gradientTransform="rotate(-117.087 9.27 8.459)scale(3.0608 1.02371)" gradientUnits="userSpaceOnUse">
      <stop offset=".256" stop-color="#C6C4C9"></stop>
      <stop offset="1" stop-color="#C6C4C9" stop-opacity="0"></stop>
    </radialGradient>
    <radialGradient id="paint3_radial_18_18382" cx="0" cy="0" r="1" gradientTransform="matrix(-.9361 -1.80978 .52064 -.2693 5.834 20.73)" gradientUnits="userSpaceOnUse">
      <stop offset=".167" stop-color="#8D8D8F"></stop>
      <stop offset="1" stop-color="#8D8D8F" stop-opacity="0"></stop>
    </radialGradient>
    <radialGradient id="paint4_radial_18_18382" cx="0" cy="0" r="1" gradientTransform="rotate(-54.382 19.102 -17.682)scale(3.429 6.67803)" gradientUnits="userSpaceOnUse">
      <stop offset=".567" stop-color="#EBEBED"></stop>
      <stop offset="1" stop-color="#EBEBED" stop-opacity="0"></stop>
    </radialGradient>
    <radialGradient id="paint8_radial_18_18382" cx="0" cy="0" r="1" gradientTransform="matrix(2.2938 8.62498 -1.02716 .27317 3.677 22.058)" gradientUnits="userSpaceOnUse">
      <stop stop-color="#817F83"></stop>
      <stop offset="1" stop-color="#817F83" stop-opacity="0"></stop>
    </radialGradient>
    <radialGradient id="paint13_radial_18_18382" cx="0" cy="0" r="1" gradientTransform="rotate(106.376 5.331 21.72)scale(3.71313 .68131)" gradientUnits="userSpaceOnUse">
      <stop stop-color="#C7C6C8"></stop>
      <stop offset="1" stop-color="#BAB8BC" stop-opacity="0"></stop>
    </radialGradient>
    <radialGradient id="paint14_radial_18_18382" cx="0" cy="0" r="1" gradientTransform="rotate(19.747 -53.317 79.395)scale(3.88469 2.56034)" gradientUnits="userSpaceOnUse">
      <stop stop-color="#C1BFC3"></stop>
      <stop offset="1" stop-color="#C1BFC3" stop-opacity="0"></stop>
    </radialGradient>
    <radialGradient id="paint16_radial_18_18382" cx="0" cy="0" r="1" gradientTransform="matrix(4.93751 15.90629 -1.31775 .40905 6.19 18.87)" gradientUnits="userSpaceOnUse">
      <stop stop-color="#A4A2A6"></stop>
      <stop offset="1" stop-color="#C5BACF" stop-opacity="0"></stop>
    </radialGradient>
    <radialGradient id="paint17_radial_18_18382" cx="0" cy="0" r="1" gradientTransform="matrix(-1 .3125 -2.88061 -9.21797 11.533 22.62)" gradientUnits="userSpaceOnUse">
      <stop offset=".262" stop-color="#F6F4F7"></stop>
      <stop offset="1" stop-color="#E6E1EA" stop-opacity="0"></stop>
    </radialGradient>
    <radialGradient id="paint21_radial_18_18382" cx="0" cy="0" r="1" gradientTransform="rotate(15.781 -67.924 84.341)scale(1.4938 15.9576)" gradientUnits="userSpaceOnUse">
      <stop offset=".205" stop-color="#A4A3A6"></stop>
      <stop offset="1" stop-color="#CECAD3" stop-opacity="0"></stop>
    </radialGradient>
    <radialGradient id="paint22_radial_18_18382" cx="0" cy="0" r="1" gradientTransform="matrix(-1.07814 3.76562 -.60048 -.17192 24.237 21.777)" gradientUnits="userSpaceOnUse">
      <stop offset=".151" stop-color="#F5F3F7"></stop>
      <stop offset="1" stop-color="#E8E4EC" stop-opacity="0"></stop>
    </radialGradient>
    <radialGradient id="paint24_radial_18_18382" cx="0" cy="0" r="1" gradientTransform="matrix(.1875 -5.46875 16.82491 .57687 22.627 8.589)" gradientUnits="userSpaceOnUse">
      <stop offset=".172" stop-color="#AFA7B6"></stop>
      <stop offset="1" stop-color="#AFA7B6" stop-opacity="0"></stop>
    </radialGradient>
    <radialGradient id="paint26_radial_18_18382" cx="0" cy="0" r="1" gradientTransform="matrix(.0625 -3.5625 5.42155 .09512 6.283 18.526)" gradientUnits="userSpaceOnUse">
      <stop stop-color="#A5A2A9"></stop>
      <stop offset="1" stop-color="#A5A2A9" stop-opacity="0"></stop>
    </radialGradient>
    <linearGradient id="paint5_linear_18_18382" x1="27.884" x2="27.094" y1="21.416" y2="18.67" gradientUnits="userSpaceOnUse">
      <stop offset=".327" stop-color="#B1B0B4"></stop>
      <stop offset="1" stop-color="#B1B0B4" stop-opacity="0"></stop>
    </linearGradient>
    <linearGradient id="paint6_linear_18_18382" x1="5.064" x2="7.429" y1="21.433" y2="29.475" gradientUnits="userSpaceOnUse">
      <stop stop-color="#A6A0AA"></stop>
      <stop offset="1" stop-color="#9D94A2"></stop>
    </linearGradient>
    <linearGradient id="paint7_linear_18_18382" x1="8.151" x2="7.429" y1="29.475" y2="26.955" gradientUnits="userSpaceOnUse">
      <stop stop-color="#998E9E"></stop>
      <stop offset="1" stop-color="#998E9E" stop-opacity="0"></stop>
    </linearGradient>
    <linearGradient id="paint9_linear_18_18382" x1="4.533" x2="5.877" y1="19.995" y2="23.151" gradientUnits="userSpaceOnUse">
      <stop stop-color="#7F7E80"></stop>
      <stop offset="1" stop-color="#7F7E80" stop-opacity="0"></stop>
    </linearGradient>
    <linearGradient id="paint10_linear_18_18382" x1="8.557" x2="7" y1="24.146" y2="24.654" gradientUnits="userSpaceOnUse">
      <stop offset=".182" stop-color="#807D84"></stop>
      <stop offset="1" stop-color="#807D84" stop-opacity="0"></stop>
    </linearGradient>
    <linearGradient id="paint11_linear_18_18382" x1="27.158" x2="24.555" y1="20.808" y2="29.475" gradientUnits="userSpaceOnUse">
      <stop stop-color="#BAB9BC"></stop>
      <stop offset="1" stop-color="#9F96A4"></stop>
    </linearGradient>
    <linearGradient id="paint12_linear_18_18382" x1="23.252" x2="25.158" y1="29.475" y2="26.401" gradientUnits="userSpaceOnUse">
      <stop stop-color="#9A8F9F"></stop>
      <stop offset="1" stop-color="#9A8F9F" stop-opacity="0"></stop>
    </linearGradient>
    <linearGradient id="paint15_linear_18_18382" x1="7.971" x2="11.721" y1="18.401" y2="30.901" gradientUnits="userSpaceOnUse">
      <stop stop-color="#B7B6B8"></stop>
      <stop offset=".321" stop-color="#D9D5DD"></stop>
      <stop offset=".682" stop-color="#D9D5DD"></stop>
      <stop offset="1" stop-color="#CDC1D4"></stop>
    </linearGradient>
    <linearGradient id="paint18_linear_18_18382" x1="12.143" x2="11.611" y1="24.12" y2="24.261" gradientUnits="userSpaceOnUse">
      <stop offset=".133" stop-color="#DBD9DE"></stop>
      <stop offset="1" stop-color="#DBD9DE" stop-opacity="0"></stop>
    </linearGradient>
    <linearGradient id="paint19_linear_18_18382" x1="24.377" x2="20.096" y1="18.308" y2="31.12" gradientUnits="userSpaceOnUse">
      <stop stop-color="#DAD9DB"></stop>
      <stop offset=".399" stop-color="#DEDDE1"></stop>
      <stop offset=".962" stop-color="#C7B9CF"></stop>
    </linearGradient>
    <linearGradient id="paint20_linear_18_18382" x1="23.939" x2="23.283" y1="18.183" y2="20.276" gradientUnits="userSpaceOnUse">
      <stop offset=".109" stop-color="#C9C9CA"></stop>
      <stop offset="1" stop-color="#C9C9CA" stop-opacity="0"></stop>
    </linearGradient>
    <linearGradient id="paint23_linear_18_18382" x1="6.096" x2="17.408" y1="16.995" y2="2.495" gradientUnits="userSpaceOnUse">
      <stop stop-color="#CDCBCF"></stop>
      <stop offset="1" stop-color="#BEB5C7"></stop>
    </linearGradient>
    <linearGradient id="paint25_linear_18_18382" x1="26.315" x2="22.877" y1="17.755" y2="9.339" gradientUnits="userSpaceOnUse">
      <stop stop-color="#9B99A0"></stop>
      <stop offset="1" stop-color="#9B99A0" stop-opacity="0"></stop>
    </linearGradient>
    <linearGradient id="paint27_linear_18_18382" x1="10.065" x2="25.127" y1="7.089" y2="7.151" gradientUnits="userSpaceOnUse">
      <stop stop-color="#CFC9D4"></stop>
      <stop offset="1" stop-color="#DFDDE3"></stop>
    </linearGradient>
    <filter id="filter0_i_18_18382" width="26.004" height="20.236" x="3.123" y="1.831" color-interpolation-filters="sRGB" filterUnits="userSpaceOnUse">
      <feFlood flood-opacity="0" result="BackgroundImageFix"></feFlood>
      <feBlend in="SourceGraphic" in2="BackgroundImageFix" result="shape"></feBlend>
      <feColorMatrix in="SourceAlpha" result="hardAlpha" values="0 0 0 0 0 0 0 0 0 0 0 0 0 0 0 0 0 0 127 0"></feColorMatrix>
      <feOffset dx=".25" dy="-.25"></feOffset>
      <feGaussianBlur stdDeviation=".25"></feGaussianBlur>
      <feComposite in2="hardAlpha" k2="-1" k3="1" operator="arithmetic"></feComposite>
      <feColorMatrix values="0 0 0 0 0.52549 0 0 0 0 0.513726 0 0 0 0 0.541176 0 0 0 1 0"></feColorMatrix>
      <feBlend in2="shape" result="effect1_innerShadow_18_18382"></feBlend>
    </filter>
    <filter id="filter1_i_18_18382" width="7.704" height="10.223" x="20.603" y="19.452" color-interpolation-filters="sRGB" filterUnits="userSpaceOnUse">
      <feFlood flood-opacity="0" result="BackgroundImageFix"></feFlood>
      <feBlend in="SourceGraphic" in2="BackgroundImageFix" result="shape"></feBlend>
      <feColorMatrix in="SourceAlpha" result="hardAlpha" values="0 0 0 0 0 0 0 0 0 0 0 0 0 0 0 0 0 0 127 0"></feColorMatrix>
      <feOffset dx="-.2" dy=".2"></feOffset>
      <feGaussianBlur stdDeviation=".2"></feGaussianBlur>
      <feComposite in2="hardAlpha" k2="-1" k3="1" operator="arithmetic"></feComposite>
      <feColorMatrix values="0 0 0 0 0.690196 0 0 0 0 0.686275 0 0 0 0 0.698039 0 0 0 1 0"></feColorMatrix>
      <feBlend in2="shape" result="effect1_innerShadow_18_18382"></feBlend>
    </filter>
    <filter id="filter2_f_18_18382" width="22.344" height="14.459" x="4.828" y="3.151" color-interpolation-filters="sRGB" filterUnits="userSpaceOnUse">
      <feFlood flood-opacity="0" result="BackgroundImageFix"></feFlood>
      <feBlend in="SourceGraphic" in2="BackgroundImageFix" result="shape"></feBlend>
      <feGaussianBlur result="effect1_foregroundBlur_18_18382" stdDeviation=".1"></feGaussianBlur>
    </filter>
    <filter id="filter3_f_18_18382" width="2.313" height="3.809" x="26.569" y="15.663" color-interpolation-filters="sRGB" filterUnits="userSpaceOnUse">
      <feFlood flood-opacity="0" result="BackgroundImageFix"></feFlood>
      <feBlend in="SourceGraphic" in2="BackgroundImageFix" result="shape"></feBlend>
      <feGaussianBlur result="effect1_foregroundBlur_18_18382" stdDeviation=".15"></feGaussianBlur>
    </filter>
  </defs>
</svg>
