<svg xmlns="http://www.w3.org/2000/svg" width="32" height="32" fill="none" viewBox="0 0 32 32" id="high-volume">
  <circle cx="18.998" cy="15.989" r="3.219" fill="url(#paint0_radial_18_17849)"></circle>
  <circle cx="18.998" cy="15.989" r="3.219" fill="url(#paint1_radial_18_17849)"></circle>
  <circle cx="18.998" cy="15.989" r="3.219" fill="url(#paint2_radial_18_17849)"></circle>
  <path fill="url(#paint3_linear_18_17849)" d="M2.46631 10.6436C2.46631 9.75992 3.18265 9.04358 4.06631 9.04358H8.40381V22.9342H4.06631C3.18265 22.9342 2.46631 22.2179 2.46631 21.3342V10.6436Z"></path>
  <path fill="url(#paint4_linear_18_17849)" d="M2.46631 10.6436C2.46631 9.75992 3.18265 9.04358 4.06631 9.04358H8.40381V22.9342H4.06631C3.18265 22.9342 2.46631 22.2179 2.46631 21.3342V10.6436Z"></path>
  <path fill="url(#paint5_linear_18_17849)" d="M2.46631 10.6436C2.46631 9.75992 3.18265 9.04358 4.06631 9.04358H8.40381V22.9342H4.06631C3.18265 22.9342 2.46631 22.2179 2.46631 21.3342V10.6436Z"></path>
  <path fill="url(#paint6_linear_18_17849)" d="M2.46631 10.6436C2.46631 9.75992 3.18265 9.04358 4.06631 9.04358H8.40381V22.9342H4.06631C3.18265 22.9342 2.46631 22.2179 2.46631 21.3342V10.6436Z"></path>
  <path fill="url(#paint7_linear_18_17849)" d="M2.46631 10.6436C2.46631 9.75992 3.18265 9.04358 4.06631 9.04358H8.40381V22.9342H4.06631C3.18265 22.9342 2.46631 22.2179 2.46631 21.3342V10.6436Z"></path>
  <path fill="url(#paint8_linear_18_17849)" d="M19.2632 6.86486C19.2632 5.24461 17.539 4.2066 16.1071 4.96478L8.40381 9.04365V22.9343L16.1028 27.033C17.5349 27.7954 19.2632 26.7576 19.2632 25.1352V6.86486Z"></path>
  <path fill="url(#paint9_linear_18_17849)" d="M19.2632 6.86486C19.2632 5.24461 17.539 4.2066 16.1071 4.96478L8.40381 9.04365V22.9343L16.1028 27.033C17.5349 27.7954 19.2632 26.7576 19.2632 25.1352V6.86486Z"></path>
  <path fill="url(#paint10_radial_18_17849)" d="M19.2632 6.86486C19.2632 5.24461 17.539 4.2066 16.1071 4.96478L8.40381 9.04365V22.9343L16.1028 27.033C17.5349 27.7954 19.2632 26.7576 19.2632 25.1352V6.86486Z"></path>
  <path fill="url(#paint11_linear_18_17849)" d="M19.2632 6.86486C19.2632 5.24461 17.539 4.2066 16.1071 4.96478L8.40381 9.04365V22.9343L16.1028 27.033C17.5349 27.7954 19.2632 26.7576 19.2632 25.1352V6.86486Z"></path>
  <path fill="url(#paint12_linear_18_17849)" d="M19.2632 6.86486C19.2632 5.24461 17.539 4.2066 16.1071 4.96478L8.40381 9.04365V22.9343L16.1028 27.033C17.5349 27.7954 19.2632 26.7576 19.2632 25.1352V6.86486Z"></path>
  <path fill="url(#paint13_radial_18_17849)" d="M19.2632 6.86486C19.2632 5.24461 17.539 4.2066 16.1071 4.96478L8.40381 9.04365V22.9343L16.1028 27.033C17.5349 27.7954 19.2632 26.7576 19.2632 25.1352V6.86486Z"></path>
  <g filter="url(#filter0_i_18_17849)">
    <path stroke="url(#paint14_linear_18_17849)" stroke-linecap="round" stroke-width="1.9" d="M23.3003 11.5898C23.9244 12.1601 25.1887 13.6041 25.1887 15.9154C25.1887 18.2266 23.962 19.8482 23.3003 20.4185"></path>
  </g>
  <g filter="url(#filter1_f_18_17849)">
    <path stroke="url(#paint15_linear_18_17849)" stroke-linecap="round" stroke-width=".5" d="M23.5264 11.3961C24.1504 11.9664 25.4148 13.4104 25.4148 15.7217C25.4148 18.0329 24.1881 19.6545 23.5264 20.2247"></path>
  </g>
  <g filter="url(#filter2_i_18_17849)">
    <path stroke="url(#paint16_linear_18_17849)" stroke-linecap="round" stroke-width="1.9" d="M24.2334 7.07458C25.105 7.51037 29.2645 10.0928 29.2645 15.8271C29.2645 21.7378 24.9113 24.1427 24.2012 24.5785"></path>
  </g>
  <g filter="url(#filter3_f_18_17849)">
    <path stroke="url(#paint17_linear_18_17849)" stroke-linecap="round" stroke-width=".5" d="M24.5027 7.05847C25.3743 7.49425 29.5338 10.0767 29.5338 15.811C29.5338 21.7217 25.1806 24.1266 24.4705 24.5624"></path>
  </g>
  <defs>
    <linearGradient id="paint3_linear_18_17849" x1="9.466" x2="5.435" y1="11.247" y2="20.747" gradientUnits="userSpaceOnUse">
      <stop offset=".213" stop-color="#D2CED6"></stop>
      <stop offset="1" stop-color="#DDD5E6"></stop>
    </linearGradient>
    <linearGradient id="paint4_linear_18_17849" x1="5.435" x2="5.435" y1="9.044" y2="14.112" gradientUnits="userSpaceOnUse">
      <stop stop-color="#C5C4C5"></stop>
      <stop offset="1" stop-color="#C5C4C5" stop-opacity="0"></stop>
    </linearGradient>
    <linearGradient id="paint5_linear_18_17849" x1="6.716" x2="6.716" y1="23.309" y2="19.309" gradientUnits="userSpaceOnUse">
      <stop stop-color="#B6B0BD"></stop>
      <stop offset="1" stop-color="#D8D0E1" stop-opacity="0"></stop>
    </linearGradient>
    <linearGradient id="paint6_linear_18_17849" x1="2.466" x2="5.029" y1="18.247" y2="18.247" gradientUnits="userSpaceOnUse">
      <stop offset=".024" stop-color="#A5A5A5"></stop>
      <stop offset="1" stop-color="#C3BECB" stop-opacity="0"></stop>
    </linearGradient>
    <linearGradient id="paint7_linear_18_17849" x1="8.987" x2="8.019" y1="20.736" y2="20.736" gradientUnits="userSpaceOnUse">
      <stop offset=".267" stop-color="#CCC5D4"></stop>
      <stop offset="1" stop-color="#CCC5D4" stop-opacity="0"></stop>
    </linearGradient>
    <linearGradient id="paint8_linear_18_17849" x1="19.841" x2="11.341" y1="7.747" y2="24.059" gradientUnits="userSpaceOnUse">
      <stop stop-color="#BFBAC4"></stop>
      <stop offset="1" stop-color="#CAC2D3"></stop>
    </linearGradient>
    <linearGradient id="paint9_linear_18_17849" x1="7.25" x2="11.433" y1="18.565" y2="18.565" gradientUnits="userSpaceOnUse">
      <stop stop-color="#C4BECC"></stop>
      <stop offset="1" stop-color="#C4BECC" stop-opacity="0"></stop>
    </linearGradient>
    <linearGradient id="paint11_linear_18_17849" x1="12.435" x2="14.123" y1="25.465" y2="22.278" gradientUnits="userSpaceOnUse">
      <stop stop-color="#B3AFB8"></stop>
      <stop offset="1" stop-color="#CAC2D3" stop-opacity="0"></stop>
    </linearGradient>
    <linearGradient id="paint12_linear_18_17849" x1="20.459" x2="17.074" y1="21.693" y2="21.693" gradientUnits="userSpaceOnUse">
      <stop stop-color="#E6E7EF"></stop>
      <stop offset="1" stop-color="#D2CBDA" stop-opacity="0"></stop>
    </linearGradient>
    <linearGradient id="paint14_linear_18_17849" x1="24.244" x2="24.244" y1="11.59" y2="21.468" gradientUnits="userSpaceOnUse">
      <stop stop-color="#41AEFF"></stop>
      <stop offset="1" stop-color="#4998F7"></stop>
    </linearGradient>
    <linearGradient id="paint15_linear_18_17849" x1="24.471" x2="24.471" y1="11.396" y2="21.274" gradientUnits="userSpaceOnUse">
      <stop stop-color="#5BC7FF"></stop>
      <stop offset="1" stop-color="#4C97F6"></stop>
    </linearGradient>
    <linearGradient id="paint16_linear_18_17849" x1="28.409" x2="28.409" y1="11.59" y2="21.468" gradientUnits="userSpaceOnUse">
      <stop stop-color="#41AEFF"></stop>
      <stop offset="1" stop-color="#4998F7"></stop>
    </linearGradient>
    <linearGradient id="paint17_linear_18_17849" x1="27.002" x2="27.002" y1="7.058" y2="26.642" gradientUnits="userSpaceOnUse">
      <stop stop-color="#5BC7FF"></stop>
      <stop offset="1" stop-color="#4C97F6"></stop>
    </linearGradient>
    <radialGradient id="paint0_radial_18_17849" cx="0" cy="0" r="1" gradientTransform="rotate(113.233 6.068 13.954)scale(5.79574)" gradientUnits="userSpaceOnUse">
      <stop offset=".097" stop-color="#E1E0E4"></stop>
      <stop offset="1" stop-color="#CECAD6"></stop>
    </radialGradient>
    <radialGradient id="paint1_radial_18_17849" cx="0" cy="0" r="1" gradientTransform="rotate(145.706 8.275 10.725)scale(1.89104)" gradientUnits="userSpaceOnUse">
      <stop stop-color="#F4F6FE"></stop>
      <stop offset="1" stop-color="#F4F6FE" stop-opacity="0"></stop>
    </radialGradient>
    <radialGradient id="paint2_radial_18_17849" cx="0" cy="0" r="1" gradientTransform="matrix(-.27222 3.9757 -4.04797 -.27717 19.27 15.232)" gradientUnits="userSpaceOnUse">
      <stop offset=".594" stop-color="#D1CCD9" stop-opacity="0"></stop>
      <stop offset="1" stop-color="#B9B6BF"></stop>
    </radialGradient>
    <radialGradient id="paint10_radial_18_17849" cx="0" cy="0" r="1" gradientTransform="matrix(2.625 4.375 -15.32416 9.19451 11.498 6.966)" gradientUnits="userSpaceOnUse">
      <stop offset=".115" stop-color="#ABABAC"></stop>
      <stop offset="1" stop-color="#C2BDC7" stop-opacity="0"></stop>
    </radialGradient>
    <radialGradient id="paint13_radial_18_17849" cx="0" cy="0" r="1" gradientTransform="matrix(0 16.0625 -2.22649 0 18.404 11.653)" gradientUnits="userSpaceOnUse">
      <stop stop-color="#F8F6FB"></stop>
      <stop offset="1" stop-color="#E7E6EE" stop-opacity="0"></stop>
    </radialGradient>
    <filter id="filter0_i_18_17849" width="3.788" height="10.979" x="22.35" y="10.39" color-interpolation-filters="sRGB" filterUnits="userSpaceOnUse">
      <feFlood flood-opacity="0" result="BackgroundImageFix"></feFlood>
      <feBlend in="SourceGraphic" in2="BackgroundImageFix" result="shape"></feBlend>
      <feColorMatrix in="SourceAlpha" result="hardAlpha" values="0 0 0 0 0 0 0 0 0 0 0 0 0 0 0 0 0 0 127 0"></feColorMatrix>
      <feOffset dy="-.25"></feOffset>
      <feGaussianBlur stdDeviation=".325"></feGaussianBlur>
      <feComposite in2="hardAlpha" k2="-1" k3="1" operator="arithmetic"></feComposite>
      <feColorMatrix values="0 0 0 0 0.266667 0 0 0 0 0.396078 0 0 0 0 0.713726 0 0 0 1 0"></feColorMatrix>
      <feBlend in2="shape" result="effect1_innerShadow_18_17849"></feBlend>
    </filter>
    <filter id="filter1_f_18_17849" width="3.188" height="10.129" x="22.876" y="10.746" color-interpolation-filters="sRGB" filterUnits="userSpaceOnUse">
      <feFlood flood-opacity="0" result="BackgroundImageFix"></feFlood>
      <feBlend in="SourceGraphic" in2="BackgroundImageFix" result="shape"></feBlend>
      <feGaussianBlur result="effect1_foregroundBlur_18_17849" stdDeviation=".2"></feGaussianBlur>
    </filter>
    <filter id="filter2_i_18_17849" width="6.964" height="19.804" x="23.251" y="5.724" color-interpolation-filters="sRGB" filterUnits="userSpaceOnUse">
      <feFlood flood-opacity="0" result="BackgroundImageFix"></feFlood>
      <feBlend in="SourceGraphic" in2="BackgroundImageFix" result="shape"></feBlend>
      <feColorMatrix in="SourceAlpha" result="hardAlpha" values="0 0 0 0 0 0 0 0 0 0 0 0 0 0 0 0 0 0 127 0"></feColorMatrix>
      <feOffset dy="-.4"></feOffset>
      <feGaussianBlur stdDeviation=".5"></feGaussianBlur>
      <feComposite in2="hardAlpha" k2="-1" k3="1" operator="arithmetic"></feComposite>
      <feColorMatrix values="0 0 0 0 0.266667 0 0 0 0 0.396078 0 0 0 0 0.713726 0 0 0 1 0"></feColorMatrix>
      <feBlend in2="shape" result="effect1_innerShadow_18_17849"></feBlend>
    </filter>
    <filter id="filter3_f_18_17849" width="6.363" height="18.804" x="23.82" y="6.408" color-interpolation-filters="sRGB" filterUnits="userSpaceOnUse">
      <feFlood flood-opacity="0" result="BackgroundImageFix"></feFlood>
      <feBlend in="SourceGraphic" in2="BackgroundImageFix" result="shape"></feBlend>
      <feGaussianBlur result="effect1_foregroundBlur_18_17849" stdDeviation=".2"></feGaussianBlur>
    </filter>
  </defs>
</svg>
