<svg xmlns="http://www.w3.org/2000/svg" width="32" height="32" fill="none" viewBox="0 0 32 32" id="wave">
  <path fill="#4AB9FF" d="M18.2079 8.42857V5.88599H6.50928V26.7845H25.4884L26.2039 20.2396C23.4779 22.7533 20.9958 23.0145 18.2872 23.0145C14.3241 23.0145 10.9934 19.5675 10.9934 15.6043C10.9934 11.6412 14.2062 8.42847 18.1693 8.42847C18.1822 8.42847 18.195 8.4285 18.2079 8.42857Z"></path>
  <path fill="url(#paint0_radial_18_15842)" d="M18.2079 8.42857V5.88599H6.50928V26.7845H25.4884L26.2039 20.2396C23.4779 22.7533 20.9958 23.0145 18.2872 23.0145C14.3241 23.0145 10.9934 19.5675 10.9934 15.6043C10.9934 11.6412 14.2062 8.42847 18.1693 8.42847C18.1822 8.42847 18.195 8.4285 18.2079 8.42857Z"></path>
  <path fill="url(#paint1_radial_18_15842)" d="M18.2079 8.42857V5.88599H6.50928V26.7845H25.4884L26.2039 20.2396C23.4779 22.7533 20.9958 23.0145 18.2872 23.0145C14.3241 23.0145 10.9934 19.5675 10.9934 15.6043C10.9934 11.6412 14.2062 8.42847 18.1693 8.42847C18.1822 8.42847 18.195 8.4285 18.2079 8.42857Z"></path>
  <g filter="url(#filter0_ii_18_15842)">
    <path fill="url(#paint2_linear_18_15842)" d="M2.00391 15.154L2.00394 29.9922H29.9937L29.9937 17.8442C27.5057 18.7649 25.9825 20.5075 24.1129 22.0289C22.3405 23.4712 20.1514 24.7191 17.0031 24.7191C12.7544 24.7191 7.80713 20.8973 7.80713 15.8858C7.80713 9.86697 12.9891 7.30096 15.8417 7.30096C16.99 7.30096 17.4804 7.54554 17.6761 7.66783L18.8867 9.31877H23.0691V8.3649C22.3965 6.46938 19.5251 2.67834 13.4203 2.67834C7.80713 2.67834 2.00391 8.3649 2.00391 15.154Z"></path>
  </g>
  <path fill="url(#paint3_linear_18_15842)" d="M2.00391 15.154L2.00394 29.9922H29.9937L29.9937 17.8442C27.5057 18.7649 25.9825 20.5075 24.1129 22.0289C22.3405 23.4712 20.1514 24.7191 17.0031 24.7191C12.7544 24.7191 7.80713 20.8973 7.80713 15.8858C7.80713 9.86697 12.9891 7.30096 15.8417 7.30096C16.99 7.30096 17.4804 7.54554 17.6761 7.66783L18.8867 9.31877H23.0691V8.3649C22.3965 6.46938 19.5251 2.67834 13.4203 2.67834C7.80713 2.67834 2.00391 8.3649 2.00391 15.154Z"></path>
  <path fill="url(#paint4_linear_18_15842)" d="M2.00391 15.154L2.00394 29.9922H29.9937L29.9937 17.8442C27.5057 18.7649 25.9825 20.5075 24.1129 22.0289C22.3405 23.4712 20.1514 24.7191 17.0031 24.7191C12.7544 24.7191 7.80713 20.8973 7.80713 15.8858C7.80713 9.86697 12.9891 7.30096 15.8417 7.30096C16.99 7.30096 17.4804 7.54554 17.6761 7.66783L18.8867 9.31877H23.0691V8.3649C22.3965 6.46938 19.5251 2.67834 13.4203 2.67834C7.80713 2.67834 2.00391 8.3649 2.00391 15.154Z"></path>
  <path fill="url(#paint5_radial_18_15842)" d="M2.00391 15.154L2.00394 29.9922H29.9937L29.9937 17.8442C27.5057 18.7649 25.9825 20.5075 24.1129 22.0289C22.3405 23.4712 20.1514 24.7191 17.0031 24.7191C12.7544 24.7191 7.80713 20.8973 7.80713 15.8858C7.80713 9.86697 12.9891 7.30096 15.8417 7.30096C16.99 7.30096 17.4804 7.54554 17.6761 7.66783L18.8867 9.31877H23.0691V8.3649C22.3965 6.46938 19.5251 2.67834 13.4203 2.67834C7.80713 2.67834 2.00391 8.3649 2.00391 15.154Z"></path>
  <g filter="url(#filter1_f_18_15842)">
    <path fill="url(#paint6_linear_18_15842)" d="M9.43707 4.26222C16.3599 1.37389 21.0706 5.4657 22.5606 7.87264L19.9245 8.50303C17.8155 3.36822 12.0541 3.53632 9.43707 4.26222Z"></path>
  </g>
  <circle cx="27.403" cy="8.958" r="1.138" fill="url(#paint7_radial_18_15842)"></circle>
  <circle cx="27.403" cy="8.958" r="1.138" fill="url(#paint8_radial_18_15842)"></circle>
  <circle cx="27.403" cy="14.796" r="1.138" fill="url(#paint9_radial_18_15842)"></circle>
  <circle cx="27.403" cy="14.796" r="1.138" fill="url(#paint10_radial_18_15842)"></circle>
  <g filter="url(#filter2_i_18_15842)">
    <circle cx="17.525" cy="13.957" r="1.138" fill="url(#paint11_radial_18_15842)"></circle>
  </g>
  <circle cx="20.534" cy="5.682" r="1.138" fill="url(#paint12_radial_18_15842)"></circle>
  <g filter="url(#filter3_i_18_15842)">
    <path fill="#A1E5FF" fill-rule="evenodd" d="M16.4037 11.0979C15.916 11.6623 15.1949 12.0194 14.3905 12.0194C12.9215 12.0194 11.7306 10.8286 11.7306 9.35957C11.7306 7.89057 12.9215 6.69971 14.3905 6.69971C15.1949 6.69971 15.916 7.05683 16.4037 7.6212C16.8914 7.05683 17.6125 6.69971 18.4169 6.69971C19.3317 6.69971 20.1387 7.16152 20.6173 7.86472C21.096 7.16152 21.9029 6.69971 22.8177 6.69971C24.2867 6.69971 25.4776 7.89057 25.4776 9.35957C25.4776 10.8286 24.2867 12.0194 22.8177 12.0194C21.9029 12.0194 21.096 11.5576 20.6173 10.8544C20.1387 11.5576 19.3317 12.0194 18.4169 12.0194C17.6125 12.0194 16.8914 11.6623 16.4037 11.0979Z" clip-rule="evenodd"></path>
    <path fill="url(#paint13_radial_18_15842)" fill-rule="evenodd" d="M16.4037 11.0979C15.916 11.6623 15.1949 12.0194 14.3905 12.0194C12.9215 12.0194 11.7306 10.8286 11.7306 9.35957C11.7306 7.89057 12.9215 6.69971 14.3905 6.69971C15.1949 6.69971 15.916 7.05683 16.4037 7.6212C16.8914 7.05683 17.6125 6.69971 18.4169 6.69971C19.3317 6.69971 20.1387 7.16152 20.6173 7.86472C21.096 7.16152 21.9029 6.69971 22.8177 6.69971C24.2867 6.69971 25.4776 7.89057 25.4776 9.35957C25.4776 10.8286 24.2867 12.0194 22.8177 12.0194C21.9029 12.0194 21.096 11.5576 20.6173 10.8544C20.1387 11.5576 19.3317 12.0194 18.4169 12.0194C17.6125 12.0194 16.8914 11.6623 16.4037 11.0979Z" clip-rule="evenodd"></path>
    <path fill="url(#paint14_radial_18_15842)" fill-rule="evenodd" d="M16.4037 11.0979C15.916 11.6623 15.1949 12.0194 14.3905 12.0194C12.9215 12.0194 11.7306 10.8286 11.7306 9.35957C11.7306 7.89057 12.9215 6.69971 14.3905 6.69971C15.1949 6.69971 15.916 7.05683 16.4037 7.6212C16.8914 7.05683 17.6125 6.69971 18.4169 6.69971C19.3317 6.69971 20.1387 7.16152 20.6173 7.86472C21.096 7.16152 21.9029 6.69971 22.8177 6.69971C24.2867 6.69971 25.4776 7.89057 25.4776 9.35957C25.4776 10.8286 24.2867 12.0194 22.8177 12.0194C21.9029 12.0194 21.096 11.5576 20.6173 10.8544C20.1387 11.5576 19.3317 12.0194 18.4169 12.0194C17.6125 12.0194 16.8914 11.6623 16.4037 11.0979Z" clip-rule="evenodd"></path>
    <path fill="url(#paint15_radial_18_15842)" fill-rule="evenodd" d="M16.4037 11.0979C15.916 11.6623 15.1949 12.0194 14.3905 12.0194C12.9215 12.0194 11.7306 10.8286 11.7306 9.35957C11.7306 7.89057 12.9215 6.69971 14.3905 6.69971C15.1949 6.69971 15.916 7.05683 16.4037 7.6212C16.8914 7.05683 17.6125 6.69971 18.4169 6.69971C19.3317 6.69971 20.1387 7.16152 20.6173 7.86472C21.096 7.16152 21.9029 6.69971 22.8177 6.69971C24.2867 6.69971 25.4776 7.89057 25.4776 9.35957C25.4776 10.8286 24.2867 12.0194 22.8177 12.0194C21.9029 12.0194 21.096 11.5576 20.6173 10.8544C20.1387 11.5576 19.3317 12.0194 18.4169 12.0194C17.6125 12.0194 16.8914 11.6623 16.4037 11.0979Z" clip-rule="evenodd"></path>
    <path fill="url(#paint16_radial_18_15842)" fill-rule="evenodd" d="M16.4037 11.0979C15.916 11.6623 15.1949 12.0194 14.3905 12.0194C12.9215 12.0194 11.7306 10.8286 11.7306 9.35957C11.7306 7.89057 12.9215 6.69971 14.3905 6.69971C15.1949 6.69971 15.916 7.05683 16.4037 7.6212C16.8914 7.05683 17.6125 6.69971 18.4169 6.69971C19.3317 6.69971 20.1387 7.16152 20.6173 7.86472C21.096 7.16152 21.9029 6.69971 22.8177 6.69971C24.2867 6.69971 25.4776 7.89057 25.4776 9.35957C25.4776 10.8286 24.2867 12.0194 22.8177 12.0194C21.9029 12.0194 21.096 11.5576 20.6173 10.8544C20.1387 11.5576 19.3317 12.0194 18.4169 12.0194C17.6125 12.0194 16.8914 11.6623 16.4037 11.0979Z" clip-rule="evenodd"></path>
    <path fill="url(#paint17_radial_18_15842)" fill-rule="evenodd" d="M16.4037 11.0979C15.916 11.6623 15.1949 12.0194 14.3905 12.0194C12.9215 12.0194 11.7306 10.8286 11.7306 9.35957C11.7306 7.89057 12.9215 6.69971 14.3905 6.69971C15.1949 6.69971 15.916 7.05683 16.4037 7.6212C16.8914 7.05683 17.6125 6.69971 18.4169 6.69971C19.3317 6.69971 20.1387 7.16152 20.6173 7.86472C21.096 7.16152 21.9029 6.69971 22.8177 6.69971C24.2867 6.69971 25.4776 7.89057 25.4776 9.35957C25.4776 10.8286 24.2867 12.0194 22.8177 12.0194C21.9029 12.0194 21.096 11.5576 20.6173 10.8544C20.1387 11.5576 19.3317 12.0194 18.4169 12.0194C17.6125 12.0194 16.8914 11.6623 16.4037 11.0979Z" clip-rule="evenodd"></path>
    <path fill="url(#paint18_radial_18_15842)" fill-rule="evenodd" d="M16.4037 11.0979C15.916 11.6623 15.1949 12.0194 14.3905 12.0194C12.9215 12.0194 11.7306 10.8286 11.7306 9.35957C11.7306 7.89057 12.9215 6.69971 14.3905 6.69971C15.1949 6.69971 15.916 7.05683 16.4037 7.6212C16.8914 7.05683 17.6125 6.69971 18.4169 6.69971C19.3317 6.69971 20.1387 7.16152 20.6173 7.86472C21.096 7.16152 21.9029 6.69971 22.8177 6.69971C24.2867 6.69971 25.4776 7.89057 25.4776 9.35957C25.4776 10.8286 24.2867 12.0194 22.8177 12.0194C21.9029 12.0194 21.096 11.5576 20.6173 10.8544C20.1387 11.5576 19.3317 12.0194 18.4169 12.0194C17.6125 12.0194 16.8914 11.6623 16.4037 11.0979Z" clip-rule="evenodd"></path>
  </g>
  <path fill="url(#paint19_radial_18_15842)" fill-rule="evenodd" d="M16.4037 11.0979C15.916 11.6623 15.1949 12.0194 14.3905 12.0194C12.9215 12.0194 11.7306 10.8286 11.7306 9.35957C11.7306 7.89057 12.9215 6.69971 14.3905 6.69971C15.1949 6.69971 15.916 7.05683 16.4037 7.6212C16.8914 7.05683 17.6125 6.69971 18.4169 6.69971C19.3317 6.69971 20.1387 7.16152 20.6173 7.86472C21.096 7.16152 21.9029 6.69971 22.8177 6.69971C24.2867 6.69971 25.4776 7.89057 25.4776 9.35957C25.4776 10.8286 24.2867 12.0194 22.8177 12.0194C21.9029 12.0194 21.096 11.5576 20.6173 10.8544C20.1387 11.5576 19.3317 12.0194 18.4169 12.0194C17.6125 12.0194 16.8914 11.6623 16.4037 11.0979Z" clip-rule="evenodd"></path>
  <circle cx="24.5" cy="11.877" r="1.138" fill="url(#paint20_radial_18_15842)"></circle>
  <defs>
    <radialGradient id="paint0_radial_18_15842" cx="0" cy="0" r="1" gradientTransform="matrix(5.48453 -5.2234 11.62845 12.2098 11.578 24.092)" gradientUnits="userSpaceOnUse">
      <stop stop-color="#52C2FF"></stop>
      <stop offset="1" stop-color="#52C2FF" stop-opacity="0"></stop>
    </radialGradient>
    <radialGradient id="paint1_radial_18_15842" cx="0" cy="0" r="1" gradientTransform="rotate(125.538 3.98 11.792)scale(8.42498 8.82776)" gradientUnits="userSpaceOnUse">
      <stop offset=".813" stop-color="#5DC8FF" stop-opacity="0"></stop>
      <stop offset="1" stop-color="#5DC8FF"></stop>
    </radialGradient>
    <radialGradient id="paint5_radial_18_15842" cx="0" cy="0" r="1" gradientTransform="matrix(3.80997 4.04984 -5.45541 5.1323 13.687 12.286)" gradientUnits="userSpaceOnUse">
      <stop offset=".33" stop-color="#40A3EE"></stop>
      <stop offset="1" stop-color="#40A3EE" stop-opacity="0"></stop>
    </radialGradient>
    <radialGradient id="paint7_radial_18_15842" cx="0" cy="0" r="1" gradientTransform="rotate(143.207 12.568 8.935)scale(1.64856)" gradientUnits="userSpaceOnUse">
      <stop stop-color="#BFF7FF"></stop>
      <stop offset="1" stop-color="#8FD9FE"></stop>
    </radialGradient>
    <radialGradient id="paint8_radial_18_15842" cx="0" cy="0" r="1" gradientTransform="rotate(90 9.374 18.029)scale(1.44012)" gradientUnits="userSpaceOnUse">
      <stop offset=".738" stop-color="#85CCF6" stop-opacity="0"></stop>
      <stop offset="1" stop-color="#85CCF6"></stop>
    </radialGradient>
    <radialGradient id="paint9_radial_18_15842" cx="0" cy="0" r="1" gradientTransform="rotate(135.89 11.1 12.736)scale(1.77167)" gradientUnits="userSpaceOnUse">
      <stop stop-color="#BFF4FF"></stop>
      <stop offset="1" stop-color="#90D0F8"></stop>
    </radialGradient>
    <radialGradient id="paint10_radial_18_15842" cx="0" cy="0" r="1" gradientTransform="rotate(124.958 10.245 14.39)scale(1.93867)" gradientUnits="userSpaceOnUse">
      <stop offset=".738" stop-color="#85CCF6" stop-opacity="0"></stop>
      <stop offset="1" stop-color="#85CCF6"></stop>
    </radialGradient>
    <radialGradient id="paint11_radial_18_15842" cx="0" cy="0" r="1" gradientTransform="matrix(-1.29127 .9337 -1.16175 -1.60666 18.054 13.76)" gradientUnits="userSpaceOnUse">
      <stop stop-color="#A8DDFF"></stop>
      <stop offset="1" stop-color="#8AC7FB"></stop>
    </radialGradient>
    <radialGradient id="paint12_radial_18_15842" cx="0" cy="0" r="1" gradientTransform="rotate(137.626 9.437 6.724)scale(1.53118 1.5088)" gradientUnits="userSpaceOnUse">
      <stop stop-color="#BBF7FF"></stop>
      <stop offset="1" stop-color="#85DEFB"></stop>
    </radialGradient>
    <radialGradient id="paint13_radial_18_15842" cx="0" cy="0" r="1" gradientTransform="matrix(-11.7407 0 0 -8.34033 22.722 9.36)" gradientUnits="userSpaceOnUse">
      <stop offset=".719" stop-color="#86CCEE" stop-opacity="0"></stop>
      <stop offset="1" stop-color="#86CCEE"></stop>
    </radialGradient>
    <radialGradient id="paint14_radial_18_15842" cx="0" cy="0" r="1" gradientTransform="rotate(-101.877 15.473 .536)scale(8.04728 3.78154)" gradientUnits="userSpaceOnUse">
      <stop stop-color="#86CCEE"></stop>
      <stop offset=".991" stop-color="#86CCEE" stop-opacity="0"></stop>
    </radialGradient>
    <radialGradient id="paint15_radial_18_15842" cx="0" cy="0" r="1" gradientTransform="matrix(-2.46873 -6.34375 2.98102 -1.1601 23.634 14.35)" gradientUnits="userSpaceOnUse">
      <stop stop-color="#86CCEE"></stop>
      <stop offset=".991" stop-color="#86CCEE" stop-opacity="0"></stop>
    </radialGradient>
    <radialGradient id="paint16_radial_18_15842" cx="0" cy="0" r="1" gradientTransform="matrix(-2.24458 1.25697 -1.24245 -2.21865 15.089 8.497)" gradientUnits="userSpaceOnUse">
      <stop offset=".194" stop-color="#BBF4FF"></stop>
      <stop offset="1" stop-color="#BBF4FF" stop-opacity="0"></stop>
    </radialGradient>
    <radialGradient id="paint17_radial_18_15842" cx="0" cy="0" r="1" gradientTransform="matrix(-2.1997 .7723 -.76338 -2.17427 19.533 8.587)" gradientUnits="userSpaceOnUse">
      <stop offset=".194" stop-color="#BBF4FF"></stop>
      <stop offset="1" stop-color="#BBF4FF" stop-opacity="0"></stop>
    </radialGradient>
    <radialGradient id="paint18_radial_18_15842" cx="0" cy="0" r="1" gradientTransform="matrix(-2.6935 1.42325 -1.43833 -2.72204 24.471 7.936)" gradientUnits="userSpaceOnUse">
      <stop stop-color="#BBF4FF"></stop>
      <stop offset="1" stop-color="#BBF4FF" stop-opacity="0"></stop>
    </radialGradient>
    <radialGradient id="paint19_radial_18_15842" cx="0" cy="0" r="1" gradientTransform="rotate(140.845 11.482 8.065)scale(3.62695 3.90833)" gradientUnits="userSpaceOnUse">
      <stop stop-color="#C3FDFF"></stop>
      <stop offset="1" stop-color="#C3FDFF" stop-opacity="0"></stop>
    </radialGradient>
    <radialGradient id="paint20_radial_18_15842" cx="0" cy="0" r="1" gradientTransform="matrix(-1.4204 1.57934 -1.8827 -1.69322 25.196 11.287)" gradientUnits="userSpaceOnUse">
      <stop offset=".143" stop-color="#BDF3FF"></stop>
      <stop offset="1" stop-color="#83C5F7"></stop>
    </radialGradient>
    <linearGradient id="paint2_linear_18_15842" x1="15.999" x2="15.999" y1="2.678" y2="29.992" gradientUnits="userSpaceOnUse">
      <stop stop-color="#52C3FB"></stop>
      <stop offset="1" stop-color="#3E7FF0"></stop>
    </linearGradient>
    <linearGradient id="paint3_linear_18_15842" x1="15.999" x2="15.999" y1="1.821" y2="15.116" gradientUnits="userSpaceOnUse">
      <stop stop-color="#53C2F9"></stop>
      <stop offset="1" stop-color="#53C2F9" stop-opacity="0"></stop>
    </linearGradient>
    <linearGradient id="paint4_linear_18_15842" x1="17.259" x2="17.259" y1="29.992" y2="29.087" gradientUnits="userSpaceOnUse">
      <stop stop-color="#2E6DEA"></stop>
      <stop offset="1" stop-color="#2E6DEA" stop-opacity="0"></stop>
    </linearGradient>
    <linearGradient id="paint6_linear_18_15842" x1="21.3" x2="5.199" y1="7.873" y2="1.763" gradientUnits="userSpaceOnUse">
      <stop stop-color="#74DEFF"></stop>
      <stop offset="1" stop-color="#74DEFF" stop-opacity="0"></stop>
    </linearGradient>
    <filter id="filter0_ii_18_15842" width="28.74" height="27.814" x="1.754" y="2.678" color-interpolation-filters="sRGB" filterUnits="userSpaceOnUse">
      <feFlood flood-opacity="0" result="BackgroundImageFix"></feFlood>
      <feBlend in="SourceGraphic" in2="BackgroundImageFix" result="shape"></feBlend>
      <feColorMatrix in="SourceAlpha" result="hardAlpha" values="0 0 0 0 0 0 0 0 0 0 0 0 0 0 0 0 0 0 127 0"></feColorMatrix>
      <feOffset dx="-.25" dy=".5"></feOffset>
      <feGaussianBlur stdDeviation=".25"></feGaussianBlur>
      <feComposite in2="hardAlpha" k2="-1" k3="1" operator="arithmetic"></feComposite>
      <feColorMatrix values="0 0 0 0 0.309804 0 0 0 0 0.611765 0 0 0 0 0.996078 0 0 0 1 0"></feColorMatrix>
      <feBlend in2="shape" result="effect1_innerShadow_18_15842"></feBlend>
      <feColorMatrix in="SourceAlpha" result="hardAlpha" values="0 0 0 0 0 0 0 0 0 0 0 0 0 0 0 0 0 0 127 0"></feColorMatrix>
      <feOffset dx=".5" dy=".25"></feOffset>
      <feGaussianBlur stdDeviation=".5"></feGaussianBlur>
      <feComposite in2="hardAlpha" k2="-1" k3="1" operator="arithmetic"></feComposite>
      <feColorMatrix values="0 0 0 0 0.180392 0 0 0 0 0.501961 0 0 0 0 0.882353 0 0 0 1 0"></feColorMatrix>
      <feBlend in2="effect1_innerShadow_18_15842" result="effect2_innerShadow_18_15842"></feBlend>
    </filter>
    <filter id="filter1_f_18_15842" width="15.623" height="7.734" x="8.187" y="2.019" color-interpolation-filters="sRGB" filterUnits="userSpaceOnUse">
      <feFlood flood-opacity="0" result="BackgroundImageFix"></feFlood>
      <feBlend in="SourceGraphic" in2="BackgroundImageFix" result="shape"></feBlend>
      <feGaussianBlur result="effect1_foregroundBlur_18_15842" stdDeviation=".625"></feGaussianBlur>
    </filter>
    <filter id="filter2_i_18_15842" width="2.375" height="2.375" x="16.388" y="12.72" color-interpolation-filters="sRGB" filterUnits="userSpaceOnUse">
      <feFlood flood-opacity="0" result="BackgroundImageFix"></feFlood>
      <feBlend in="SourceGraphic" in2="BackgroundImageFix" result="shape"></feBlend>
      <feColorMatrix in="SourceAlpha" result="hardAlpha" values="0 0 0 0 0 0 0 0 0 0 0 0 0 0 0 0 0 0 127 0"></feColorMatrix>
      <feOffset dx=".1" dy="-.1"></feOffset>
      <feGaussianBlur stdDeviation=".25"></feGaussianBlur>
      <feComposite in2="hardAlpha" k2="-1" k3="1" operator="arithmetic"></feComposite>
      <feColorMatrix values="0 0 0 0 0.505882 0 0 0 0 0.745098 0 0 0 0 0.972549 0 0 0 1 0"></feColorMatrix>
      <feBlend in2="shape" result="effect1_innerShadow_18_15842"></feBlend>
    </filter>
    <filter id="filter3_i_18_15842" width="13.747" height="5.62" x="11.731" y="6.4" color-interpolation-filters="sRGB" filterUnits="userSpaceOnUse">
      <feFlood flood-opacity="0" result="BackgroundImageFix"></feFlood>
      <feBlend in="SourceGraphic" in2="BackgroundImageFix" result="shape"></feBlend>
      <feColorMatrix in="SourceAlpha" result="hardAlpha" values="0 0 0 0 0 0 0 0 0 0 0 0 0 0 0 0 0 0 127 0"></feColorMatrix>
      <feOffset dy="-.3"></feOffset>
      <feGaussianBlur stdDeviation=".625"></feGaussianBlur>
      <feComposite in2="hardAlpha" k2="-1" k3="1" operator="arithmetic"></feComposite>
      <feColorMatrix values="0 0 0 0 0.498039 0 0 0 0 0.741176 0 0 0 0 0.956863 0 0 0 1 0"></feColorMatrix>
      <feBlend in2="shape" result="effect1_innerShadow_18_15842"></feBlend>
    </filter>
  </defs>
</svg>
